<?xml version="1.0" encoding="UTF-8" standalone="no"?>
<!-- Created with Inkscape (http://www.inkscape.org/) -->

<svg
   xmlns:dc="http://purl.org/dc/elements/1.1/"
   xmlns:cc="http://creativecommons.org/ns#"
   xmlns:rdf="http://www.w3.org/1999/02/22-rdf-syntax-ns#"
   xmlns:svg="http://www.w3.org/2000/svg"
   xmlns="http://www.w3.org/2000/svg"
   xmlns:sodipodi="http://sodipodi.sourceforge.net/DTD/sodipodi-0.dtd"
   xmlns:inkscape="http://www.inkscape.org/namespaces/inkscape"
   width="5.1419072mm"
   height="5.2916665mm"
   viewBox="0 0 18.219356 18.749999"
   id="svg8967"
   version="1.1"
   inkscape:version="0.91 r13725"
   sodipodi:docname="accueil.svg">
  <defs
     id="defs8969" />
  <sodipodi:namedview
     id="base"
     pagecolor="#ffffff"
     bordercolor="#666666"
     borderopacity="1.0"
     inkscape:pageopacity="0.0"
     inkscape:pageshadow="2"
     inkscape:zoom="5.6"
     inkscape:cx="30.096237"
     inkscape:cy="20.627471"
     inkscape:document-units="px"
     inkscape:current-layer="layer1"
     showgrid="false"
     fit-margin-top="0"
     fit-margin-left="0"
     fit-margin-right="0"
     fit-margin-bottom="0"
     inkscape:window-width="1366"
     inkscape:window-height="712"
     inkscape:window-x="0"
     inkscape:window-y="0"
     inkscape:window-maximized="1" />
  <metadata
     id="metadata8972">
    <rdf:RDF>
      <cc:Work
         rdf:about="">
        <dc:format>image/svg+xml</dc:format>
        <dc:type
           rdf:resource="http://purl.org/dc/dcmitype/StillImage" />
        <dc:title></dc:title>
      </cc:Work>
    </rdf:RDF>
  </metadata>
  <g
     inkscape:label="Calque 1"
     inkscape:groupmode="layer"
     id="layer1"
     transform="translate(597.2966,-351.32935)">
    <path
       style="fill:#7c8f60;fill-opacity:1"
       d="m -595.91337,369.94112 c -0.0691,-0.0949 -0.10208,-1.35918 -0.10536,-4.03646 l -0.006,-3.89822 1.18222,-3.26373 c 0.65026,-1.79505 1.19693,-3.28043 1.21484,-3.30085 0.0631,-0.0718 5.32621,-2.58055 5.41826,-2.58263 0.13008,-0.003 5.22066,2.43232 5.37984,2.57363 0.0713,0.0634 0.66703,1.58833 1.3236,3.38877 l 1.19382,3.27351 0,3.86711 c 0,2.86885 -0.0284,3.89938 -0.10958,3.99211 -0.0779,0.0888 -0.63316,0.12499 -1.91771,0.12499 l -1.80812,0 0,-3.83332 c 0,-2.8426 -0.0284,-3.86565 -0.10959,-3.95835 -0.15747,-0.17968 -7.65936,-0.17968 -7.81689,0 -0.0813,0.0927 -0.10959,1.11575 -0.10959,3.95835 l 0,3.83332 -1.81519,0 c -1.39698,0 -1.83835,-0.0319 -1.91576,-0.13823 z m 10.16241,-10.02545 c 0.11886,-0.13558 0.14353,-0.45878 0.14353,-1.88185 0,-0.98517 -0.0403,-1.80412 -0.0946,-1.91965 -0.0897,-0.19125 -0.21482,-0.20149 -2.46236,-0.20149 -2.2476,0 -2.37271,0.0102 -2.46241,0.20149 -0.0543,0.11553 -0.0945,0.93448 -0.0945,1.91965 0,1.42307 0.0246,1.74627 0.14346,1.88185 0.21514,0.24541 4.61173,0.24541 4.82686,0 z m -4.2684,-0.63284 c -0.0347,-0.0394 -0.0625,-0.64966 -0.0625,-1.35625 l 0,-1.28472 1.92042,0 1.92042,0 -0.0259,1.32812 -0.0259,1.32813 -1.83216,0.0281 c -1.00766,0.0154 -1.86036,-0.004 -1.89488,-0.0434 z m -1.15856,10.75127 c 0,-0.0994 2.91628,-3.07974 3.01356,-3.07974 0.0952,0 3.0135,2.98557 3.0135,3.08296 0,0.0231 -1.35609,0.042 -3.0135,0.042 -1.65747,0 -3.01356,-0.0204 -3.01356,-0.0452 z m -0.36529,-3.7038 0,-2.95659 0.25116,0.26142 c 0.1381,0.14379 0.76482,0.79358 1.39262,1.44398 0.6278,0.6504 1.14147,1.21299 1.14147,1.25018 0,0.0372 -0.49311,0.57591 -1.09579,1.19711 -0.60275,0.62121 -1.22941,1.27146 -1.39262,1.44498 l -0.29684,0.31551 0,-2.95659 z m 5.34218,1.48707 c -0.75335,-0.77709 -1.36979,-1.44987 -1.36979,-1.49508 0,-0.0452 0.61644,-0.71634 1.36979,-1.49141 l 1.36978,-1.40922 0.0252,1.45385 c 0.0139,0.79962 0.0139,2.10655 0,2.9043 l -0.0252,1.45046 -1.36978,-1.4129 z m -3.38365,-3.49322 -1.33855,-1.38022 1.37943,-0.0288 c 0.75871,-0.0158 2.00017,-0.0158 2.75888,0 l 1.37937,0.0288 -1.33849,1.38022 c -0.73625,0.75911 -1.37534,1.3802 -1.42032,1.3802 -0.0448,0 -0.68414,-0.62109 -1.42032,-1.3802 z m -7.65072,-2.33508 c -0.0335,-0.0382 -0.0612,-0.1322 -0.0612,-0.20891 0,-0.0767 0.55751,-1.6978 1.23887,-3.60243 0.97624,-2.72867 1.30058,-3.52973 1.5296,-3.77789 0.3485,-0.37753 5.92953,-3.07049 6.36345,-3.07049 0.43657,0 6.01608,2.69356 6.3603,3.07049 0.2232,0.24443 0.56673,1.09118 1.53463,3.78257 0.81745,2.27316 1.2274,3.53799 1.19018,3.67187 -0.0646,0.23206 -0.42737,0.27935 -0.56786,0.074 -0.0492,-0.0716 -0.63342,-1.63021 -1.29882,-3.46355 -0.66533,-1.83333 -1.27748,-3.41383 -1.36038,-3.51222 -0.19785,-0.23495 -5.5621,-2.78919 -5.85849,-2.78956 -0.3456,-3.8e-4 -5.85894,2.66167 -5.97275,2.88395 -0.053,0.10377 -0.63152,1.66555 -1.28524,3.47062 -0.65373,1.80507 -1.22184,3.34023 -1.26247,3.41146 -0.0782,0.13703 -0.4473,0.17734 -0.55014,0.0601 z"
       id="path7253-4-3-6-6"
       inkscape:connector-curvature="0"
       inkscape:export-xdpi="89"
       inkscape:export-ydpi="89"
       inkscape:export-filename="/home/emma/Site/images/accueil.png" />
  </g>
</svg>
