<?xml version="1.0" encoding="UTF-8" standalone="no"?>
<!-- Created with Inkscape (http://www.inkscape.org/) -->

<svg
   xmlns:dc="http://purl.org/dc/elements/1.1/"
   xmlns:cc="http://creativecommons.org/ns#"
   xmlns:rdf="http://www.w3.org/1999/02/22-rdf-syntax-ns#"
   xmlns:svg="http://www.w3.org/2000/svg"
   xmlns="http://www.w3.org/2000/svg"
   xmlns:sodipodi="http://sodipodi.sourceforge.net/DTD/sodipodi-0.dtd"
   xmlns:inkscape="http://www.inkscape.org/namespaces/inkscape"
   width="4.593976mm"
   height="5.2916665mm"
   viewBox="0 0 16.277868 18.749999"
   id="svg8967"
   version="1.1"
   inkscape:version="0.91 r13725"
   sodipodi:docname="auxjardins.svg">
  <defs
     id="defs8969" />
  <sodipodi:namedview
     id="base"
     pagecolor="#ffffff"
     bordercolor="#666666"
     borderopacity="1.0"
     inkscape:pageopacity="0.0"
     inkscape:pageshadow="2"
     inkscape:zoom="5.6"
     inkscape:cx="31.746995"
     inkscape:cy="29.951752"
     inkscape:document-units="px"
     inkscape:current-layer="layer1"
     showgrid="false"
     fit-margin-top="0"
     fit-margin-left="0"
     fit-margin-right="0"
     fit-margin-bottom="0"
     inkscape:window-width="1366"
     inkscape:window-height="712"
     inkscape:window-x="0"
     inkscape:window-y="0"
     inkscape:window-maximized="1" />
  <metadata
     id="metadata8972">
    <rdf:RDF>
      <cc:Work
         rdf:about="">
        <dc:format>image/svg+xml</dc:format>
        <dc:type
           rdf:resource="http://purl.org/dc/dcmitype/StillImage" />
        <dc:title></dc:title>
      </cc:Work>
    </rdf:RDF>
  </metadata>
  <g
     inkscape:label="Calque 1"
     inkscape:groupmode="layer"
     id="layer1"
     transform="translate(598.94736,-360.65363)">
    <path
       style="fill:#7c8f60;fill-opacity:1"
       d="m -586.61381,379.17037 c 0.69518,-0.29873 1.1855,-0.29873 1.00091,0 -0.0851,0.13763 -0.45771,0.24231 -0.82805,0.23264 -0.60123,-0.0157 -0.61972,-0.0406 -0.17286,-0.23264 z m -4.52857,-0.77515 c -1.65855,-0.21038 -2.97515,-0.63681 -4.29194,-1.39008 -1.14702,-0.65615 -1.36758,-1.08771 -0.55588,-1.08771 0.27917,0 1.19655,-0.34777 2.03859,-0.77282 0.90956,-0.45917 1.7699,-0.72714 2.11979,-0.66027 0.56975,0.10892 0.58881,0.0596 0.58881,-1.52532 0,-2.1329 -0.67208,-3.55098 -2.22206,-4.6885 -1.58472,-1.16298 -1.84465,-1.07434 -0.59436,0.20268 0.85915,0.87755 1.81552,2.48804 1.81552,3.05724 0,0.23924 -1.65691,0.13984 -2.52747,-0.15163 -1.94692,-0.65185 -3.18378,-2.06089 -3.88022,-4.42033 -0.56572,-1.91649 -0.49405,-1.98739 1.78769,-1.76944 2.13221,0.20367 4.90894,1.358 5.37889,2.23611 0.42371,0.7917 0.74243,0.55585 0.74243,-0.54938 0,-1.70286 0.53549,-3.00772 1.74687,-4.2567 1.2713,-1.31076 2.96592,-1.96544 5.08761,-1.96544 l 1.23862,0 -0.11748,1.81415 c -0.12535,1.93634 -0.82765,3.87908 -1.77475,4.9093 -0.68603,0.74629 -2.32904,1.52125 -3.24068,1.52853 -0.55928,0.004 -0.68811,-0.1059 -0.68811,-0.58952 0,-0.8469 0.6635,-2.33816 1.66202,-3.73534 0.95257,-1.33287 0.49518,-1.26804 -0.83612,0.11852 -1.38089,1.43818 -1.65747,2.43887 -1.77658,6.42721 -0.10272,3.44096 -0.0873,3.5853 0.36875,3.44057 0.26353,-0.0836 0.91498,0.0728 1.45963,0.35047 0.63625,0.32438 1.25155,0.45407 1.74207,0.36716 0.52123,-0.0924 1.02872,0.0334 1.62346,0.40222 0.83751,0.51945 0.84956,0.54862 0.37531,0.91253 -1.728,1.3261 -4.86496,2.10092 -7.27041,1.79579 z"
       id="path7266-3-2-5-2"
       inkscape:connector-curvature="0"
       inkscape:export-xdpi="89"
       inkscape:export-ydpi="89"
       inkscape:export-filename="/home/emma/Site/images/auxjardins.png" />
  </g>
</svg>
