<?xml version="1.0" encoding="UTF-8" standalone="no"?>
<!-- Created with Inkscape (http://www.inkscape.org/) -->

<svg
   xmlns:dc="http://purl.org/dc/elements/1.1/"
   xmlns:cc="http://creativecommons.org/ns#"
   xmlns:rdf="http://www.w3.org/1999/02/22-rdf-syntax-ns#"
   xmlns:svg="http://www.w3.org/2000/svg"
   xmlns="http://www.w3.org/2000/svg"
   xmlns:sodipodi="http://sodipodi.sourceforge.net/DTD/sodipodi-0.dtd"
   xmlns:inkscape="http://www.inkscape.org/namespaces/inkscape"
   width="140.68068mm"
   height="327.87784mm"
   viewBox="0 0 498.47485 1161.7719"
   id="svg8840"
   version="1.1"
   inkscape:version="0.91 r13725"
   sodipodi:docname="bambou.svg">
  <defs
     id="defs8842" />
  <sodipodi:namedview
     id="base"
     pagecolor="#ffffff"
     bordercolor="#666666"
     borderopacity="1.0"
     inkscape:pageopacity="0.0"
     inkscape:pageshadow="2"
     inkscape:zoom="0.35"
     inkscape:cx="-12.905435"
     inkscape:cy="229.45738"
     inkscape:document-units="px"
     inkscape:current-layer="layer1"
     showgrid="false"
     fit-margin-top="0"
     fit-margin-left="0"
     fit-margin-right="0"
     fit-margin-bottom="0"
     inkscape:window-width="1366"
     inkscape:window-height="712"
     inkscape:window-x="0"
     inkscape:window-y="0"
     inkscape:window-maximized="1" />
  <metadata
     id="metadata8845">
    <rdf:RDF>
      <cc:Work
         rdf:about="">
        <dc:format>image/svg+xml</dc:format>
        <dc:type
           rdf:resource="http://purl.org/dc/dcmitype/StillImage" />
        <dc:title></dc:title>
      </cc:Work>
    </rdf:RDF>
  </metadata>
  <g
     inkscape:label="Calque 1"
     inkscape:groupmode="layer"
     id="layer1"
     transform="translate(389.23742,399.95232)">
    <path
       style="fill:#312d20"
       d="m -62.531894,694.49778 c -0.5183,-40.9784 0.55838,-65.0431 2.75135,-61.4947 1.98161,3.2059 2.78246,11.3415 1.77968,18.0786 -1.44952,9.7388 -1.0751,10.6015 1.827,4.2093 3.7807,-8.3274 8.33963,-0.1809 39.36471,70.3495 9.5992796,21.8224 9.6945896,21.9008 7.3271896,6.0299 -4.8010496,-32.185 -19.2153296,-79.0161 -28.5583396,-92.7837 -9.67068,-14.2508 -11.97818,-21.7853 -6.67174,-21.7853 1.59411,0 13.50842,10.4016 26.47624,23.1147 l 23.5778396,23.1149 -6.58756,-16.0799 c -3.62312,-8.844 -11.4672096,-23.9775 -17.4312696,-33.6306 -5.96411,-9.6527 -12.65278,-20.5067 -14.86376,-24.1198 -5.27143,-8.614 -17.06903,-10.4009 -25.08276,-3.7989 -5.73976,4.7287 -6.1342,3.3422 -3.84233,-13.5063 1.40474,-10.3269 5.3911,-31.2492 8.85857,-46.4945 l 6.30452,-27.7189 23.96585,-3.9637 c 13.18124,-2.1797 23.96588963,-3.6148 23.96588963,-3.1887 0,0.4262 -3.36130003,8.2824 -7.46954003,17.4584 l -7.4695496,16.6836 -6.69301,-10.2147 c -3.68116,-5.6179 -10.26929,-10.2147 -14.64028,-10.2147 -10.54085,0 -9.91594,3.3952 3.63144,19.7312 9.96265,12.0128 10.83124,15.1082 7.05046,25.1248 -3.00159,7.9519 -7.09826,11.4235 -13.48057,11.4235 -14.22582,0 -10.86095,10.3547 5.9063,18.1751 8.29119,3.8668 20.50185,9.7026 27.1347996,12.9676 11.46841,5.6453 11.24643,5.0764 -4.52552,-11.598 -15.3402896,-16.2181 -16.2318396,-18.3616 -11.8753996,-28.5486 4.43745,-10.3763 5.10657,-10.6175 11.56047,-4.1635 7.8270796,7.8269 9.44471963,1.4066 2.7821796,-11.0424 -3.1527796,-5.8913 -1.17447,-13.4702 8.79087,-33.6789 7.07254,-14.3421 14.1251304,-25.2945 15.6724604,-24.3381 1.54732,0.9563 4.01426,8.1404 5.48211,15.9645 2.94708,15.7092 10.30254,15.3225 10.30254,-0.5415 0,-5.6766 1.74945,-8.969 4.01997,-7.5656 5.69236,3.5183 4.98677,-3.9742 -1.93413,-20.5384 -4.15432,-9.9426 -8.10132,-13.8364 -13.05767,-12.882 -3.90696,0.7525 -7.14388,4.0573 -7.19317,7.3441 -0.049,3.2871 -1.59661,10.2529 -3.43856,15.4797 -2.9380704,8.3374 -5.1478504,9.2061 -18.0075304,7.0791 -8.0621696,-1.333 -19.4638496,-2.4437 -25.3370696,-2.4682 -15.8119,-0.064 -10.64841,-12.5524 8.56483,-20.7121 15.2806696,-6.4899 15.4993096,-6.8858 13.31671,-24.1198 l -2.2191,-17.5219 12.59294963,11.8071 c 6.92608997,6.4938 12.59292037,10.5037 12.59292037,8.911 0,-5.2211 -19.8490804,-42.1984 -24.04336,-44.7905 -2.25303,-1.3925 -4.09643,-4.483 -4.09643,-6.8681 0,-2.859 7.8754896,-3.5725 23.1148296,-2.0944 l 23.1148204,2.2419 -19.17131,-8.4938 c -21.66884,-9.6008 -22.89112,-17.4522 -2.5011104,-16.0662 l 13.6324804,0.9266 -11.05491,-6.0798 c -6.0802104,-3.3442 -11.05492037,-7.746 -11.05492037,-9.7826 0,-5.6295 9.00850997,-24.1905 11.70020037,-24.1069 1.30332,0.04 10.40967,18.0802 20.23629,40.0879 9.82661,22.0082 18.42613,39.4548 19.11009,38.771 0.68396,-0.6838 -3.07906,-18.2711 -8.36218,-39.0829 -5.28316,-20.8118 -9.09683,-38.4044 -8.47482,-39.095 0.62201,-0.6903 16.83897,2.4755 36.0377,7.0349 19.19869,4.5599 36.120634,8.2104 37.604334,8.1127 6.6605,-0.4386 -32.150764,-18.1325 -57.601994,-26.26 -21.41723,-6.8396 -28.13979,-10.7575 -28.13979,-16.3991 0,-6.0496 4.06632,-7.8007 22.10984,-9.5225 l 22.10983,-2.1097 -17.36534,-5.6456 c -14.44946,-4.6978 -17.01432,-7.0434 -15.27484,-13.9702 1.79696,-7.1556 1.41298,-7.443 -2.73451,-2.0454 -2.65374,3.4536 -8.11547,7.5145 -12.13713,9.0253 -5.25108,1.9717 -6.55979,5.1162 -4.6429,11.1558 1.79913,5.6685 0.17125,10.7373 -4.9942904,15.5496 -7.37407,6.8701 -8.12014,6.7319 -19.75164,-3.661 -9.8661296,-8.8154 -11.3950096,-12.3537 -8.3176396,-19.2504 3.14856,-7.0563 1.26464,-10.6541 -11.42198,-21.814 -8.35583,-7.3505 -17.81381,-15.2928 -21.01773,-17.6501 -3.20395,-2.3569 -5.16341,-7.7227 -4.35439,-11.9236 2.37291,-12.3216 38.06927,-8.6357 52.9439296,5.4667 l 11.33092,10.7426 -4.40846,-11.6125 c -2.42464,-6.3869 -3.90559997,-11.9103 -3.29098,-12.275 0.61461,-0.3658 5.63993,-2.7042 11.1673904,-5.2002 l 10.04992,-4.5377 -10.04992,-0.3337 c -14.1486404,-0.4699 -16.7894004,-2.9125 -35.71417,-33.0329 -16.50186,-26.2645 -16.74181,-27.1573 -12.17512,-45.293 2.56216,-10.1753 6.09552,-19.3887 7.85184,-20.4741 3.59217,-2.2202 15.84552,12.2963 30.6240096,36.2798 8.8048604,14.289 9.7226604,14.8683 8.2417404,5.1999 -1.50877,-9.8502 -0.89489,-10.4672 6.48481,-6.5176 7.69153,4.116 7.61966,3.4829 -1.27404,-11.2298 -31.62105,-52.309797 -36.39416,-65.038297 -28.84674,-76.926497 2.1214096,-3.3414 9.5618596,6.8765 21.9542596,30.1497 C 20.145576,104.79318 28.623246,117.29568 28.674986,113.21388 28.889656,96.274483 15.001546,60.019583 4.1359256,49.153983 c -9.57307,-9.5731 -10.78501,-12.88 -7.18533,-19.6062 2.38151003,-4.4497 3.51542003,-8.905 2.51984003,-9.9007 -0.99559003,-0.9954 -5.89999003,8.2666 -10.89869963,20.5826 -4.99872,12.316 -12.22433,24.5918 -16.05697,27.2791 -3.83264,2.6878 -10.42382,10.5713 -14.64708,17.519 l -7.6787,12.6328 -9.493,-7.687 -9.49305,-7.687 8.97705,-48.1604 c 4.93736,-26.4879997 10.47752,-48.1601 12.31151,-48.1601 1.83395,0 6.63151,4.1555003 10.6612,9.2339003 13.32528,16.7941997 18.36503,16.5031997 9.66108,-0.558 -4.56926,-8.9565003 -10.95008,-17.7634003 -14.17956,-19.5708003 -4.78622,-2.6785 -5.09113,-6.3616 -1.64935,-19.9209 3.27981,-12.9214 6.44397,-17.06 14.1738,-18.5377 7.82379,-1.4955 10.77015,0.2492 13.7811,8.171 4.58976,12.0719 19.9400596,34.2521 22.1651096,32.0271 0.86823,-0.8684 -1.11852,-10.4696 -4.41501,-21.3364 -3.29649997,-10.8668 -6.01319,-20.3487 -6.03715,-21.0707 -0.0241,-0.7224 5.83571,-0.9913 13.0214,-0.5978 7.1857004,0.394 18.4918604,0.3699 25.1248104,-0.056 l 12.05991,-0.7698 -12.3891,-3.5971 c -10.90083,-3.1653 -13.21171,-6.5561 -19.23729,-28.229 -4.37047,-15.719703 -11.2075504,-28.990803 -18.8968304,-36.680203 -8.2256196,-8.2257 -11.2832496,-14.4598 -9.6365496,-19.648 1.32659,-4.18 1.46942,-7.5998 0.31718,-7.5998 -1.15204,0 -6.87439,15.9268 -12.71629,35.3927 -7.81072,26.026 -12.8789,36.398403 -19.15106,39.194703 -4.69118,2.0911 -14.19869,11.2788 -21.1278,20.4174 l -12.59834,16.6149 -2.59023,-50.784703 c -1.42464,-27.9319 -2.59758,-75.3696 -2.60655,-105.4176 -0.0322,-104.8682 -4.77986,-188.5756 -10.69755,-188.5756 -6.598616,0 -6.540766,-12.8088 -1.00945,223.6124 3.80526,162.6448033 3.61825,190.996403 -1.32197,200.425203 l -5.754216,10.9826 -5.32755,-13.4966 c -2.93016,-7.4233 -9.35833,-18.0191997 -14.28476,-23.5465997 -12.10098,-13.5771003 -13.59782,-19.8659003 -17.8487,-74.9865003 -2.01991,-26.1925 -6.5546,-75.661903 -10.07709,-109.932103 -12.08387,-117.5636 -14.44199,-142.7785 -16.8237,-179.8936 -2.12286,-33.0812 -3.23314,-37.1848 -10.06053,-37.1848 -6.42098,0 -7.32186,2.1338 -5.51609,13.0649 1.18706,7.1857 4.08261,34.7728 6.43457,61.3046 10.43311,117.6934 12.00013,134.7783 15.67,170.8487 2.13706,21.0043 6.71343,68.038003 10.16972,104.519203 3.45633,36.4812 7.32539,74.4699 8.59799,84.4193 2.21098,17.2859 1.85023,18.1156 -8.11632,18.6696 -9.85355,0.5479 -10.47511,-0.5632 -11.2449,-20.0999 -1.44015,-36.5498997 -2.12419,-44.6039 -4.65834,-54.8492 -1.36723,-5.5275 -4.36062,-31.7578 -6.65204,-58.2896 -2.29143,-26.531803 -6.05432,-68.138503 -8.36198,-92.459303 -2.30767,-24.3208 -5.66205,-61.405 -7.45419,-82.4094 -9.09792,-106.6288 -13.30843,-136.0237 -19.16247,-133.7773 -6.05018,2.3219 -5.54945,19.1403 2.90559,97.5976 2.02526,18.7934 6.52739,65.827 10.00466,104.5192 3.47731,38.6922 8.07093,84.657 10.20803,102.143403 2.13714,17.4869 3.8857,38.3031 3.8857,46.2586 l 0,14.4647 -17.51661,-1.3929 c -15.53409,-1.2358 -18.28343,-3.0014 -24.29211,-15.6019 -8.07062,-16.9241 -6.2195,-20.3564 6.26351,-11.6129 11.33607,7.9402 15.44536,8.1376 15.44536,0.7425 0,-3.1336 -7.97742,-8.7443 -17.72766,-12.4676 -26.19263,-10.0033 -26.48102,-19.3706 -1.01725,-33.0425 11.37261,-6.106003 21.27975,-14.267703 22.01592,-18.136903 2.28532,-12.0113 -10.46422,-7.9809 -29.10381,9.2005 -11.94409,11.009503 -18.30276,14.568003 -19.75554,11.054903 -1.17825,-2.8494 -1.71612,-1.5626 -1.19521,2.8594 0.52086,4.422 3.11981,11.9912 5.77545,16.8208 8.22775,14.9623 5.8831,17.3489 -17.04419,17.3489 -31.76066,0 -30.8474,6.5578 1.67729,12.0439 l 28.06747,4.7343 -13.09284,12.7156 c -7.2011,6.9939 -16.08836,17.2384 -19.74955,22.7659003 l -6.65663,10.0499 2.41158,-16.0799003 c 2.05754,-13.7194 1.55706,-15.3768 -3.40942,-11.2905 -4.73938,3.8994 -6.71797,2.779 -10.64829,-6.0299 -4.50767,-10.103 -6.6141,-10.854 -31.81264,-11.34 -23.85634,-0.4603 -26.10591,0.1206 -19.40117,5.025 4.17124,3.0499 10.40408,5.6472 13.85072,5.7715 3.44664,0.1246 -5.4918,4.1369 -19.86318,8.9175 l -26.12981,8.6915 19.76438,2.1374 c 17.81563,1.9268003 19.07765,2.7031003 12.79983,7.8748003 -3.83051,3.1552 -9.71852,11.0625 -13.08452,17.5716997 -6.39191,12.3606 -25.52045,83.4807 -25.49497,94.790397 0.0121,5.9641 50.28242,-100.8400967 55.11221,-117.0943967 1.14971,-3.8693003 3.81029,-7.0350003 5.91241,-7.0350003 2.10212,0 2.90624,3.1657 1.787,7.0350003 -1.11928,3.8692 -3.06756,19.6977997 -4.32955,35.1746997 -2.64458,32.4335 0.88102,28.0891 13.86576,-17.0849 4.60753,-16.0295997 10.1097,-29.1448 12.2271,-29.1448 9.67575,0 4.64299,45.2102 -8.61057,77.3503 -6.41274,15.5512 -11.65952,29.3635 -11.65952,30.6941 0,1.3302 8.17854,-9.7722 18.17452,-24.673 9.99602,-14.9004 19.61508,-27.0918 21.37571,-27.0918 1.76062,0 6.31963,9.8928 10.13104,21.984 6.80191,21.5784 6.76368,22.3764 -2.06911,43.214697 -4.94947,11.6768 -10.90329,22.5597 -13.23069,24.1841 -2.32744,1.6245 -2.87496,3.2072 -1.21672,3.5175 1.65823,0.3095 4.37171,0.9302 6.02995,1.3781 1.65824,0.4478 9.73424,2.2198 17.94663,3.9379 21.93473,4.5892 23.40185,8.5412 15.02436,40.4727 -11.03856,42.0742 -9.47551,53.183 3.14124,22.3249 10.04575,-24.5701 10.77975,-25.3628 14.14234,-15.2751 2.74145,8.2244 1.69256,13.1947 -4.62032,21.8947 -10.96631,15.1131 -16.34793,41.1621 -16.02866,77.5846 0.23276,26.5463 0.73457,28.5133 4.19902,16.4582 2.16411,-7.5302 10.33377,-23.6945 18.15482,-35.9209 12.13834,-18.9754 14.79297,-21.2061 18.13328,-15.2372 2.77961,4.967 2.08411,9.7837 -2.40105,16.629 -6.56782,10.0237 -26.88664,54.2506 -24.92397,54.2506 0.61635,0 7.97301,-9.9494 16.34821,-22.1098 8.37521,-12.1604 16.59022,-22.1098 18.25557,-22.1098 1.66535,0 4.115,4.9747 5.44364,11.0549 1.32864,6.0802 3.57472,15.1251 4.99132,20.0998 2.04491,7.1813 0.95084,9.045 -5.30994,9.045 -4.33707,0 -19.47217,7.5768 -33.6336,16.8372 -14.32134,9.3649 -29.6396,16.3894 -34.51694,15.8282 -10.36879,-1.1927 -14.4417,5.3554 -22.48197,36.1448 -3.23406,12.3847 -10.5929,29.4531 -16.35295,37.9296 -11.63206,17.1183 -11.00358,23.0509 1.26569,11.9474 8.64422,-7.8229 10.08144,-6.3279 13.43377,13.9718 1.56642,9.4855 1.69044,9.4099 2.20712,-1.3399 0.34572,-7.1965 2.39755,-10.7522 5.57241,-9.6576 5.44247,1.8762 5.74349,11.0192 1.28852,39.1373 l -2.86612,18.0898 10.94859,-23.1912 c 9.19918,-19.486 12.24,-22.7816 19.03098,-20.626 19.53054,6.1983 33.60746,13.6023 40.64217,21.3757 7.49117,8.2776 7.45933,8.3716 -2.83488,8.3716 -5.72621,0 -15.05153,1.7644 -20.72291,3.9207 -6.69996,2.5471 -10.31162,2.5471 -10.31162,0 0,-2.1563 -3.54171,-3.9207 -7.8705,-3.9207 -5.06982,0 -11.61847,6.3954 -18.40334,17.9729 -5.7931,9.8855 -20.79349,27.4114 -33.33423,38.9471 -23.11261,21.26 -22.83367,21.5209 4.69227,4.3906 13.5604,-8.4391 15.15987,-8.7173 13.17794,-2.293 -5.80881,18.8291 -14.73966,62.7236 -13.09617,64.367 1.01218,1.0122 3.11772,-2.3662 4.679,-7.5073 1.56132,-5.1416 9.98946,-24.8756 18.72924,-43.8539 14.33449,-31.127 17.63782,-35.3552 33.73325,-43.1749 l 17.84272,-8.6686 -9.61637,15.2332 c -5.28904,8.3785 -13.77153,25.0935 -18.85004,37.145 -5.07851,12.051 -15.17768,28.6374 -22.44265,36.8583 -7.26493,8.2208 -19.85704,24.96 -27.98244,37.1974 -11.7671,17.7225 -15.89078,21.3232 -20.26419,17.6935 -6.35127,-5.2709 -29.96694,-2.777 -47.62353,5.0298 l -12.05991,5.3321 18.87706,1.3162 18.87701,1.3161 -18.1504,28.0574 c -14.77327,22.8374 -43.50778,79.447 -36.55596,72.0189 1.03458,-1.1055 16.43786,-20.3587 34.22948,-42.7845 17.79162,-22.4262 34.31096,-41.9874 36.70967,-43.4699 2.39868,-1.4826 14.12324,-17.5191 26.05451,-35.6363 18.27973,-27.7574 38.7302,-52.5059 38.47883,-46.566 -0.0362,0.8957 -3.62485,15.1955 -7.97104,31.7778 -10.71454,40.8802 -9.71389,50.9696 2.39217,24.1198 5.48291,-12.1604 16.54366,-36.1845 24.57946,-53.3867 l 14.6105,-31.2766 16.39363,0.5869 c 9.01651,0.3216 19.52781,1.3946 23.3584,2.3806 6.57562,1.6937 6.58201,2.3976 0.11457,12.5998 -3.7676,5.9436 -15.94666,20.1562 -27.06457,31.5837 -18.66504,19.1844 -41.82055,53.5922 -36.0664,53.5922 1.36289,0 13.62757,-10.7149 27.25483,-23.8107 l 24.77688,-23.8106 -0.8651,32.8555 c -0.4758,18.0706 -0.12341,31.0466 0.78337,28.8357 0.90667,-2.211 7.40077,-25.2756 14.43137,-51.2547 7.03061,-25.9789 14.55981,-47.2345 16.7316,-47.2345 2.17179,0 2.70206,3.1657 1.17841,7.0349 -3.8607,9.8043 -18.03455,74.8594 -16.61843,76.2757 0.63732,0.6375 6.02368,-11.2411 11.9697,-26.3964 5.94602,-15.1552 13.56635,-30.9954 16.93408,-35.1999 5.55624,-6.9365 5.88053,-4.3428 3.5026,28.0154 -1.87351,25.4943 -1.36016,34.8813 1.80074,32.9276 2.43168,-1.5031 4.43134,-4.8871 4.44368,-7.5202 0.0121,-2.6334 1.98675,-11.8629 4.38763,-20.5098 6.85257,-24.6809 10.565,-10.4596 9.15025,35.0513 -0.87643,28.1924 -0.2006,36.8322 2.16696,27.7016 6.46906,-24.9487 7.99488,-17.8185 5.53426,25.8625 -2.27643,40.4111 -1.96022,43.2721 4.21863,38.1688 4.34193,-3.5866 6.67958,-3.9384 6.67958,-1.005 0,2.4815 5.306806,4.512 11.792906,4.512 9.77902,0 12.07889,-1.8878 13.46759,-11.0549 l 1.67468,-11.0549 0.60231,11.0549 c 0.4151,7.6186 2.78901,11.0553 7.63726,11.0557 6.45383,0 6.9646,-5.56 6.1834,-67.3232 z m -38.044076,-69.0896 c 3.197836,-8.07 7.740806,11.3564 7.928336,33.9028 0.13065,15.7044 0.0121,15.5697 -5.14492,-5.763 -2.903296,-12.0137 -4.155836,-24.6766 -2.783416,-28.1398 z m 7.476096,-38.4566 c -1.43152,-21.0526 -1.03165,-27.4548 1.15775,-18.5377 1.83946,7.4925 4.31934,31.9138 5.51082,54.2695 1.57744,29.5975 1.26271,34.6369 -1.15771,18.5377 -1.82824,-12.1604 -4.30813,-36.5816 -5.51086,-54.2695 z m 29.40954,21.4867 c 0,-16.448 0.12261,-16.592 8.03995,-9.4268 9.90536,8.9641 10.24855,16.4039 1.00499,21.7879 -3.86922,2.2535 -7.48719,4.1525 -8.03994,4.2196 -0.55275,0.068 -1.005,-7.3938 -1.005,-16.5807 z m -59.446356,-3.9464 c 1.00359,-3.0109 2.8258,-1.1887 4.2473,4.2471 1.74857,6.6869 1.22541,8.2563 -1.75769,5.2735 -2.336,-2.336 -3.45633,-6.6206 -2.48961,-9.5206 z m 15.50925,-71.475 c -0.37707,-39.7836 2.19269,-34.9958 5.2141,9.7151 1.56783,23.2004 1.12181,33.2954 -1.24334,28.1398 -2.02851,-4.422 -3.81539,-21.4566 -3.97076,-37.8549 z m -56.34766,34.0934 c -2.63449,-3.1746 -10.21957,-6.9642 -16.85574,-8.4219 -6.69931,-1.4713 -11.28827,-4.715 -10.31769,-7.293 0.96146,-2.5539 4.77621,-15.1091 8.47723,-27.9006 4.13056,-14.2761 8.38847,-22.2316 11.02614,-20.6015 7.86056,4.8581 -0.85473,-16.0707 -9.97861,-23.9623 -4.78256,-4.1365 -8.13325,-10.15 -7.44591,-13.3632 2.01151,-9.4027 -6.47517,-16.3994 -28.69386,-23.6567 -11.4375,-3.7357 -21.38109,-7.2846 -22.09689,-7.8867 -2.11904,-1.7821 12.08331,-27.7133 16.93722,-30.9249 7.88396,-5.2159 10.4487,-3.427 22.63367,15.7864 7.76594,12.2457 10.43616,19.8064 7.61157,21.5523 -2.61254,1.6148 -1.26207,3.497 3.37987,4.7106 4.252,1.1119 12.60546,10.7434 18.56322,21.4027 8.63775,15.4548 10.08771,21.5169 7.15711,29.9239 -2.12793,6.1039 -2.24503,19.5897 -0.27818,32.0323 1.8684,11.8195 2.2599,23.3299 0.87,25.5787 -1.38994,2.2491 2.23627,0.6142 8.05819,-3.6325 5.82192,-4.2471 10.64215,-10.0901 10.71165,-12.9841 0.0695,-2.8944 1.6904,-4.2957 3.60209,-3.1142 3.54196,2.1892 -11.45015,38.008 -16.04848,38.3424 -1.38749,0.1005 -4.6782,-2.4136 -7.31268,-5.5877 z m 98.264366,-77.8544 c 1.59356,-8.5862 5.58126,-14.4566 11.2872,-16.6165 11.5013,-4.3537 12.57382,-2.9125 6.28474,8.4439 -2.85984,5.1641 -4.74139,10.9677 -4.18121,12.8973 0.56015,1.9296 -2.22123,17.306 -6.1809,34.1697 l -7.19942,30.6615 -1.23726,-28.1397 c -0.6805,-15.4769 -0.12824,-34.1143 1.22685,-41.4162 z m -150.738436,63.0573 c 0,-2.5029 -3.54095,-3.5629 -8.00352,-2.3959 -6.0833,1.5907 -3.52985,-3.6015 10.64295,-21.6411 10.25554,-13.0537 19.29987,-23.7339 20.09852,-23.7339 3.5184,0 -4.30744,46.5319 -8.27169,49.1831 -6.62845,4.4328 -14.46626,3.6674 -14.46626,-1.4122 z m 57.55346,-20.3849 c 1.28325,-3.2067 2.23583,-2.2544 2.4287,2.4289 0.17447,4.2374 -0.77553,6.612 -2.11136,5.2762 -1.3358,-1.3359 -1.47859,-4.8031 -0.31718,-7.7051 z m 53.62695,-71.2708 c 3.53813,-4.2982 5.12952,4.7479 7.034616,39.989 l 2.05778,38.0655 -5.235526,-38.1897 c -2.87958,-21.0044 -4.61516,-38.9435 -3.85687,-39.8648 z m -50.88087,53.9347 c 0,-3.3165 1.80899,-6.03 4.01997,-6.03 2.21098,0 4.01997,2.7135 4.01997,6.03 0,3.3165 -1.80899,6.0299 -4.01997,6.0299 -2.21098,0 -4.01997,-2.7134 -4.01997,-6.0299 z m 41.38264,-23.1148 c 0.95816,-4.9748 1.74214,-0.9045 1.74214,9.0449 0,9.9494 -0.78398,14.0196 -1.74214,9.0449 -0.9582,-4.9747 -0.9582,-13.1151 0,-18.0898 z m -33.3427,1.2421 c 0,-16.0244 6.70692,-19.1821 8.9068,-4.1932 0.97203,6.6229 0.87318,12.9359 -0.21989,14.0289 -5.05993,5.0599 -8.68707,0.9531 -8.68707,-9.8357 z m 6.66326,-40.102 c 3.39249,-4.1273 6.44851,4.8111 7.72047,22.5814 l 1.38094,19.2934 -5.23902,-20.0998 c -2.88148,-11.0549 -4.61955,-20.8536 -3.86239,-21.775 z m 47.529896,-44.6771 c -5.16558,-55.5464 -5.62711,-77.37 -2.20777,-104.3966 2.37765,-18.7934 4.23319,-41.858 4.12336,-51.2547 -0.10974,-9.3967 1.60173,-17.0848 3.80339,-17.0848 2.50524,0 4.19134,29.706 4.50634,79.3944 0.27698,43.6669 1.15723,85.7258 1.95644,93.4643 1.48405,14.3694 -2.18188,73.5731 -4.41726,71.3376 -0.67849,-0.6786 -4.17253,-32.8356 -7.7645,-71.4602 z m -72.476216,56.0287 c -3.53629,-6.8384 -5.60517,-13.2579 -4.59756,-14.2657 3.75618,-3.7562 23.15591,3.6948 21.04832,8.0838 -1.20037,2.5 -3.29915,7.7111 -4.66393,11.5803 -3.34224,9.4755 -4.32882,9.0236 -11.78683,-5.3984 z m 46.42284,0.3739 c 0,-4.422 1.80898,-8.04 4.01997,-8.04 2.21098,0 4.01997,3.618 4.01997,8.04 0,4.4219 -1.80899,8.0399 -4.01997,8.0399 -2.21099,0 -4.01997,-3.618 -4.01997,-8.0399 z m 53.381176,-28.7034 c 2.01489,-22.2208 6.6443,-31.3457 15.99845,-31.5347 1.67753,-0.04 2.10903,10.3402 0.95884,23.0533 l -2.09123,23.1149 9.66445,-19.4092 c 11.58008,-23.2568 15.38824,-20.089 7.62697,6.3443 -4.62948,15.7671 -7.25171,19.0948 -15.04647,19.0948 -7.60683,0 -9.11403,-1.7563 -7.76172,-9.0449 1.23582,-6.6607 0.51842,-6.1309 -2.72135,2.01 -6.93462,17.4249 -9.04945,13.0761 -6.62794,-13.6285 z m 35.86409,3.5786 c 2.4242,-7.1857 4.71936,-13.4943 5.10034,-14.0193 0.38109,-0.525 3.70114,5.3542 7.37813,13.0649 l 6.68537,14.0193 -11.78575,0 c -11.52091,0 -11.68669,-0.2935 -7.37809,-13.0649 z m -154.961506,-6.0429 c -2.21529,-3.5842 16.96535,-37.1718 21.22748,-37.1718 5.29635,0 11.64851,35.6969 6.71464,37.7338 -7.37327,3.0439 -25.94444,2.6705 -27.94212,-0.562 z m 60.26127,-32.1469 c -1.44466,-17.1351 -3.44789,-39.2952 -4.4516,-49.2446 -1.00374,-9.9494 1.62134,0.9045 5.83349,24.1198 8.77174,48.3454 9.42993,56.2796 4.66892,56.2796 -1.88328,0 -4.60617,-14.0196 -6.05081,-31.1548 z m -58.77823,-132.2787 c -0.0474,-0.3417 6.24515,-8.2027 13.98359,-17.4652 7.73844,-9.2624 14.06989,-16.2165 14.06989,-15.4535 0,0.7626 -2.68208,14.049 -5.96017,29.5251 -8.31691,39.2646 -7.49431,53.9733 1.57659,28.1896 6.88617,-19.5736 7.12154,-19.7766 9.93677,-8.5597 2.62709,10.4672 6.088,44.3338 12.37222,121.0674 2.11052,25.77 0.27536,21.2001 -21.79399,-54.2696 -13.2542,-45.3251 -24.13742,-82.6904 -24.1849,-83.0341 z m 30.13269,140.9667 c -3.59221,-12.3566 -5.80998,-24.5672 -4.92836,-27.1348 1.53442,-4.4686 14.90906,36.0752 14.90906,45.1953 0,10.0174 -3.83642,3.0753 -9.9807,-18.0605 z m -111.20377,8.8335 c 1.42745,-4.9912 9.57114,-17.0809 18.0971,-26.8659 14.53544,-16.6812 15.00437,-16.9132 7.52248,-3.7205 -4.3886,7.7385 -10.11553,20.7555 -12.7265,28.9265 -5.26254,16.4694 -17.58186,18.0553 -12.89308,1.6599 z m 147.29376,-37.5341 c -5.42262,-34.1078 -5.62699,-42.434 -1.23096,-50.1407 4.8314,-8.4696 5.48143,-6.8922 7.78709,18.8987 3.13807,35.102 4.10226,76.2974 1.73027,73.9253 -0.98123,-0.9809 -4.71008,-20.1887 -8.2864,-42.6833 z m -81.26753,12.1942 c 13.71742,-7.6227 15.83015,-6.3319 12.79524,7.8184 -4.23114,19.7276 -6.15655,20.8745 -14.27347,8.5011 -7.36575,-11.2286 -7.34894,-11.4139 1.47823,-16.3195 z m 129.586606,-56.4577 2.51871,-21.061 11.77607,6.0895 c 6.47685,3.3494 11.7761,7.1382 11.7761,8.4202 0,1.2816 -4.86292,17.9685 -10.80648,37.0814 l -10.8065,34.751 -3.48829,-22.1098 c -1.91857,-12.1604 -2.35489,-31.5873 -0.96961,-43.1713 z m 19.29819,31.0539 c 4.84487,-16.4051 6.38508,-17.952 17.06542,-17.1432 6.45691,0.4889 12.32635,2.6488 13.04319,4.7991 0.71684,2.1507 3.86802,2.9257 7.00263,1.7229 4.8767396,-1.8713 4.9263496,0.048 0.3437,13.2909 -4.85532,14.0317 -6.73497,15.5175 -20.12215,15.9058 -8.12163,0.2372 -16.04366,1.7057 -17.60454,3.2662 -5.21546,5.2155 -5.10532,-3.634 0.27175,-21.8417 z m -166.086006,14.1274 c 0,-3.3165 -2.43313,-6.03 -5.4069,-6.03 -5.63777,0 -21.2346,-14.9969 -18.35329,-17.6472 0.90771,-0.835 16.50828,-8.9513 34.66801,-18.036 l 33.01766,-16.5181 6.17705,20.8001 c 3.39735,11.4405 6.17704,21.1258 6.17704,21.5234 0,0.3979 -4.07946,-0.056 -9.06547,-1.0099 -5.80894,-1.1107 -14.83449,2.601 -25.12481,10.3322 -18.47502,13.8797 -22.08929,14.9575 -22.08929,6.5855 z m -34.85595,-16.7335 c 1.1887,-1.1887 4.28376,-0.8499 6.87789,0.7537 3.49713,2.1611 3.30646,3.7908 -0.73755,6.3037 -5.36039,3.3302 -10.55628,-2.6415 -6.14034,-7.0574 z m 225.765916,-53.089 -2.82017,-13.5428 12.79335,7.5129 c 18.7177796,10.9922 21.0079596,14.9543 16.10202963,27.858 l -4.28597003,11.2728 -9.4845196,-9.779 c -5.21647,-5.3783 -10.75362,-15.8733 -12.30472,-23.3219 z m -106.473206,-12.4836 c -3.60253,-21.3585 -3.61479,-31.4128 -0.0515,-42.2097 2.57266,-7.7951 6.13548,-14.1732 7.91744,-14.1732 4.99059,0 7.23442,52.3891 2.97003,69.3445 -2.08532,8.2912 -4.31245,15.0749 -4.94925,15.0749 -0.63677,0 -3.28585,-12.6163 -5.88677,-28.0365 z m 67.183776,-10.1532 c 1.24563,-11.0549 2.79422,-20.7318 3.44127,-21.5044 1.01569,-1.2129 21.81686,37.3688 21.81686,40.4658 0,0.6259 -6.19265,1.1384 -13.76148,1.1384 l -13.76146,0 2.26481,-20.0998 z m -37.703776,5.0249 c 1.11518,-2.7637 2.02763,-0.5024 2.02763,5.025 0,5.5275 -0.91245,7.7887 -2.02763,5.025 -1.11518,-2.7638 -1.11518,-7.2862 0,-10.05 z m 29.771296,-28.1397 c -1.30279,-18.3553 -0.42945,-23.1149 4.24107,-23.1149 4.55961,0 5.32159,3.3884 3.38996,15.0749 -1.37045,8.2912 -2.65447,20.5019 -2.85334,27.1348 -0.51733,17.2533 -2.86334,7.8771 -4.77769,-19.0948 z m 34.86983,8.0399 c -3.61194,-7.1857 -10.44211,-16.3826 -15.17812,-20.4371 -5.09479,-4.3621 -1.23944,-3.1766 9.44166,2.9032 19.06812,10.8535 22.30155,15.14 18.63248,24.7015 -3.31499,8.6385 -5.58502,7.3771 -12.89602,-7.1676 z m -71.458476,-22.1099 c -4.46695,-27.025 -2.74668,-41.1436 7.46971,-61.3045 5.527456,-10.9078 10.049916,-21.7018 10.049916,-23.9864 0,-6.1188 -8.424156,-5.0519 -16.285936,2.0631 -6.32687,5.7256 -7.04785,5.1705 -9.13297,-7.035 -1.2451,-7.2882 -3.48447,-29.072 -4.97632,-48.408 l -2.71242,-35.156697 18.56381,10.3756 18.563816,10.3755 0,37.701697 c 0,34.1766 -6.45113,113.0005 -10.26504,125.4247 -3.041626,9.9084 -8.828256,4.7504 -11.274566,-10.05 z m -103.58045,-22.4788 c 7.56703,-23.4224 7.86081,-27.7479 2.98483,-43.9496 -5.21246,-17.3196 -4.91868,-19.0273 8.11386,-47.1639 7.43719,-16.0565 13.52213,-30.8914 13.52213,-32.9673 0,-7.954297 -14.17481,-0.5431 -22.45144,11.7383 -7.14273,10.599 -9.72467,12.006 -14.70232,8.0122 -3.3209,-2.6648 -7.90945,-10.5098 -10.19681,-17.4338 -3.77994,-11.441697 -2.66042,-14.700597 12.2884,-35.772897 14.01912,-19.7618 16.88938,-22.0576 19.44222,-15.5513 6.02819,15.3644 3.85829,28.371 -5.48488,32.8769 l -9.04494,4.3621 10.04993,0.7353 c 5.52745,0.404 12.95865,0.4562 16.51375,0.1165 5.10347,-0.4888 7.03157,4.9225 9.16147,25.711797 1.48373,14.4819 4.40942,30.8327 6.50158,36.3357 3.55453,9.3488 2.95391,10.0262 -9.16147,10.3305 -12.76558,0.3216 -12.67111,0.4518 6.12945,8.5416 13.40667,5.7691 19.09485,10.5428 19.09485,16.0256 0,6.0569 -1.85907,7.2187 -8.28656,5.1786 -9.82091,-3.1167 -35.86344,12.9455 -35.90565,22.146 -0.0322,7.3187 -13.38083,40.2885 -15.46598,38.2034 -0.82253,-0.8225 2.28137,-13.1864 6.89758,-27.4749 z m 26.39066,-4.8538 c 3.55051,-5.4185 10.11697,-9.8521 14.59216,-9.8521 7.33866,0 6.83673,1.6201 -5.11766,16.5189 -9.81162,12.2279 -13.60181,14.787 -14.59213,9.8521 -0.73581,-3.6666 1.56711,-11.0999 5.11763,-16.5189 z m 47.74369,9.494 c 1.28325,-3.2067 2.23582,-2.2544 2.4287,2.4289 0.17447,4.2374 -0.77553,6.612 -2.11137,5.2762 -1.33579,-1.3359 -1.47858,-4.8031 -0.31717,-7.7051 z m 69.404366,-9.7263 c -3.49733,-1.3419 -6.35875,-5.1536 -6.35875,-8.4701 0,-3.8467 2.30204,-5.1463 6.35875,-3.5898 3.49729,1.3423 7.11527,2.4401 8.03995,2.4401 0.92463,0 1.68119,2.7135 1.68119,6.03 0,6.766 -0.73626,7.0377 -9.72114,3.5898 z m -74.555756,-30.7246 c -0.0784,-3.8693 1.66652,-7.035 3.8775,-7.035 6.45084,0 4.62775,-11.3202 -2.46207,-15.2879 -5.08462,-2.8454 -7.21524,-14.1793 -9.88306,-52.5732 -1.87057,-26.920097 -4.48737,-50.703497 -5.81512,-52.851697 -3.42072,-5.5351 3.28198,-4.8433 11.53289,1.1899 7.88513,5.7654 12.49619,33.191697 16.82522,100.073897 2.97699,45.9941 0.32762,59.2459 -8.61834,43.1069 -2.92304,-5.2734 -5.37871,-12.7537 -5.45702,-16.6229 z m 95.034216,-4.02 c 5.08365,-26.3939 6.90176,-27.1332 16.12128,-6.5534 l 8.7887,19.6183 -13.71316,0 c -13.30751,0 -13.63875,-0.3859 -11.19682,-13.0649 z m -23.70043,6.0299 c -3.2015,-12.369 -3.76265,-64.436 -0.90015,-83.5245 l 2.76771,-18.456397 9.14681,8.592997 c 7.9841,7.5005 8.65081,10.3892 5.24473,22.7253 -4.9602,17.9641 -1.96042,21.4755 4.67056,5.4672 2.77684,-6.7041 6.44216,-12.189 8.14523,-12.189 1.70306,0 4.28512,-4.7359 5.7379,-10.5242 1.45278,-5.7884 3.46602,-9.699797 4.4739,-8.691997 1.00785,1.008197 0.12703,7.100897 -1.95748,13.539197 -2.08444,6.4388 -7.74254,29.3446 -12.57358,50.9017 -7.03841,31.4068 -10.18954,39.1947 -15.85919,39.1947 -3.89153,0 -7.89494,-3.1657 -8.89644,-7.035 z m -96.869156,-85.4243 c -1.59714,-12.079197 -1.20905,-15.418597 1.16804,-10.0499 3.39949,7.6777 5.69847,33.3066 2.67445,29.8149 -0.79781,-0.9214 -2.52696,-9.8156 -3.84249,-19.765 z m -87.16625,12.0776 c 0,-1.237 2.94511,-6.4533 6.54467,-11.5924 5.12792,-7.3212 7.29014,-8.1674 9.98838,-3.9094 6.99431,11.0372 4.0576,19.4546 -6.48312,18.5823 -5.52746,-0.4575 -10.04993,-1.8436 -10.04993,-3.0805 z m 126.91024,-83.770497 c -1.62483,-11.7938 -2.2429,-22.1545 -1.37346,-23.024 0.86944,-0.8695 9.22385,13.1216 18.56537,31.0916 15.305506,29.4423 16.727736,31.066 14.386626,16.4256 -1.4931,-9.3376 -0.75149,-19.4245 1.74374,-23.7182 3.39764,-5.8466 4.3683,-1.0203 4.46398,22.1959 l 0.1222,29.6669 -17.477096,-15.597 c -15.11298,-13.4878 -17.87671,-18.4979 -20.4314,-37.0408 z m 50.477266,3.3534 c -0.24562,-18.5554 1.51943,-24.2943 10.9785,-35.6988997 l 11.27112,-13.5891 -8.27773,45.3475997 c -8.67618,47.531 -13.37754,48.8567 -13.97189,3.9404 z m -113.168616,32.3479 c 2.31121,-4.3186 3.85298,-12.9113 3.42618,-19.0948 -1.30532,-18.912 0.53032,-37.3761 3.70939,-37.3114 1.65824,0.04 5.60517,1.7009 8.77093,3.704 4.84338,3.0648 4.95622,6.4014 0.71158,21.0433 -6.98205,24.0849 -13.86914,39.5107 -17.64023,39.5107 -1.74901,0 -1.28909,-3.5331 1.02215,-7.8518 z m -42.35061,-42.7311 c 7.60067,-26.2173997 9.02877,-36.1523997 5.5094,-38.3275997 -3.57765,-2.2109 -3.39164,-4.5739003 0.75331,-9.5683003 5.00582,-6.0316 6.01958,-5.648 11.19726,4.2338 4.75976,9.0844003 4.80362,11.4292003 0.26733,14.3039003 -3.80217,2.4096 -3.96446,3.4572 -0.54226,3.5002 2.68595,0.04 6.86233,3.7591 9.28091,8.2782997 3.69572,6.9055 2.55589,9.9522 -7.14325,19.0949 -6.34737,5.9829 -14.95115,16.7017 -19.11953,23.8191 -4.16839,7.1177 -8.22788,12.2922 -9.02114,11.4991 -0.79322,-0.7931 3.17489,-17.3683 8.81801,-36.8334 z m -17.32836,-15.6815 c 5.14238,-7.5047997 9.81166,-13.1834997 10.37614,-12.6185997 0.56448,0.5644 -0.75173,7.2257997 -2.92489,14.8030997 -2.17319,7.5776 -4.09406,21.0252 -4.2686,29.8836 l -0.31718,16.1064 -6.10754,-17.2645 c -5.85951,-16.5639 -5.72781,-17.8189 3.24223,-30.91 z m 67.81953,-16.0588997 c 0,-4.9253 -1.77144,-5.1364 -10.33779,-1.2334 -10.79486,4.9185 -17.59589,0.2453 -17.74045,-12.1885003 -0.0615,-5.2814 4.78477,-4.6149 27.07325,3.7233003 8.90705,3.3321 12.86161,15.6425 5.02496,15.6425 -2.21098,0 -4.01997,-2.6745 -4.01997,-5.9439 z M -79.770214,-19.627217 c 0,-10.374 4.51073,-18.9984 18.86661,-36.0728 10.37663,-12.3417 19.23954,-22.0351 19.69536,-21.541 2.83098,3.068 -13.2255,59.1876 -16.93436,59.1876 -2.50979,0 -6.81527,2.7135 -9.5677,6.0299 -7.99033,9.6279003 -12.05991,7.0619003 -12.05991,-7.6037 z m 76.1323696,-58.7258 c -4.75032,0 -19.8700696,-29.820903 -19.7912396,-39.034703 0.16482,-19.2834 6.99965,-15.9243 21.2388296,10.4383 16.6330604,30.795003 17.6624604,34.544403 8.5206,31.036603 -3.49729,-1.3423 -7.98297,-2.4402 -9.96819,-2.4402 z m -30.3328096,-2.3388 c 1.34207,-3.4974 2.56724,-8.4721 2.72265,-11.0549 0.15517,-2.5828 1.73799,-1.0782 3.51691,3.3438 3.58324,8.9071 1.94418,14.0699 -4.46683,14.0699 -2.31703,0 -3.11475,-2.8614 -1.77273,-6.3588 z M -303.48208,626.11808 c 5.41711,-8.765 -6.16313,-14.7122 -31.82923,-16.3463 -31.13044,-1.9823 -32.58744,3.7402 -2.81028,11.0372 10.53976,2.5827 22.17668,5.5925 25.85982,6.6879 3.68318,1.0955 7.634,0.4752 8.77969,-1.3788 z"
       id="path6727-5"
       inkscape:connector-curvature="0"
       clip-path="none"
       inkscape:export-xdpi="89"
       inkscape:export-ydpi="89" />
  </g>
</svg>
