<?xml version="1.0" encoding="UTF-8" standalone="no"?>
<!-- Created with Inkscape (http://www.inkscape.org/) -->

<svg
   xmlns:dc="http://purl.org/dc/elements/1.1/"
   xmlns:cc="http://creativecommons.org/ns#"
   xmlns:rdf="http://www.w3.org/1999/02/22-rdf-syntax-ns#"
   xmlns:svg="http://www.w3.org/2000/svg"
   xmlns="http://www.w3.org/2000/svg"
   xmlns:sodipodi="http://sodipodi.sourceforge.net/DTD/sodipodi-0.dtd"
   xmlns:inkscape="http://www.inkscape.org/namespaces/inkscape"
   width="5.7227221mm"
   height="5.2916741mm"
   viewBox="0 0 20.277362 18.750026"
   id="svg8967"
   version="1.1"
   inkscape:version="0.91 r13725"
   sodipodi:docname="blog.svg">
  <defs
     id="defs8969" />
  <sodipodi:namedview
     id="base"
     pagecolor="#ffffff"
     bordercolor="#666666"
     borderopacity="1.0"
     inkscape:pageopacity="0.0"
     inkscape:pageshadow="2"
     inkscape:zoom="5.6"
     inkscape:cx="8.5317678"
     inkscape:cy="24.811782"
     inkscape:document-units="px"
     inkscape:current-layer="layer1"
     showgrid="false"
     fit-margin-top="0"
     fit-margin-left="0"
     fit-margin-right="0"
     fit-margin-bottom="0"
     inkscape:window-width="1366"
     inkscape:window-height="712"
     inkscape:window-x="0"
     inkscape:window-y="0"
     inkscape:window-maximized="1" />
  <metadata
     id="metadata8972">
    <rdf:RDF>
      <cc:Work
         rdf:about="">
        <dc:format>image/svg+xml</dc:format>
        <dc:type
           rdf:resource="http://purl.org/dc/dcmitype/StillImage" />
        <dc:title></dc:title>
      </cc:Work>
    </rdf:RDF>
  </metadata>
  <g
     inkscape:label="Calque 1"
     inkscape:groupmode="layer"
     id="layer1"
     transform="translate(575.73213,-355.51363)">
    <path
       style="fill:#7c8f60;fill-opacity:1"
       d="m -575.63511,373.55515 c -0.16378,-0.42671 -0.1152,-0.85234 0.10794,-0.94587 0.22315,-0.0935 2.20148,-2.78468 4.39634,-5.98035 2.19493,-3.19568 4.1573,-5.81032 4.36095,-5.81032 0.20359,0 1.63255,1.82612 3.17552,4.05805 2.77502,4.01418 2.7918,4.06304 1.55671,4.51993 -0.6982,0.2583 -1.24979,0.91151 -1.25143,1.48202 0,1.11207 -2.66165,2.6599 -5.56645,3.24086 -1.38171,0.27633 -1.73311,0.16852 -1.73311,-0.53168 0,-1.0909 -0.8929,-1.11068 -2.89937,-0.0642 -1.88327,0.98219 -1.78296,0.98071 -2.14717,0.0315 z m 9.28976,-0.89854 c 1.51798,-0.52915 2.43756,-2.1091 1.22764,-2.1091 -1.0197,0 -4.38997,1.66534 -4.38997,2.16923 0,0.69527 1.05283,0.67526 3.16233,-0.0601 z m 2.89597,-8.66893 c -1.87021,-2.70938 -3.26876,-5.05778 -3.10782,-5.21868 0.16087,-0.16089 0.37399,-0.1912 0.47354,-0.0673 0.9551,1.18835 6.84539,9.75886 6.84539,9.96022 0,0.99985 -1.25932,-0.39798 -4.21111,-4.67421 z m 5.56235,2.77637 -2.16199,-0.3871 2.29712,-0.0767 c 1.26342,-0.0421 2.29713,0.16653 2.29713,0.4638 0,0.29727 -0.0606,0.50598 -0.13514,0.46379 -0.0743,-0.0421 -1.10803,-0.25089 -2.29712,-0.46379 z m -2.4322,-2.16198 c 0.44591,-0.28817 1.54037,-0.52394 2.4322,-0.52394 1.24411,0 1.43281,0.12195 0.81075,0.52394 -0.44591,0.28817 -1.54044,0.52394 -2.4322,0.52394 -1.24411,0 -1.43281,-0.12195 -0.81075,-0.52394 z m -1.30765,-1.01042 c -0.14718,-0.23811 0.58156,-0.83785 1.61937,-1.33274 2.14893,-1.02476 2.39075,-1.07122 2.39075,-0.45943 0,0.64795 -3.69631,2.29988 -4.01012,1.79217 z m -0.85434,-1.59784 c 0,-0.547 2.34368,-2.79669 2.91356,-2.79669 0.51872,0 -1.95771,3.17246 -2.50822,3.21306 -0.22295,0.0164 -0.40534,-0.17092 -0.40534,-0.41637 z m -1.07743,-1.31033 c 0,-0.37159 0.48679,-1.40529 1.07743,-2.2971 1.26398,-1.90859 1.44706,-0.9245 0.25639,1.37807 -0.87914,1.70006 -1.33963,2.01733 -1.33382,0.91903 z m -0.80937,-2.55046 c 0.15709,-1.03116 0.52427,-2.1135 0.81593,-2.4052 0.79895,-0.79896 0.61732,0.75907 -0.30996,2.65855 l -0.79151,1.62149 0.28554,-1.87484 z"
       id="path7240-5-1-3-9"
       inkscape:connector-curvature="0"
       inkscape:export-xdpi="89"
       inkscape:export-ydpi="89"
       inkscape:export-filename="/home/emma/Site/images/blog.png" />
  </g>
</svg>
