<?xml version="1.0" encoding="UTF-8" standalone="no"?>
<!-- Created with Inkscape (http://www.inkscape.org/) -->

<svg
   xmlns:dc="http://purl.org/dc/elements/1.1/"
   xmlns:cc="http://creativecommons.org/ns#"
   xmlns:rdf="http://www.w3.org/1999/02/22-rdf-syntax-ns#"
   xmlns:svg="http://www.w3.org/2000/svg"
   xmlns="http://www.w3.org/2000/svg"
   xmlns:sodipodi="http://sodipodi.sourceforge.net/DTD/sodipodi-0.dtd"
   xmlns:inkscape="http://www.inkscape.org/namespaces/inkscape"
   width="187.26268mm"
   height="30.274981mm"
   viewBox="0 0 663.52916 107.27355"
   id="svg8853"
   version="1.1"
   inkscape:version="0.91 r13725"
   sodipodi:docname="entete.svg">
  <defs
     id="defs8855">
    <clipPath
       clipPathUnits="userSpaceOnUse"
       id="clipPath7347">
      <rect
         style="color:#000000;clip-rule:nonzero;display:inline;overflow:visible;visibility:visible;opacity:1;isolation:auto;mix-blend-mode:normal;color-interpolation:sRGB;color-interpolation-filters:linearRGB;solid-color:#000000;solid-opacity:1;fill:#dde9af;fill-opacity:1;fill-rule:nonzero;stroke:#000000;stroke-width:1.69119406px;stroke-linecap:butt;stroke-linejoin:miter;stroke-miterlimit:4;stroke-dasharray:none;stroke-dashoffset:0;stroke-opacity:1;marker:none;color-rendering:auto;image-rendering:auto;shape-rendering:auto;text-rendering:auto;enable-background:accumulate"
         id="rect7349"
         width="1350.7373"
         height="1270.7374"
         x="-321.79727"
         y="-112.29221" />
    </clipPath>
    <clipPath
       clipPathUnits="userSpaceOnUse"
       id="clipPath13499">
      <rect
         style="color:#000000;clip-rule:nonzero;display:inline;overflow:visible;visibility:visible;opacity:1;isolation:auto;mix-blend-mode:normal;color-interpolation:sRGB;color-interpolation-filters:linearRGB;solid-color:#000000;solid-opacity:1;fill:#556242;fill-opacity:1;fill-rule:nonzero;stroke:none;stroke-width:1.70000005;stroke-linecap:round;stroke-linejoin:miter;stroke-miterlimit:4;stroke-dasharray:none;stroke-dashoffset:0;stroke-opacity:1;marker:none;color-rendering:auto;image-rendering:auto;shape-rendering:auto;text-rendering:auto;enable-background:accumulate"
         id="rect13501"
         width="1001"
         height="151.87343"
         x="-487.45108"
         y="-64.325691" />
    </clipPath>
    <clipPath
       clipPathUnits="userSpaceOnUse"
       id="clipPath13503">
      <rect
         style="color:#000000;clip-rule:nonzero;display:inline;overflow:visible;visibility:visible;opacity:1;isolation:auto;mix-blend-mode:normal;color-interpolation:sRGB;color-interpolation-filters:linearRGB;solid-color:#000000;solid-opacity:1;fill:#556242;fill-opacity:1;fill-rule:nonzero;stroke:none;stroke-width:1.70000005;stroke-linecap:round;stroke-linejoin:miter;stroke-miterlimit:4;stroke-dasharray:none;stroke-dashoffset:0;stroke-opacity:1;marker:none;color-rendering:auto;image-rendering:auto;shape-rendering:auto;text-rendering:auto;enable-background:accumulate"
         id="rect13505"
         width="1001"
         height="151.87343"
         x="-487.45108"
         y="-64.325691" />
    </clipPath>
  </defs>
  <sodipodi:namedview
     id="base"
     pagecolor="#ffffff"
     bordercolor="#666666"
     borderopacity="1.0"
     inkscape:pageopacity="0.0"
     inkscape:pageshadow="2"
     inkscape:zoom="0.7"
     inkscape:cx="60.978567"
     inkscape:cy="94.854357"
     inkscape:document-units="px"
     inkscape:current-layer="layer1"
     showgrid="false"
     fit-margin-top="0"
     fit-margin-left="0"
     fit-margin-right="0"
     fit-margin-bottom="0"
     inkscape:window-width="1366"
     inkscape:window-height="712"
     inkscape:window-x="0"
     inkscape:window-y="0"
     inkscape:window-maximized="1" />
  <metadata
     id="metadata8858">
    <rdf:RDF>
      <cc:Work
         rdf:about="">
        <dc:format>image/svg+xml</dc:format>
        <dc:type
           rdf:resource="http://purl.org/dc/dcmitype/StillImage" />
        <dc:title></dc:title>
      </cc:Work>
    </rdf:RDF>
  </metadata>
  <g
     inkscape:label="Calque 1"
     inkscape:groupmode="layer"
     id="layer1"
     transform="translate(-87.399441,-300.00077)">
    <g
       id="g13685">
      <g
         transform="translate(406.1151,348.89566)"
         id="text20893-8-35-9-5-0"
         style="font-style:normal;font-variant:normal;font-weight:normal;font-stretch:normal;font-size:115.32377625px;line-height:125%;font-family:'Better Phoenix Sample';-inkscape-font-specification:'Better Phoenix Sample';letter-spacing:0px;word-spacing:0px;fill:#ffffff;fill-opacity:1;stroke:none;stroke-width:1px;stroke-linecap:butt;stroke-linejoin:miter;stroke-opacity:1">
        <path
           inkscape:connector-curvature="0"
           id="path13512"
           style="font-style:normal;font-variant:normal;font-weight:normal;font-stretch:normal;font-size:63.37078857px;font-family:'Magnolia Sky';-inkscape-font-specification:'Magnolia Sky';fill:#ffffff;fill-opacity:1"
           d="m -260.09759,11.29417 c -0.76045,4.499326 -5.83011,36.311462 -20.72225,36.311462 -9.50562,0 -13.37124,-3.928989 -19.5182,-7.984719 8.30157,-7.541124 11.91371,-23.700675 15.08224,-37.4521361 2.34472,0.3802247 4.87956,0.5703371 7.35102,0.5703371 17.5537,0 16.22292,-27.31281 0.69707,-27.31281 -8.36494,0 -12.86427,10.709663 -16.4764,23.63730425 -4.49933,-0.69707865 -9.06202,-1.39415735 -13.43461,-1.39415735 -6.97078,0 -9.69573,4.8161799 -10.64629,7.5411238 -0.57034,1.3307866 1.01393,1.8377529 1.64764,0.5069663 1.01393,-2.2179776 3.54876,-6.33707881 9.12539,-6.33707881 4.5627,0 8.74517,0.63370788 12.8009,1.26741577 -3.48539,13.30786604 -6.08359,28.39011304 -10.45618,36.37483304 -2.66157,-1.394158 -5.38651,-2.40809 -8.55505,-2.40809 -6.71731,0 -8.6818,9.315506 2.09123,9.315506 3.80225,0 6.97079,-1.267416 9.69573,-3.295281 6.14697,4.05573 10.26607,8.491685 20.46877,8.491685 15.96944,0 21.73618,-32.826068 22.30652,-37.642248 0.19011,-1.394158 -1.20405,-1.8377531 -1.45753,-0.190113 z m -15.3991,-32.319102 c 10.96314,0 12.29393,22.1164055 -2.91506,22.1164055 -1.90112,0 -4.1191,-0.25348317 -6.59056,-0.63370791 2.66157,-11.85033759 4.94292,-21.48269759 9.50562,-21.48269759 z m -36.31147,63.624272 c -7.60449,0 -6.2737,-6.590562 -1.39415,-6.590562 2.85168,0 5.38651,0.887191 7.7946,2.091236 -1.77438,2.851685 -3.80224,4.499326 -6.40045,4.499326 z" />
        <path
           inkscape:connector-curvature="0"
           id="path13514"
           style="font-style:normal;font-variant:normal;font-weight:normal;font-stretch:normal;font-size:63.37078857px;font-family:'Magnolia Sky';-inkscape-font-specification:'Magnolia Sky';fill:#ffffff;fill-opacity:1"
           d="m -236.53455,11.357541 c -1.20405,3.802248 -7.41438,21.862922 -15.33573,21.862922 -5.64,0 -7.47775,-9.949214 -7.47775,-9.949214 0,0 11.53348,-5.386517 11.53348,-11.596854 0,-3.3586516 -1.77438,-6.9074158 -5.51326,-6.9074158 -6.46382,0 -13.8782,6.9707868 -13.8782,16.0328098 0,8.87191 4.87955,15.462472 12.86427,15.462472 11.28,0 17.9973,-20.278652 19.26472,-24.777978 0.25348,-0.76045 -1.14068,-1.140674 -1.45753,-0.126742 z m -15.96944,-2.4080897 c 1.71101,0 2.40809,1.5208987 2.40809,3.2319097 0,4.81618 -9.50562,9.125394 -9.50562,9.125394 0,0 -1.20404,-12.3573037 7.09753,-12.3573037 z" />
        <path
           inkscape:connector-curvature="0"
           id="path13516"
           style="font-style:normal;font-variant:normal;font-weight:normal;font-stretch:normal;font-size:63.37078857px;font-family:'Magnolia Sky';-inkscape-font-specification:'Magnolia Sky';fill:#ffffff;fill-opacity:1"
           d="m -183.14764,14.399339 c -1.0773,-16.6031465 -4.81618,-31.812136 -6.59056,-31.812136 -4.87955,0 -7.09753,5.133034 -7.09753,6.020225 0,1.4575283 3.80225,16.4130344 4.62607,28.580226 -3.16854,1.204045 -6.33708,2.471461 -9.18876,4.05573 -1.77438,-4.182472 -4.81618,-7.921348 -9.25214,-7.921348 -7.60449,0 -14.82876,9.315506 -14.82876,18.314158 0,9.062022 5.83011,26.742472 18.88449,26.742472 12.99101,0 23.70068,-20.532135 23.70068,-35.170787 0,-2.534832 -0.0634,-5.006293 -0.19011,-7.414383 l -0.0634,-1.394157 z m -8.87191,7.034158 c 0,12.610787 -7.85797,31.305169 -17.04674,31.305169 -9.18876,0 -14.3218,-14.131686 -14.3218,-21.229214 0,-7.160899 6.27371,-16.539776 12.23057,-16.539776 3.42202,0 6.21033,3.422023 7.7946,7.287641 -5.25977,3.358652 -8.93528,7.351011 -8.93528,11.977079 0,5.259775 3.86562,6.907416 6.02023,6.907416 4.87955,0 7.22427,-5.449888 7.22427,-10.075956 0,-1.774382 -0.57034,-5.133033 -1.71101,-8.428314 2.53483,-1.394158 5.64,-2.788315 8.61842,-3.928989 0,0.887191 0.12674,1.837753 0.12674,2.724944 z m -9.44224,9.442247 c 0,5.893483 -2.47146,8.618427 -5.13304,8.618427 -2.72494,0 -4.56269,-2.534831 -4.56269,-5.196404 0,-3.738877 3.42202,-7.414383 8.42831,-10.45618 0.82382,2.40809 1.26742,5.069663 1.26742,7.034157 z" />
        <path
           inkscape:connector-curvature="0"
           id="path13518"
           style="font-style:normal;font-variant:normal;font-weight:normal;font-stretch:normal;font-size:63.37078857px;font-family:'Magnolia Sky';-inkscape-font-specification:'Magnolia Sky';fill:#ffffff;fill-opacity:1"
           d="m -141.24271,12.244732 c -1.45753,4.435955 -8.36495,24.90472 -14.38517,24.90472 -6.21034,0 -2.02787,-18.060675 -2.02787,-19.771686 0,-1.711011 -1.45752,-6.020225 -4.30921,-6.020225 -1.26742,0 -2.34472,1.267416 -3.16854,3.16854 0,0 0,0 0,0 -0.19011,0.443595 -0.38022,0.887191 -0.50697,1.394157 -1.20404,3.168539 -4.30921,10.646292 -6.08359,10.646292 -1.14068,0 -1.33079,-2.027865 -1.33079,-3.802247 0,-5.576629 5.51326,-16.9200004 10.96315,-16.9200004 4.62607,0 6.14697,3.9923597 6.14697,1.2674158 0,-2.7249439 -2.47147,-5.9568541 -6.59057,-5.9568541 -11.08988,0 -17.23685,11.4701127 -17.23685,17.6170787 0,5.386518 3.92899,10.139327 6.7173,10.139327 2.5982,0 4.68944,-2.154607 6.33708,-4.81618 0.25348,9.822472 3.67551,16.222922 9.37888,16.222922 8.99865,0 16.22292,-23.066967 17.68045,-28.009889 0.44359,-1.394157 -1.20405,-1.711011 -1.58427,-0.06337 z" />
        <path
           inkscape:connector-curvature="0"
           id="path13520"
           style="font-style:normal;font-variant:normal;font-weight:normal;font-stretch:normal;font-size:63.37078857px;font-family:'Magnolia Sky';-inkscape-font-specification:'Magnolia Sky';fill:#ffffff;fill-opacity:1"
           d="m -116.18748,11.991249 c -1.26741,6.337079 -7.73123,37.452136 -10.32943,37.452136 -3.61214,0 8.61842,-42.521799 -4.49933,-42.521799 -3.54876,0 -8.55506,2.9150563 -8.55506,2.9150563 0,0 3.29528,-15.7793264 -2.02786,-15.7793264 -2.85169,0 -4.81618,5.57662944 -4.81618,9.6957307 0,3.295281 0.76045,8.2382024 3.73887,8.2382024 3.42203,0 6.02023,-2.2179775 7.66787,-2.2179775 0,0 -1.90112,22.4966295 -1.90112,25.7919105 0,4.879551 -0.0634,18.377529 8.99865,18.377529 5.70337,0 11.91371,-34.663821 13.11775,-41.76135 0.31686,-1.330786 -1.14067,-1.457528 -1.39416,-0.190112 z m -24.96809,-1.837753 c -2.72494,0.633708 -3.42202,-2.4080897 -3.42202,-6.0202247 0,-3.0417978 1.39416,-7.7312362 2.66157,-7.7312362 3.67551,0 0.76045,13.7514609 0.76045,13.7514609 z" />
        <path
           inkscape:connector-curvature="0"
           id="path13522"
           style="font-style:normal;font-variant:normal;font-weight:normal;font-stretch:normal;font-size:63.37078857px;font-family:'Magnolia Sky';-inkscape-font-specification:'Magnolia Sky';fill:#ffffff;fill-opacity:1"
           d="m -72.494316,11.29417 c -1.647641,6.907416 -9.062023,31.938878 -14.955506,31.938878 -5.386517,0 -4.879551,-37.3887654 -4.879551,-37.3887654 0,0 17.997304,-21.3559556 17.997304,-33.5865176 0,-3.295281 -0.380225,-7.414383 -3.675506,-7.414383 -17.617079,0 -21.102472,30.7348329 -21.102472,30.7348329 0,0 -2.154603,-1.1406742 -5.766743,-1.1406742 -7.41438,0 -16.53977,9.3155059 -16.53977,16.8566293 0,7.477753 2.21797,11.977079 9.69573,11.977079 6.40045,0 10.89977,-6.273708 10.89977,-6.273708 0,0 0,30.924945 8.998653,30.924945 12.610787,0 19.26472,-29.847641 20.84899,-36.628316 0.316854,-1.013932 -1.140674,-1.5208985 -1.520899,0 z m -6.146967,-42.838653 c 2.534832,0 2.154607,3.802248 2.154607,3.802248 0,11.596854 -15.842697,30.164495 -15.842697,30.164495 0,-9.5056182 1.204045,-33.966743 13.68809,-33.966743 z m -22.053037,46.197305 c 0,0 -5.83011,6.020225 -8.93528,6.020225 -1.39416,0 -1.5209,-1.267416 -1.5209,-6.400449 0,-7.4143828 7.09753,-13.94157398 11.153262,-13.94157398 L -100.69432,14.652822 Z" />
        <path
           inkscape:connector-curvature="0"
           id="path13524"
           style="font-style:normal;font-variant:normal;font-weight:normal;font-stretch:normal;font-size:63.37078857px;font-family:'Magnolia Sky';-inkscape-font-specification:'Magnolia Sky';fill:#ffffff;fill-opacity:1"
           d="m -69.736696,-6.3862796 c 2.915057,0 6.210338,2.5982024 6.210338,-0.4435955 0,-6.2737079 -9.949214,-9.8858429 -9.949214,-6.7173039 0,1.964495 0.887191,7.1608994 3.738876,7.1608994 z m 18.504271,18.0606746 c -1.394158,3.928989 -7.351012,19.644945 -12.103821,19.644945 -6.40045,0 -2.344719,-16.85663 -2.344719,-22.876855 0,-7.0975284 -8.301573,-7.85797783 -8.301573,-4.5626968 0,3.0417978 -1.711012,12.3573038 -1.711012,18.5042698 0,6.083596 3.612135,13.941574 8.80854,13.941574 8.87191,0 15.715955,-19.961798 17.173484,-24.587866 0.253483,-0.950562 -1.140675,-1.204045 -1.520899,-0.06337 z" />
        <path
           inkscape:connector-curvature="0"
           id="path13526"
           style="font-style:normal;font-variant:normal;font-weight:normal;font-stretch:normal;font-size:63.37078857px;font-family:'Magnolia Sky';-inkscape-font-specification:'Magnolia Sky';fill:#ffffff;fill-opacity:1"
           d="m -50.503657,31.953048 c 3.23191,0 4.372584,-1.394158 4.372584,-2.724944 0,-9.378877 5.703371,-29.46741708 9.695731,-29.46741708 4.752809,0 -7.351012,50.76000208 6.970786,50.76000208 4.942922,0 13.497978,-31.558653 14.828765,-38.592811 0.253483,-1.330786 -1.267416,-1.64764 -1.58427,-0.190112 -1.394157,6.40045 -9.63236,35.931237 -13.307865,35.931237 -4.499326,0 1.64764,-28.643596 1.64764,-38.339327 0,-5.5766294 -0.82382,-11.7235959 -7.287641,-11.7235959 -5.133034,0 -9.822472,12.6741579 -9.822472,12.6741579 0,0 0.506966,-9.82247241 -8.364944,-9.82247241 -2.027865,0 -2.915056,0.38022474 -2.915056,1.90112371 0,1.5208989 1.394157,1.0773034 1.394157,5.6400001 0,4.5626966 -1.077303,23.9541586 4.372585,23.9541586 z" />
        <path
           inkscape:connector-curvature="0"
           id="path13528"
           style="font-style:normal;font-variant:normal;font-weight:normal;font-stretch:normal;font-size:63.37078857px;font-family:'Magnolia Sky';-inkscape-font-specification:'Magnolia Sky';fill:#ffffff;fill-opacity:1"
           d="m 57.143503,26.376418 c 0.190112,-2.091236 0.253483,-2.661573 0.253483,-3.23191 0,-9.125394 -5.703371,-17.3635962 -11.913708,-19.7716861 2.724944,-5.7667418 3.738876,-12.6741577 3.738876,-17.9339329 0,-5.703371 -3.485393,-15.906068 -14.004944,-15.906068 -8.364944,0 -14.702023,4.81618 -19.454832,11.850337 -1.774382,-1.330786 -3.802248,-2.091236 -6.2737083,-2.091236 -12.2939329,0 -16.0328095,12.8008995 -16.0328095,12.8008995 0,2.2813484 2.2179776,1.3307866 2.2179776,-0.1267416 0,-1.3941573 4.24584286,-9.8858429 9.1887644,-9.8858429 2.5982023,0 4.7528091,2.915056 6.4004498,7.541124 -6.5271914,14.6386519 -8.5550566,33.396405 -8.5550566,42.395057 0,0 -0.1267416,12.103821 5.4498878,12.103821 11.9770788,0 16.0328098,-22.750113 16.0328098,-35.2341585 0,-6.9707868 -1.204045,-19.4548325 -6.653933,-25.7285405 4.562697,-6.907416 10.202697,-11.406742 16.85663,-11.406742 6.46382,0 6.780674,12.04045 6.780674,15.715956 0,4.2458428 -0.697079,10.2026969 -2.281348,15.3991016 -7.667866,1.0773034 -11.660225,6.3370788 -11.660225,8.6184274 0,1.711011 1.394157,2.851685 2.788314,2.851685 6.653933,0 11.153259,-3.612135 14.195057,-8.5550562 2.471461,2.3447192 4.309214,7.2242702 4.309214,15.9694392 0,1.837752 -0.316854,4.372584 -0.950562,7.224269 -3.612135,1.647641 -7.22427,3.612135 -10.266068,5.513259 -0.633708,-2.661573 -2.154607,-5.323146 -5.956854,-5.323146 -4.942922,0 -9.568989,6.146966 -9.568989,12.04045 0,5.956854 2.724944,15.715955 11.153259,15.715955 14.131685,0 22.623371,-19.581573 24.207641,-30.54472 z M 15.255411,19.532373 c 0,7.414382 -1.330786,23.32045 -6.5905615,23.32045 -3.4220226,0 -4.3725844,-7.414382 -4.3725844,-11.089888 0,-11.28 2.7883147,-26.4889895 8.0480899,-38.7829225 1.901124,7.16089915 2.915056,16.9833714 2.915056,26.5523605 z m 14.955507,-6.337079 c -3.99236,0 0.380224,-8.1748316 8.238202,-9.0620227 -1.711011,5.1330339 -4.435955,9.0620227 -8.238202,9.0620227 z m 1.140674,39.923597 c -5.956854,0 -7.604495,-7.287641 -7.604495,-11.977079 0,-4.752809 3.422023,-10.45618 7.287641,-10.45618 3.041798,0 4.435955,1.964494 4.942921,4.689438 -3.485393,2.40809 -5.893483,4.81618 -5.893483,6.780674 0,1.964495 1.58427,2.534832 2.978427,2.534832 3.16854,0 4.626068,-3.675506 4.626068,-6.653933 0,-0.633708 -0.06337,-1.330786 -0.126742,-2.091236 2.724944,-1.837753 6.146967,-3.675506 9.63236,-5.386517 -2.40809,9.949214 -8.174832,22.560001 -15.842697,22.560001 z m 4.81618,-15.208989 c 0,3.865618 -1.58427,5.64 -3.358652,5.64 -0.633708,0 -1.077303,-0.316854 -1.077303,-1.330787 0,-1.457528 1.774382,-3.295281 4.435955,-5.259775 0,0.316854 0,0.633708 0,0.950562 z" />
        <path
           inkscape:connector-curvature="0"
           id="path13530"
           style="font-style:normal;font-variant:normal;font-weight:normal;font-stretch:normal;font-size:63.37078857px;font-family:'Magnolia Sky';-inkscape-font-specification:'Magnolia Sky';fill:#ffffff;fill-opacity:1"
           d="m 61.227937,7.5552939 c 0,1.0139326 -0.760449,9.6323601 -0.760449,14.1316861 0,4.499326 1.520899,11.406742 6.400449,11.406742 6.653933,0 9.252136,-14.321799 9.252136,-14.321799 0,0 -2.027866,22.243147 6.780674,22.243147 7.604495,0 12.230562,-23.003596 13.307866,-28.073259 0.190112,-1.140674 -1.267416,-1.457528 -1.58427,-0.190112 -1.077304,4.562696 -5.386517,26.108764 -10.582922,26.108764 -4.05573,0 0.06337,-28.073259 0.06337,-30.6714612 0,-2.6615731 -3.485393,-4.6894384 -5.64,-4.6894384 -2.217978,0 -1.013933,1.0139327 -1.013933,2.7883147 0,1.0139327 -4.942921,23.8907869 -8.555056,23.8907869 -2.661573,0 0.633708,-14.51191 0.633708,-18.250787 0,-2.4714604 -3.928989,-5.4498875 -6.273709,-5.4498875 -2.408089,0 -2.027865,0.5069663 -2.027865,1.0773034 z" />
        <path
           inkscape:connector-curvature="0"
           id="path13532"
           style="font-style:normal;font-variant:normal;font-weight:normal;font-stretch:normal;font-size:63.37078857px;font-family:'Magnolia Sky';-inkscape-font-specification:'Magnolia Sky';fill:#ffffff;fill-opacity:1"
           d="m 97.725569,-6.3862796 c 2.915061,0 6.210341,2.5982024 6.210341,-0.4435955 0,-6.2737079 -9.949217,-9.8858429 -9.949217,-6.7173039 0,1.964495 0.887191,7.1608994 3.738876,7.1608994 z M 116.22984,11.674395 c -1.39416,3.928989 -7.35101,19.644945 -12.10382,19.644945 -6.400451,0 -2.34472,-16.85663 -2.34472,-22.876855 0,-7.0975284 -8.301573,-7.85797783 -8.301573,-4.5626968 0,3.0417978 -1.711012,12.3573038 -1.711012,18.5042698 0,6.083596 3.612135,13.941574 8.808535,13.941574 8.87192,0 15.71596,-19.961798 17.17349,-24.587866 0.25348,-0.950562 -1.14068,-1.204045 -1.5209,-0.06337 z" />
        <path
           inkscape:connector-curvature="0"
           id="path13534"
           style="font-style:normal;font-variant:normal;font-weight:normal;font-stretch:normal;font-size:63.37078857px;font-family:'Magnolia Sky';-inkscape-font-specification:'Magnolia Sky';fill:#ffffff;fill-opacity:1"
           d="m 147.42906,10.913946 c -1.5209,6.337079 -6.97079,10.773034 -15.33573,17.743821 -4.18248,-8.618428 -12.04045,-16.476406 -12.04045,-21.3559562 0,-2.5982024 4.18247,-7.22426994 8.74517,-7.22426994 3.04179,0 3.61213,2.85168544 4.87955,2.85168544 1.20404,0 1.83775,-0.887191 1.83775,-1.8377528 0,-1.96449447 -3.99236,-6.0202249 -10.26607,-6.0202249 -6.33708,0 -14.00494,5.00629226 -14.00494,10.773034 0,8.3649444 11.34337,18.6310114 15.77932,27.1860684 -4.68944,4.182472 -8.17483,8.111461 -8.17483,11.28 0,5.196405 2.40809,8.364944 6.14697,8.364944 4.43595,0 9.63236,-6.970786 9.63236,-14.448539 0,-2.724944 -0.76045,-5.513259 -1.90113,-8.174832 8.55506,-7.351012 15.01888,-12.674158 16.2863,-19.328091 0.31685,-1.1406739 -1.26742,-1.1406739 -1.58427,0.190113 z m -23.19371,37.00854 c -2.09124,0 -2.91506,-2.471461 -2.91506,-4.562697 0,-2.344719 2.66158,-5.449887 6.40045,-8.935281 0.69708,1.58427 1.07731,3.105169 1.07731,4.499326 0,2.40809 -1.90113,8.998652 -4.5627,8.998652 z" />
        <path
           inkscape:connector-curvature="0"
           id="path13536"
           style="font-style:normal;font-variant:normal;font-weight:normal;font-stretch:normal;font-size:63.37078857px;font-family:'Magnolia Sky';-inkscape-font-specification:'Magnolia Sky';fill:#ffffff;fill-opacity:1"
           d="m 176.39149,10.913946 c -1.5209,6.337079 -6.97079,10.773034 -15.33573,17.743821 -4.18247,-8.618428 -12.04045,-16.476406 -12.04045,-21.3559562 0,-2.5982024 4.18247,-7.22426994 8.74517,-7.22426994 3.0418,0 3.61213,2.85168544 4.87955,2.85168544 1.20404,0 1.83775,-0.887191 1.83775,-1.8377528 0,-1.96449447 -3.99236,-6.0202249 -10.26607,-6.0202249 -6.33707,0 -14.00494,5.00629226 -14.00494,10.773034 0,8.3649444 11.34337,18.6310114 15.77933,27.1860684 -4.68944,4.182472 -8.17484,8.111461 -8.17484,11.28 0,5.196405 2.40809,8.364944 6.14697,8.364944 4.43596,0 9.63236,-6.970786 9.63236,-14.448539 0,-2.724944 -0.76045,-5.513259 -1.90112,-8.174832 8.55505,-7.351012 15.01887,-12.674158 16.28629,-19.328091 0.31685,-1.1406739 -1.26742,-1.1406739 -1.58427,0.190113 z m -23.19371,37.00854 c -2.09123,0 -2.91506,-2.471461 -2.91506,-4.562697 0,-2.344719 2.66158,-5.449887 6.40045,-8.935281 0.69708,1.58427 1.07731,3.105169 1.07731,4.499326 0,2.40809 -1.90113,8.998652 -4.5627,8.998652 z" />
        <path
           inkscape:connector-curvature="0"
           id="path13538"
           style="font-style:normal;font-variant:normal;font-weight:normal;font-stretch:normal;font-size:63.37078857px;font-family:'Magnolia Sky';-inkscape-font-specification:'Magnolia Sky';fill:#ffffff;fill-opacity:1"
           d="m 202.02499,11.801137 c -1.26742,2.40809 -3.80225,8.174831 -10.45618,8.174831 1.26741,-4.309213 1.83775,-8.998652 1.83775,-12.8008988 0,-7.47775307 -4.68944,-11.6602251 -9.7591,-11.6602251 -5.13304,0 -10.2027,4.3725844 -10.2027,9.8224722 0,1.4575282 0.31685,3.2319102 0.95056,5.0696627 -2.53483,2.598203 -4.5627,6.020225 -4.5627,9.759102 0,6.020225 3.92899,11.153259 11.15326,11.153259 4.87955,0 8.11146,-4.309214 10.01259,-9.759102 0,0 0,0 0,0 8.30157,0 11.40674,-6.844045 12.54741,-9.378877 0.4436,-1.013932 -0.82382,-1.711011 -1.52089,-0.380224 z M 183.71083,28.91125 c -3.35865,0 -5.00629,-6.210338 -5.00629,-9.949214 0,-0.633708 0,-1.204045 0.12674,-1.711011 2.40809,2.217977 5.76674,3.865618 10.26606,4.245842 -1.52089,4.182472 -3.48539,7.414383 -5.38651,7.414383 z m 5.95685,-8.998652 c -4.75281,-0.316854 -8.04809,-2.471461 -10.13932,-5.133034 1.71101,-4.182472 5.44988,-6.8440454 5.44988,-7.6044948 0,-1.0139326 -0.6337,-1.4575282 -1.90112,-1.4575282 -1.64764,0 -4.1191,1.0139327 -6.52719,2.8516855 -0.25348,-1.204045 -0.38023,-2.2813484 -0.38023,-3.2319102 0,-4.94292149 4.5627,-7.477753 7.54113,-7.477753 8.80854,0 8.17483,9.6957306 8.17483,9.6957306 0,3.4220221 -0.88719,8.2382021 -2.21798,12.3573041 z" />
        <path
           inkscape:connector-curvature="0"
           id="path13540"
           style="font-style:normal;font-variant:normal;font-weight:normal;font-stretch:normal;font-size:63.37078857px;font-family:'Magnolia Sky';-inkscape-font-specification:'Magnolia Sky';fill:#ffffff;fill-opacity:1"
           d="m 203.96965,31.953048 c 3.23192,0 4.37259,-1.394158 4.37259,-2.724944 0,-9.378877 5.70337,-29.46741708 9.69573,-29.46741708 4.75281,0 -7.35101,50.76000208 6.97079,50.76000208 4.94292,0 13.49797,-31.558653 14.82876,-38.592811 0.25348,-1.330786 -1.26741,-1.64764 -1.58427,-0.190112 -1.39416,6.40045 -9.63236,35.931237 -13.30786,35.931237 -4.49933,0 1.64764,-28.643596 1.64764,-38.339327 0,-5.5766294 -0.82382,-11.7235959 -7.28764,-11.7235959 -5.13304,0 -9.82248,12.6741579 -9.82248,12.6741579 0,0 0.50697,-9.82247241 -8.36494,-9.82247241 -2.02787,0 -2.91506,0.38022474 -2.91506,1.90112371 0,1.5208989 1.39416,1.0773034 1.39416,5.6400001 0,4.5626966 -1.0773,23.9541586 4.37258,23.9541586 z" />
        <path
           inkscape:connector-curvature="0"
           id="path13542"
           style="font-style:normal;font-variant:normal;font-weight:normal;font-stretch:normal;font-size:63.37078857px;font-family:'Magnolia Sky';-inkscape-font-specification:'Magnolia Sky';fill:#ffffff;fill-opacity:1"
           d="m 238.0067,31.953048 c 3.23191,0 4.37259,-1.394158 4.37259,-2.724944 0,-9.378877 5.70337,-29.46741708 9.69573,-29.46741708 4.75281,0 -7.35101,50.76000208 6.97079,50.76000208 4.94292,0 13.49797,-31.558653 14.82876,-38.592811 0.25348,-1.330786 -1.26742,-1.64764 -1.58427,-0.190112 -1.39416,6.40045 -9.63236,35.931237 -13.30787,35.931237 -4.49932,0 1.64764,-28.643596 1.64764,-38.339327 0,-5.5766294 -0.82382,-11.7235959 -7.28764,-11.7235959 -5.13303,0 -9.82247,12.6741579 -9.82247,12.6741579 0,0 0.50697,-9.82247241 -8.36494,-9.82247241 -2.02787,0 -2.91506,0.38022474 -2.91506,1.90112371 0,1.5208989 1.39416,1.0773034 1.39416,5.6400001 0,4.5626966 -1.0773,23.9541586 4.37258,23.9541586 z" />
        <path
           sodipodi:nodetypes="cssssscc"
           inkscape:connector-curvature="0"
           id="path13544"
           style="font-style:normal;font-variant:normal;font-weight:normal;font-stretch:normal;font-size:63.37078857px;font-family:'Magnolia Sky';-inkscape-font-specification:'Magnolia Sky';fill:#ffffff;fill-opacity:1"
           d="m 292.47981,11.674395 c -1.39416,3.928989 -7.35101,19.644945 -12.10382,19.644945 -6.40045,0 -2.34472,-16.85663 -2.34472,-22.876855 0,-7.0975284 -8.30157,-7.85797783 -8.30157,-4.5626968 0,3.0417978 -1.71102,12.3573038 -1.71102,18.5042698 0,6.083596 3.61214,13.941574 8.80854,13.941574 8.87191,0 15.71596,-19.961798 17.17349,-24.587866 0.25348,-0.950562 -1.14068,-1.204045 -1.5209,-0.06337 z" />
        <path
           inkscape:connector-curvature="0"
           id="path13546"
           style="font-style:normal;font-variant:normal;font-weight:normal;font-stretch:normal;font-size:63.37078857px;font-family:'Magnolia Sky';-inkscape-font-specification:'Magnolia Sky';fill:#ffffff;fill-opacity:1"
           d="m 318.5787,11.357541 c -1.20405,3.802248 -7.41438,21.862922 -15.33573,21.862922 -5.64,0 -7.47775,-9.949214 -7.47775,-9.949214 0,0 11.53348,-5.386517 11.53348,-11.596854 0,-3.3586516 -1.77438,-6.9074158 -5.51326,-6.9074158 -6.46382,0 -13.8782,6.9707868 -13.8782,16.0328098 0,8.87191 4.87955,15.462472 12.86427,15.462472 11.28,0 17.9973,-20.278652 19.26472,-24.777978 0.25348,-0.76045 -1.14068,-1.140674 -1.45753,-0.126742 z M 302.60926,8.9494513 c 1.71101,0 2.40809,1.5208987 2.40809,3.2319097 0,4.81618 -9.50562,9.125394 -9.50562,9.125394 0,0 -1.20404,-12.3573037 7.09753,-12.3573037 z" />
        <path
           inkscape:connector-curvature="0"
           id="path13548"
           style="font-style:normal;font-variant:normal;font-weight:normal;font-stretch:normal;font-size:63.37078857px;font-family:'Magnolia Sky';-inkscape-font-specification:'Magnolia Sky';fill:#ffffff;fill-opacity:1"
           d="m 343.37451,11.991249 c -1.26742,6.337079 -7.73124,37.452136 -10.32944,37.452136 -3.61214,0 8.61842,-42.521799 -4.49933,-42.521799 -3.54876,0 -8.55506,2.9150563 -8.55506,2.9150563 0,0 3.29529,-15.7793264 -2.02786,-15.7793264 -2.85169,0 -4.81618,5.57662944 -4.81618,9.6957307 0,3.295281 0.76045,8.2382024 3.73888,8.2382024 3.42202,0 6.02022,-2.2179775 7.66786,-2.2179775 0,0 -1.90112,22.4966295 -1.90112,25.7919105 0,4.879551 -0.0634,18.377529 8.99865,18.377529 5.70337,0 11.91371,-34.663821 13.11775,-41.76135 0.31686,-1.330786 -1.14067,-1.457528 -1.39415,-0.190112 z m -24.9681,-1.837753 c -2.72494,0.633708 -3.42202,-2.4080897 -3.42202,-6.0202247 0,-3.0417978 1.39416,-7.7312362 2.66158,-7.7312362 3.6755,0 0.76044,13.7514609 0.76044,13.7514609 z" />
      </g>
      <path
         id="path8485"
         d="m 688.556,300.00103 c -1.08066,0 -2.12543,0.67794 -3.29102,2.13476 -2.41839,3.0226 -4.78785,9.26902 -6.12304,16.14063 -0.28421,1.46273 -0.31714,1.55287 -0.53907,1.49218 -0.12989,-0.0355 -0.51133,-0.0977 -0.84765,-0.13867 l -0.61133,-0.0762 0.43555,-0.36523 0.43554,-0.36524 -0.625,-0.0781 c -0.34372,-0.0429 -1.12144,-0.035 -1.72851,0.0176 -1.07608,0.0931 -1.10652,0.10342 -1.20899,0.41211 -0.0583,0.17415 -0.0883,0.33472 -0.0664,0.35547 0.0219,0.0207 0.34046,-0.0103 0.70703,-0.0684 1.08072,-0.17125 1.08348,-0.0584 0.01,0.50586 -0.60888,0.31996 -0.87875,0.50769 -0.67578,0.47071 0.18576,-0.0339 1.0215,-0.0932 1.85742,-0.13086 1.22856,-0.0553 1.65856,-0.0323 2.24219,0.12109 0.70872,0.18629 1.98558,0.77497 2.42969,1.11914 0.22081,0.17101 0.21926,0.17362 -0.0566,0.16992 -0.15481,-0.002 -0.72384,-0.0658 -1.26563,-0.14258 -0.5418,-0.0768 -0.98632,-0.10747 -0.98632,-0.0684 0,0.0391 0.32357,0.33365 0.71874,0.65429 0.90639,0.73539 2.07865,1.97347 2.59766,2.74414 0.21974,0.32629 0.39844,0.62602 0.39844,0.66797 0,0.0419 -0.30328,-0.0696 -0.67578,-0.25 -0.37251,-0.18044 -0.70358,-0.32812 -0.73438,-0.32812 -0.0309,0 0.0902,0.29044 0.26953,0.64648 0.46454,0.92205 0.88912,2.33513 1.02539,3.42188 0.13652,1.08833 0.15321,2.45913 0.0312,2.46093 -0.0464,6.5e-4 -0.49718,-0.44193 -1.00195,-0.98437 l -0.91797,-0.98633 0.27344,1.125 c 0.25896,1.06649 0.39687,3.24742 0.22266,3.5293 -0.12691,0.20534 -2.10614,-0.23903 -4.17383,-0.9375 -1.17468,-0.39683 -2.14932,-0.70815 -2.16602,-0.69141 -0.0167,0.0167 0.60349,0.43171 1.37696,0.92188 0.77346,0.49015 1.40625,0.92653 1.40625,0.96875 0,0.18599 -0.87301,0.34368 -1.63282,0.29492 -0.89888,-0.0577 -1.70515,-0.3822 -3.16992,-1.27149 -0.45445,-0.2759 -0.82652,-0.46307 -0.82617,-0.41797 4.1e-4,0.0451 0.1041,0.23417 0.23047,0.41993 0.12636,0.18576 0.30669,0.47982 0.40039,0.65429 0.16057,0.29903 0.1574,0.31113 -0.0371,0.20703 -0.34702,-0.18572 -1.61633,-1.14358 -2.53516,-1.9121 l -0.87109,-0.72852 0.0703,-0.46289 c 0.0388,-0.25391 0.081,-0.474 0.0937,-0.49024 0.0128,-0.0162 0.24681,0.068 0.51953,0.1875 1.47954,0.64814 3.05876,0.24903 3.8711,-0.97851 0.38805,-0.58637 1.11096,-2.60787 1.53515,-4.29102 0.44975,-1.7844 0.42704,-2.7536 -0.084,-3.58398 -0.8502,-1.38157 -2.94994,-1.89557 -4.4375,-1.08594 -0.30768,0.16747 -0.59005,0.27518 -0.62695,0.23828 -0.0369,-0.0369 0.0718,-0.24796 0.24023,-0.46875 l 0.30664,-0.40234 -0.40234,0 c -0.22041,0 -0.43231,0.0511 -0.47071,0.11328 -0.0818,0.13233 -0.61779,0.0293 -0.80078,-0.1543 -0.25624,-0.25705 -1.09139,-4.13596 -1.39648,-6.48828 -0.12756,-0.98343 -0.26454,-1.46289 -0.41797,-1.46289 -0.0481,0 -0.46194,0.28047 -0.91992,0.625 -0.89081,0.67015 -1.01849,0.66859 -1.02149,-0.0137 -9.6e-4,-0.18941 -0.0727,-0.43972 -0.1582,-0.55664 -0.14768,-0.20197 -0.19621,-0.18137 -0.98437,0.41015 -0.45632,0.34246 -1.64015,1.22429 -2.63086,1.95899 -1.97032,1.46116 -4.15986,3.53544 -4.50977,4.27344 -0.38683,0.81584 -0.17519,1.97119 0.42969,2.35156 0.45057,0.28337 0.82204,-0.37142 0.48437,-0.85352 -0.57688,-0.8236 0.43083,-2.25899 3.375,-4.80859 1.1873,-1.02818 3.42332,-2.75926 3.47852,-2.69336 0.0178,0.0212 0.0616,0.2406 0.0976,0.48828 l 0.0664,0.45117 -1.14648,0.84375 c -3.47945,2.56555 -4.94085,4.2443 -4.75782,5.46485 0.0837,0.55818 0.48473,1.21355 0.77539,1.26953 0.46262,0.0891 0.68416,-0.49253 0.35352,-0.92969 -0.23177,-0.30648 -0.20695,-0.77965 0.0723,-1.33398 0.26266,-0.5215 2.74133,-3.05117 3.98437,-4.06641 l 0.78711,-0.64258 0.084,0.42774 c 0.0458,0.23578 0.2108,1.08762 0.36719,1.89258 0.15641,0.80495 0.40568,1.9447 0.55469,2.53124 0.14902,0.58655 0.2466,1.10418 0.2168,1.15235 -0.0298,0.0482 -0.28248,0.14629 -0.5625,0.2168 -0.33816,0.0851 -0.69847,0.30171 -1.07032,0.64648 -0.48214,0.44701 -0.62177,0.68318 -1.00586,1.70117 -0.67922,1.80028 -1.15983,3.84061 -1.08203,4.59375 0.12377,1.19924 1.16808,2.26696 2.39649,2.45117 0.42787,0.0642 0.50041,0.11896 0.61133,0.45508 0.0694,0.21014 0.28393,0.53784 0.4746,0.72852 0.30951,0.30951 0.40549,0.34178 0.90626,0.30859 l 0.56054,-0.0371 0.40625,0.77149 c 0.39497,0.74851 1.22202,1.8578 1.39258,1.86914 0.0464,0.003 0.084,-0.13165 0.084,-0.29883 0,-0.72004 0.21103,0.008 0.36133,1.24805 l 0.16211,1.33984 -0.44922,-0.49414 c -1.49972,-1.6474 -1.65939,-1.77424 -1.79297,-1.42383 -0.0295,0.0774 0.08,1.12926 0.24219,2.33594 0.25027,1.86193 0.32469,2.19835 0.49219,2.23047 0.32572,0.0625 0.35519,-0.27477 0.1543,-1.8086 -0.10531,-0.80427 -0.17244,-1.4818 -0.14844,-1.50586 0.024,-0.024 0.40662,0.35706 0.84961,0.84766 l 0.80469,0.89258 0.17773,1.38867 c 0.0981,0.76406 0.22279,1.43362 0.27539,1.48828 0.0525,0.0547 0.17438,0.0685 0.27148,0.0312 0.22347,-0.0858 0.22375,-0.42552 0,-1.93164 -0.0973,-0.65446 -0.15997,-1.24262 -0.13867,-1.30664 0.0213,-0.064 0.41798,0.31339 0.88086,0.83984 0.7923,0.90111 1.129,1.12471 1.29297,0.85938 0.0387,-0.0626 -0.0402,-0.94753 -0.17383,-1.9668 -0.13358,-1.01927 -0.22432,-1.90348 -0.20312,-1.96484 0.0212,-0.0614 0.43028,0.13885 0.91015,0.44531 0.47988,0.30646 0.87305,0.51425 0.87305,0.46094 0,-0.0533 -0.077,-0.31293 -0.16992,-0.57617 -0.0929,-0.26325 -0.16797,-0.5192 -0.16797,-0.57032 0,-0.0826 0.82168,0.22989 0.95508,0.36329 0.0713,0.0713 1.63987,4.51908 1.60547,4.55273 -0.0149,0.0146 -0.60118,-0.40101 -1.30274,-0.92188 -1.27296,-0.94512 -1.70898,-1.13427 -1.70898,-0.74414 0,0.25942 1.54034,4.62693 1.69922,4.81836 0.15318,0.18457 0.44145,0.0774 0.43945,-0.16406 -2.2e-4,-0.10174 -0.27661,-0.96753 -0.61523,-1.92383 -0.33864,-0.95629 -0.6055,-1.74867 -0.5918,-1.76172 0.0138,-0.0131 0.40576,0.25024 0.86914,0.58594 l 0.8418,0.61133 0.77148,2.2207 c 0.7668,2.20925 0.95566,2.59883 1.19141,2.45313 0.21075,-0.13025 0.14381,-0.43885 -0.49219,-2.25391 l -0.61719,-1.75976 0.36328,0.2539 c 0.19972,0.13967 0.78832,0.5731 1.3086,0.96289 0.93262,0.69871 1.28951,0.84449 1.39062,0.56836 0.0283,-0.0774 -0.42496,-1.48413 -1.00586,-3.125 -0.5809,-1.64087 -1.08634,-3.11082 -1.12304,-3.26562 -0.0624,-0.26295 -0.054,-0.26929 0.12695,-0.0977 0.1065,0.10105 1.69967,2.75232 3.54101,5.89063 1.84133,3.1383 3.43259,5.80403 3.53516,5.92382 0.2275,0.26572 0.34376,0.27147 0.58203,0.0332 0.16969,-0.1697 0.20676,-0.15962 0.50586,0.12695 l 0.32422,0.31055 0.41016,-0.25391 0.4082,-0.25195 1.26172,0.46679 c 1.13564,0.42085 1.30747,0.52268 1.74219,1.02735 0.2654,0.30812 0.54132,0.56054 0.61132,0.56054 0.07,1e-5 0.23707,-0.10456 0.3711,-0.23046 0.2166,-0.20349 0.25938,-0.20814 0.38672,-0.0547 0.18925,0.22803 0.43977,0.21638 0.82422,-0.0371 0.31444,-0.20732 0.31758,-0.20756 1.57617,0.27734 0.6936,0.26723 1.29679,0.48812 1.34179,0.49024 0.10632,0.005 1.10157,-1.692 1.10157,-1.87891 0,-0.24227 -0.36514,-0.15804 -0.69727,0.16016 -0.32853,0.31475 -0.39023,0.24626 -0.20898,-0.23047 0.0772,-0.2031 0.064,-0.31582 -0.0449,-0.40625 -0.1171,-0.0972 -0.28783,0.0294 -0.77735,0.57031 -0.61717,0.682 -0.63525,0.69169 -0.9707,0.55274 -0.2009,-0.0832 -0.3418,-0.22478 -0.3418,-0.34375 0,-0.15173 -0.14177,-0.23273 -0.56836,-0.32422 -0.31265,-0.0671 -0.64704,-0.1211 -0.74414,-0.1211 -0.1306,0 -0.15641,-0.0663 -0.0996,-0.2539 0.19523,-0.64529 0.19958,-1.7508 0.01,-2.32227 -0.24015,-0.72304 -1.0816,-1.66657 -1.96485,-2.20312 -0.71579,-0.43482 -2.67846,-1.12696 -3.55664,-1.25391 -0.41281,-0.0597 -0.69678,-0.19363 -1.06836,-0.50391 -0.27866,-0.23269 -0.78872,-0.59195 -1.13281,-0.79882 -0.52843,-0.3177 -2.52448,-2.34571 -2.30859,-2.34571 0.0364,0 0.71142,0.32233 1.5,0.7168 2.80146,1.40131 5.32123,2.25109 7.69726,2.59766 1.38876,0.20255 3.15234,0.21153 4.03907,0.0195 l 0.61914,-0.13477 0.46875,0.51172 c 0.4247,0.46241 0.48658,0.493 0.64843,0.33594 0.1607,-0.15598 0.16261,-0.32131 0.0274,-1.63281 -0.12281,-1.19178 -0.1241,-1.65367 -0.008,-2.52735 0.30153,-2.26513 0.14432,-4.89217 -0.41015,-6.86719 -0.72848,-2.59487 -2.48301,-5.05875 -4.58008,-6.42773 -0.93543,-0.61066 -0.97489,-0.5541 0.53125,-0.78516 1.15259,-0.17682 2.49075,-0.49736 3.48047,-0.83398 1.48981,-0.50672 2.07627,-0.92435 3.90039,-2.78125 5.08786,-5.17931 7.82729,-9.40089 7.83789,-12.08008 0.005,-1.25044 -0.35754,-1.83996 -1.43164,-2.33398 -0.80056,-0.36821 -2.48823,-0.34271 -4.02344,0.0605 -2.20099,0.57812 -5.34014,2.01818 -8.14648,3.73633 -0.65611,0.40171 -1.20626,0.73047 -1.22266,0.73047 -0.0164,0 -0.0638,-0.74879 -0.10547,-1.66211 -0.28483,-6.2452 -1.61353,-9.48437 -3.89062,-9.48437 z m -0.21875,0.85351 c 0.84731,-0.13552 1.54617,0.42413 2.07812,1.67578 l 0.3086,0.72657 -0.37891,0.31445 c -0.63736,0.52886 -1.73168,1.53554 -1.77148,1.63086 -0.0532,0.12742 -0.11808,0.10867 -0.75,-0.22071 -0.61223,-0.31912 -2.03278,-0.69967 -2.61719,-0.70117 -0.20124,-4.9e-4 -0.36524,-0.0287 -0.36524,-0.0625 0,-0.21001 1.21402,-1.79415 1.81446,-2.36719 0.61061,-0.58273 1.17325,-0.91478 1.68164,-0.99609 z m 2.41015,2.72656 0.14258,0.34961 c 0.17733,0.4346 0.55455,2.78412 0.65235,4.06446 l 0.0742,0.95703 -0.77148,0.44922 c -0.42358,0.24768 -0.80134,0.46638 -0.83984,0.48437 -0.0385,0.018 -0.0194,-0.23688 0.041,-0.56445 0.24821,-1.34711 -0.0562,-2.45196 -0.93945,-3.41016 l -0.44727,-0.48437 1.04297,-0.92383 1.04492,-0.92188 z m -6.12304,0.90821 0.64258,0.0742 c 1.11984,0.12948 2.56841,0.57778 2.9375,0.9082 0.0234,0.021 -0.23705,0.33102 -0.57813,0.68945 -1.14698,1.20535 -2.55231,2.93318 -3.68945,4.53516 -0.32965,0.46439 -0.91556,1.33993 -1.30078,1.94531 l -0.69922,1.10156 -0.30078,-0.53906 -0.30078,-0.53711 0.4121,-1.29492 c 0.57297,-1.798 1.54278,-4.21809 2.26758,-5.66406 l 0.60938,-1.21875 z m 3.87109,1.2539 c 0.20535,0 0.78826,0.71487 1.06641,1.30664 0.12119,0.2578 0.25211,0.71425 0.29101,1.01563 0.13122,1.01664 -0.46616,3.16343 -1.49023,5.35351 -0.48832,1.04435 -0.55008,1.12224 -1.48047,1.85743 -0.53416,0.42208 -1.40117,1.14425 -1.92773,1.60351 -0.52655,0.45926 -1.33119,1.19229 -1.78711,1.63086 l -0.82813,0.79883 0.0625,-0.39453 c 0.24704,-1.55183 0.16394,-3.33631 -0.20117,-4.3711 -0.1092,-0.30926 -0.11645,-0.48937 -0.0312,-0.64648 0.29374,-0.54137 2.20362,-3.33807 2.98437,-4.36914 1.16639,-1.54034 3.1486,-3.78516 3.3418,-3.78516 z m 15.74024,1.46485 c 1.09224,-0.002 1.56046,0.14149 1.99023,0.60742 0.3768,0.4085 0.44028,1.43241 0.14844,2.375 l -0.20899,0.67578 -1.52734,0.0547 -1.52734,0.0566 -0.40235,-0.84375 c -0.22038,-0.4644 -0.68,-1.18383 -1.02344,-1.59766 l -0.625,-0.75195 0.36133,-0.11719 c 0.91527,-0.29597 1.90605,-0.45748 2.81446,-0.45898 z m -3.57813,0.68359 0.61914,0.65039 c 0.65466,0.68849 1.28877,1.6673 1.41406,2.18359 0.0687,0.28299 0.0461,0.30789 -0.24804,0.3086 -1.23226,0.002 -5.49236,0.83149 -8.09961,1.57617 -0.86071,0.24584 -1.59717,0.44851 -1.63477,0.44922 -0.0376,7.5e-4 -0.008,-0.2609 0.0645,-0.58203 l 0.13085,-0.58399 1.45704,-0.88086 c 1.58473,-0.95677 4.11438,-2.24727 5.45312,-2.7832 l 0.84375,-0.33789 z m -9.11914,1.47266 c 0.0235,0.0235 0.0783,0.55033 0.12109,1.17187 l 0.0781,1.13086 -1.56055,1.11914 c -1.57315,1.12876 -1.73437,1.23563 -1.73437,1.14453 0,-0.0276 0.15907,-0.39965 0.35351,-0.82617 0.19445,-0.42652 0.51361,-1.22874 0.70899,-1.7832 l 0.35547,-1.00781 0.81835,-0.4961 c 0.44973,-0.27268 0.83578,-0.47668 0.85938,-0.45312 z m 13.64258,1.80078 c 0.26029,-0.001 0.46235,0.008 0.54101,0.0273 l 0.28516,0.0723 -0.41211,0.75781 c -0.42514,0.78254 -1.41002,2.30539 -2.07812,3.21289 -0.28498,0.38711 -0.45389,0.51561 -0.66407,0.50781 -0.28399,-0.0105 -1.49033,-0.21685 -1.55273,-0.26562 -0.0185,-0.0145 0.26823,-0.31453 0.63672,-0.66602 0.8845,-0.84366 1.1834,-1.51503 1.1914,-2.66992 l 0.006,-0.86328 1.15039,-0.0781 c 0.31627,-0.0217 0.63619,-0.0339 0.89649,-0.0352 z m -2.83789,0.15039 c 0.28606,-0.0242 0.46607,-0.0262 0.49414,0.002 0.11663,0.11699 0.0651,1.30563 -0.0781,1.81055 -0.51513,1.81675 -3.71625,3.71287 -9.79297,5.79883 -0.70154,0.24081 -1.31688,0.43945 -1.36718,0.43945 -0.0503,0 0.0534,-0.37401 0.23047,-0.83008 0.33521,-0.86327 0.55168,-2.45267 0.55468,-4.06836 10e-4,-0.43344 0.0401,-0.84612 0.0859,-0.91797 0.12819,-0.20148 3.46601,-1.13162 5.59961,-1.56054 1.59565,-0.32078 3.41526,-0.60129 4.27344,-0.67383 z m -10.73633,1.48633 -0.0332,0.70312 -0.0352,0.70313 -1.29492,0.42578 c -0.71147,0.23375 -1.48288,0.50417 -1.71485,0.60156 -0.23219,0.0975 -0.42382,0.15917 -0.42382,0.13672 0,-0.0464 2.70473,-2.05303 3.1875,-2.36523 l 0.31445,-0.20508 z m -24.96289,0.38672 c 0.0164,0.0227 0.16988,0.90244 0.3418,1.95507 0.28745,1.75978 0.7967,4.18973 1.07031,5.10547 0.0884,0.29551 0.0744,0.43457 -0.0645,0.64649 -0.23301,0.35562 -0.31045,0.34384 -0.77734,-0.12305 -0.21672,-0.21672 -0.49324,-0.39453 -0.61328,-0.39453 -0.16646,0 -0.25782,-0.13908 -0.38867,-0.58985 -0.23073,-0.7947 -0.92468,-4.15335 -1.01758,-4.92578 l -0.0742,-0.61914 0.74609,-0.54882 c 0.4107,-0.30134 0.76095,-0.52856 0.77735,-0.50586 z m 14.64844,0.0566 c 0.16959,0.094 0.50472,0.88899 0.73242,1.77929 0.4215,1.64804 0.23022,4.2853 -0.39063,5.38282 -0.16638,0.29411 -0.33585,0.52868 -0.37695,0.52148 -0.0412,-0.007 -0.38043,-0.18295 -0.75195,-0.39063 -0.37152,-0.20767 -0.71954,-0.39424 -0.77344,-0.41406 -0.18574,-0.0683 1.24222,-6.61284 1.5,-6.875 0.0167,-0.017 0.0363,-0.0173 0.0606,-0.004 z m 10.27929,1.33007 c 0.23585,0.23586 -1.80454,2.37806 -3.1289,3.28516 -0.97756,0.66957 -3.09165,1.82197 -3.02735,1.65039 0.024,-0.0641 0.47565,-0.87883 1.00196,-1.81055 l 0.95703,-1.69531 1.125,-0.44531 c 1.3587,-0.53909 2.99356,-1.06303 3.07226,-0.98438 z m -0.0547,0.79297 -0.0781,1.0586 c -0.0761,1.02566 -0.50621,2.45625 -0.88672,2.94922 -0.10297,0.13339 -0.44068,0.19938 -1.32031,0.25781 -0.65017,0.0432 -1.85895,0.17745 -2.68555,0.29883 -0.8266,0.12138 -1.53587,0.21919 -1.57617,0.21679 -0.0403,-0.003 0.4849,-0.28739 1.16602,-0.63086 2.16784,-1.09318 3.55097,-2.1055 4.82812,-3.5332 l 0.55274,-0.61719 z m 9.42773,0.40235 c 0.17183,-0.003 0.41373,0.0239 0.79883,0.0801 0.51009,0.0743 0.96687,0.17366 1.01367,0.22071 0.0468,0.0471 -0.34913,0.59237 -0.87891,1.21094 -0.52977,0.61856 -1.25291,1.43352 -1.60742,1.8125 l -0.64453,0.68945 -0.72266,-0.32813 c -0.58313,-0.2647 -2.16866,-0.8778 -3.02343,-1.16992 -0.0895,-0.0306 0.51704,-0.3502 1.34961,-0.70898 1.3156,-0.56694 2.4602,-1.15127 3.33789,-1.70508 0.10294,-0.0649 0.20512,-0.0985 0.37695,-0.10156 z m -14.23437,0.78711 c 0.0153,1.6e-4 0.0173,0.0124 0.008,0.0371 -0.13432,0.35004 -1.76646,3.08064 -1.91211,3.19921 -0.0743,0.0605 -0.58218,0.26875 -1.12891,0.46094 -0.54674,0.19219 -1.04437,0.34961 -1.10547,0.34961 -0.19461,0 0.88119,-1.27254 1.67383,-1.98047 1.62594,-1.45212 2.35793,-2.06753 2.46485,-2.0664 z m 8.6289,1.88867 c 0.4227,0.0109 4.02344,1.43201 4.02344,1.58789 0,0.0432 -0.46828,0.53693 -1.04102,1.09766 -0.74426,0.7286 -1.2649,1.1307 -1.82812,1.4121 -1.21459,0.60685 -1.10749,0.62277 -2.36524,-0.32617 -0.61921,-0.46716 -1.54606,-1.10698 -2.06054,-1.42187 -1.02998,-0.63042 -1.05593,-0.65259 -0.94141,-0.83789 0.0914,-0.1479 3.91372,-1.51942 4.21289,-1.51172 z m -6.16406,1.49414 c 0.8032,0.007 0.93798,-0.0412 -2.38672,0.875 -1.37459,0.37882 -2.52655,0.68945 -2.56055,0.68945 -0.11159,0 -0.066,-0.11261 0.22657,-0.55469 0.27895,-0.42153 0.32191,-0.44184 1.32226,-0.61914 1.51872,-0.26917 2.63545,-0.39762 3.39844,-0.39062 z m 0.85156,0.24023 -0.1914,0.29492 c -0.10514,0.16282 -0.41149,0.58612 -0.68165,0.93946 -0.59168,0.77387 -0.73713,0.88499 -0.60156,0.45898 0.0548,-0.1724 0.12892,-0.54167 0.16602,-0.82031 0.0667,-0.50202 0.0745,-0.50767 0.68945,-0.68945 l 0.61914,-0.1836 z m -5.54297,0.14063 c 0.0515,0.0516 -0.72247,1.25281 -0.86328,1.33984 -0.0619,0.0383 -0.33133,0.0979 -0.59961,0.13086 -0.5617,0.0689 -1.05807,-0.21584 -0.93554,-0.53515 0.0621,-0.16189 2.29943,-1.03459 2.39843,-0.93555 z m 6.41016,0.0684 0.99805,0.625 c 1.40657,0.88073 2.99837,2.08193 2.89062,2.18164 -0.13665,0.12646 -1.96208,0.52201 -3.29883,0.71484 -1.58213,0.22821 -2.38593,0.29636 -2.58984,0.2168 -0.0929,-0.0362 -0.28729,-0.11065 -0.43164,-0.16406 -0.25564,-0.0946 -0.24464,-0.11954 0.46289,-0.96875 0.39949,-0.4795 1.00609,-1.26167 1.34766,-1.73828 l 0.62109,-0.86719 z m -2.53125,0.32617 c 0.13581,0 0.0416,0.7407 -0.19336,1.51953 -0.0934,0.3096 -0.32749,0.75413 -0.51953,0.98633 -0.38208,0.46196 -0.19849,0.43191 -2.07813,0.33789 l -0.78711,-0.0391 -0.42578,-0.79883 c -0.23384,-0.4391 -0.41173,-0.81107 -0.39453,-0.82617 0.052,-0.0459 4.27929,-1.17969 4.39844,-1.17969 z m -21.73047,0.25 c 0.0581,-0.077 0.19584,0.0843 0.36719,0.45312 0.20731,0.44631 0.24897,0.47635 0.6289,0.44727 0.36284,-0.0278 0.42409,0.009 0.55469,0.32422 0.0806,0.19466 0.26478,0.46285 0.41016,0.59765 l 0.26562,0.2461 -0.4414,1.3457 c -0.24286,0.74031 -0.55136,1.86045 -0.68555,2.48828 -0.20657,0.96653 -0.22659,1.23955 -0.125,1.78907 0.1386,0.7498 0.12197,0.78577 -0.65625,1.28515 -0.29478,0.18916 -0.57299,0.34375 -0.61719,0.34375 -0.20016,0 -0.66781,-1.66815 -0.59961,-2.13867 0.0135,-0.0929 -0.026,-0.16992 -0.0879,-0.16992 -0.0626,0 -0.10661,0.26627 -0.0996,0.59961 0.0174,0.76963 -0.1387,0.62358 -0.41992,-0.39063 -0.43034,-1.55193 -0.12736,-3.75833 0.74805,-5.45117 0.16844,-0.32574 0.16996,-0.32614 0.39258,-0.10351 0.26505,0.26505 0.81339,0.29406 1.01367,0.0527 0.1783,-0.21484 0.0633,-0.33594 -0.31836,-0.33594 -0.22626,0 -0.3542,-0.10561 -0.55078,-0.45117 -0.31822,-0.55944 -0.32768,-0.72689 -0.0352,-0.65039 0.15656,0.041 0.22656,0.004 0.22656,-0.12305 0,-0.0803 0.01,-0.13252 0.0293,-0.1582 z m 2.33203,0.0352 c 0.0451,0.0352 0.10709,0.16419 0.2207,0.41601 0.22643,0.50179 0.23002,0.5488 0.0547,0.81641 -0.10231,0.15614 -0.20049,0.2832 -0.21679,0.2832 -0.11126,0 -0.61915,-0.91486 -0.61915,-1.11523 0,-0.063 0.0755,-0.0863 0.16797,-0.0508 0.10802,0.0415 0.20569,-0.0309 0.27149,-0.20117 0.0485,-0.12539 0.076,-0.18364 0.12109,-0.14843 z m 14.28711,1.08007 c 0.0727,0.0242 -0.094,0.37639 -0.39453,0.83008 -0.28709,0.43332 -0.56128,0.83171 -0.60938,0.88477 -0.13333,0.14714 -0.46024,-0.42555 -0.52734,-0.92578 l -0.0586,-0.44532 0.66015,-0.082 c 0.36348,-0.0447 0.69312,-0.13031 0.73242,-0.1914 0.0393,-0.0611 0.12777,-0.0935 0.19727,-0.0703 z m 0.49414,0.17383 c 0.0964,0.0595 0.75386,1.17979 0.75586,1.28711 5.9e-4,0.0374 -0.33985,0.12642 -0.75781,0.19727 -0.41795,0.0708 -0.87984,0.16121 -1.02539,0.20117 -0.23416,0.0643 -0.19512,-0.0323 0.33789,-0.83399 0.33131,-0.49828 0.64175,-0.88105 0.68945,-0.85156 z m -3.03711,0.0801 c 0.0204,-0.009 0.0491,-0.005 0.0801,0.0137 0.0619,0.0383 0.11133,0.0918 0.11133,0.11914 0,0.0273 -0.0494,0.0488 -0.11133,0.0488 -0.0619,0 -0.11328,-0.0536 -0.11328,-0.11914 0,-0.0328 0.0128,-0.0535 0.0332,-0.0625 z m -7.11133,0.30859 a 1.3086214,3.2234481 15.766048 0 1 0.21875,0.0469 1.3086214,3.2234481 15.766048 0 1 0.25586,3.61523 1.3086214,3.2234481 15.766048 0 1 -2.15429,2.53516 1.3086214,3.2234481 15.766048 0 1 -0.25586,-3.61328 1.3086214,3.2234481 15.766048 0 1 1.93554,-2.58399 z m 15.11329,2.46485 c 0.0576,-0.0493 0.39965,0.0972 1.0664,0.40234 1.9163,0.87696 3.74645,2.66247 4.7207,4.60547 0.40247,0.80265 0.9262,2.42571 1.10352,3.41992 0.3235,1.81379 0.17688,5.3743 -0.29297,7.11914 -0.065,0.24137 -0.18086,0.43364 -0.25586,0.42774 -0.075,-0.006 -0.64252,-0.20794 -1.26172,-0.44922 -0.6192,-0.24128 -1.1831,-0.46128 -1.2539,-0.48828 -0.0948,-0.0361 -0.0873,-0.2511 0.0312,-0.81641 0.43772,-2.08665 0.52513,-4.82448 0.20898,-6.62305 -0.46811,-2.66298 -1.63235,-4.97391 -3.43359,-6.82421 -0.46512,-0.47778 -0.69041,-0.72413 -0.63281,-0.77344 z m -5.29493,0.93554 c 0.0681,-0.0681 1.00929,1.20707 1.41602,1.91797 1.20064,2.09879 1.66243,5.24266 1.19336,8.13477 -0.27132,1.67286 -0.0547,1.58978 -2.14063,0.81055 -0.99031,-0.36996 -1.80901,-0.68195 -1.82031,-0.69336 -0.0114,-0.0114 0.0518,-0.3739 0.14258,-0.80664 0.0908,-0.43274 0.21138,-1.11102 0.26758,-1.50782 0.0563,-0.39679 0.1693,-0.76261 0.25,-0.8125 0.11342,-0.0701 0.14362,-0.63626 0.14062,-2.48828 -0.005,-2.24092 -0.0237,-2.45545 -0.29101,-3.31836 -0.32689,-1.05512 -0.33825,-1.05015 0.71875,-0.30078 0.29425,0.20862 0.55853,0.37891 0.58593,0.37891 0.0274,0 -0.0764,-0.28456 -0.23046,-0.63282 -0.15409,-0.34825 -0.25863,-0.65549 -0.23243,-0.68164 z m -15.48047,3.86524 c 0.10526,-0.0268 0.16125,0.0198 0.25782,0.11719 0.30005,0.30271 0.3935,1.07329 0.1582,1.30859 -0.1035,0.10352 -0.24731,0.18554 -0.32031,0.18164 -0.37616,-0.0202 -1.35557,-0.61357 -1.29297,-0.7832 0.0185,-0.0501 0.30873,-0.27481 0.64453,-0.5 0.2937,-0.19696 0.44748,-0.29738 0.55273,-0.32422 z m -2.43554,0.32422 c 0.0415,-0.037 0.23323,0.13509 0.53711,0.49804 0.28614,0.34177 0.41065,0.56836 0.31445,0.56836 -0.18189,0 -0.55682,-0.38026 -0.75781,-0.76953 -0.0908,-0.17588 -0.11865,-0.27469 -0.0937,-0.29687 z m 2.79101,1.74023 c 0.14005,0 0.22661,0.0747 0.22461,0.19727 -0.003,0.36223 -0.1629,0.48955 -0.3125,0.25 -0.19596,-0.31378 -0.17,-0.44727 0.0879,-0.44727 z m 1.36719,1.39453 c 0.0281,-0.0737 0.2324,0.0716 0.89648,0.57618 l 0.73829,0.56054 0.22656,1.68946 c 0.12484,0.92941 0.21537,1.70609 0.20117,1.7246 -0.0142,0.0185 -0.40542,-0.39285 -0.86914,-0.91406 l -0.8418,-0.94726 -0.13672,-1.16993 c -0.0748,-0.64281 -0.16281,-1.26322 -0.19531,-1.3789 -0.0191,-0.0679 -0.0289,-0.11606 -0.0195,-0.14063 z m 6.14648,2.11914 c 0.34013,-0.0188 0.64022,-0.0141 0.66602,0.0117 0.0258,0.0258 0.52839,1.42903 1.11719,3.11719 0.58881,1.68816 1.0535,3.08518 1.0332,3.10547 -0.0203,0.0203 -0.41055,-0.25221 -0.86719,-0.60547 l -0.83007,-0.64258 -0.86915,-2.47656 -0.86914,-2.47656 0.61914,-0.0332 z m 5.9629,0.98047 1.67773,0.63477 c 0.92287,0.34945 1.74834,0.67396 1.83594,0.72265 0.10327,0.0574 -0.1216,0.15344 -0.64063,0.27149 -1.37661,0.3131 -1.85025,0.24993 -2.94922,-0.39453 -0.52535,-0.30809 -1.09936,-0.65222 -1.27539,-0.76367 l -0.32031,-0.20118 0.83594,-0.13476 0.83594,-0.13477 z m -2.20118,1.36133 c 0.0128,0 0.0668,0.0554 0.17578,0.16797 0.11984,0.12384 0.56328,0.61778 0.98438,1.09766 0.74503,0.84902 0.77831,1.02946 0.14648,0.77929 -0.16558,-0.0655 -0.80368,-1.03539 -1.23437,-1.87695 -0.0576,-0.11258 -0.0851,-0.16797 -0.0723,-0.16797 z m 12.51172,2.50977 1.12305,0.42773 c 1.27579,0.48626 1.38362,0.55274 0.90625,0.55274 -0.18744,0 -0.56415,0.0193 -0.83594,0.0449 -0.66618,0.0628 -2.20703,-0.10298 -3.36914,-0.36328 l -0.95117,-0.2129 0.67383,-0.0762 c 0.3715,-0.0421 1.07588,-0.1431 1.56445,-0.22461 l 0.88867,-0.14843 z m -10.70117,0.57812 c 0.0176,-0.0176 0.34933,0.1038 0.73633,0.26953 0.643,0.27536 0.83487,0.45008 2.22266,2.03321 1.69793,1.9369 1.72136,1.99343 1.2539,2.99609 -0.14435,0.3096 -0.34281,0.62939 -0.4414,0.71094 -0.15271,0.1263 -0.20452,0.11087 -0.34571,-0.11133 -0.49774,-0.78337 -3.45278,-5.8714 -3.42578,-5.89844 z m 4.23438,2.33985 c 0.27519,-0.0917 2.16432,0.47516 3.12695,0.9375 1.99998,0.96052 2.65952,2.21943 2.0664,3.94335 -0.12526,0.36405 -0.26349,0.69438 -0.30859,0.73438 -0.045,0.04 -1.19019,-1.1973 -2.54492,-2.75 -1.35474,-1.5527 -2.40774,-2.8426 -2.33984,-2.86523 z m 1.03906,2.67968 c 0.0532,-9.4e-4 0.78765,0.81204 1.54883,1.71485 0.14923,0.17693 0.14572,0.1955 -0.0469,0.1875 -0.35132,-0.0146 -0.50614,-0.11199 -0.61133,-0.38868 -0.0758,-0.19938 -0.21588,-0.27957 -0.59179,-0.33593 -0.74686,-0.112 -0.78888,-0.16383 -0.56055,-0.70703 0.10871,-0.25866 0.22642,-0.47 0.26172,-0.47071 z"
         style="fill:#ffffff;fill-opacity:1"
         inkscape:connector-curvature="0" />
    </g>
  </g>
</svg>
