<?xml version="1.0" encoding="UTF-8" standalone="no"?>
<!-- Created with Inkscape (http://www.inkscape.org/) -->

<svg
   xmlns:dc="http://purl.org/dc/elements/1.1/"
   xmlns:cc="http://creativecommons.org/ns#"
   xmlns:rdf="http://www.w3.org/1999/02/22-rdf-syntax-ns#"
   xmlns:svg="http://www.w3.org/2000/svg"
   xmlns="http://www.w3.org/2000/svg"
   xmlns:sodipodi="http://sodipodi.sourceforge.net/DTD/sodipodi-0.dtd"
   xmlns:inkscape="http://www.inkscape.org/namespaces/inkscape"
   width="7.2089691mm"
   height="22.556932mm"
   viewBox="0 0 7.2089692 22.556933"
   version="1.1"
   id="svg5267"
   inkscape:version="0.92.1 r15371"
   sodipodi:docname="fleche_haut.svg">
  <defs
     id="defs5261" />
  <sodipodi:namedview
     id="base"
     pagecolor="#ffffff"
     bordercolor="#666666"
     borderopacity="1.0"
     inkscape:pageopacity="0.0"
     inkscape:pageshadow="2"
     inkscape:zoom="0.98994949"
     inkscape:cx="-343.00506"
     inkscape:cy="-39.692437"
     inkscape:document-units="mm"
     inkscape:current-layer="layer1"
     showgrid="false"
     fit-margin-top="0"
     fit-margin-left="0"
     fit-margin-right="0"
     fit-margin-bottom="0"
     inkscape:window-width="1920"
     inkscape:window-height="1013"
     inkscape:window-x="-9"
     inkscape:window-y="-9"
     inkscape:window-maximized="1" />
  <metadata
     id="metadata5264">
    <rdf:RDF>
      <cc:Work
         rdf:about="">
        <dc:format>image/svg+xml</dc:format>
        <dc:type
           rdf:resource="http://purl.org/dc/dcmitype/StillImage" />
        <dc:title></dc:title>
      </cc:Work>
    </rdf:RDF>
  </metadata>
  <g
     inkscape:label="Calque 1"
     inkscape:groupmode="layer"
     id="layer1"
     transform="translate(-127.13221,-75.881766)">
    <path
       style="fill:#556242;fill-opacity:1;stroke-width:0.28222227"
       d="m 128.01139,81.851785 c 0.58414,0.463121 0.64925,-0.09888 0.25304,-2.183652 l -0.43584,-2.293465 0.66627,0.633261 c 1.14789,1.090987 3.33514,4.631501 3.88341,6.286103 1.16064,3.502651 0.69771,7.961627 -1.20184,11.575771 -0.78763,1.498523 -0.90865,1.94411 -0.60647,2.233041 0.20763,0.198546 0.4791,0.349258 0.60325,0.33491 0.50752,-0.05864 2.51912,-4.579482 2.90728,-6.533797 0.35987,-1.811924 0.35236,-2.487016 -0.055,-4.951104 -0.53157,-3.21516 -1.25053,-4.837368 -3.33234,-7.518815 -0.71402,-0.919686 -1.25815,-1.725081 -1.20918,-1.789774 0.049,-0.06469 0.74061,0.01518 1.53701,0.177526 1.83535,0.374085 1.83368,0.374478 1.63971,-0.366232 -0.12968,-0.495232 -0.54418,-0.698226 -2.05364,-1.005783 -1.04016,-0.211926 -2.24751,-0.426438 -2.68301,-0.476659 l -0.79183,-0.09135 0.33537,2.902368 c 0.18443,1.596294 0.42917,2.976756 0.54384,3.067654 z"
       id="path7098-5-3"
       inkscape:connector-curvature="0"
       inkscape:export-xdpi="89"
       inkscape:export-ydpi="89" />
  </g>
</svg>
