<?xml version="1.0" encoding="UTF-8" standalone="no"?>
<!-- Created with Inkscape (http://www.inkscape.org/) -->

<svg
   xmlns:dc="http://purl.org/dc/elements/1.1/"
   xmlns:cc="http://creativecommons.org/ns#"
   xmlns:rdf="http://www.w3.org/1999/02/22-rdf-syntax-ns#"
   xmlns:svg="http://www.w3.org/2000/svg"
   xmlns="http://www.w3.org/2000/svg"
   xmlns:sodipodi="http://sodipodi.sourceforge.net/DTD/sodipodi-0.dtd"
   xmlns:inkscape="http://www.inkscape.org/namespaces/inkscape"
   width="4.3487177mm"
   height="3.9463158mm"
   viewBox="0 0 15.408842 13.983008"
   id="svg8824"
   version="1.1"
   inkscape:version="0.91 r13725"
   sodipodi:docname="fleur_verte.svg">
  <defs
     id="defs8826" />
  <sodipodi:namedview
     id="base"
     pagecolor="#ffffff"
     bordercolor="#666666"
     borderopacity="1.0"
     inkscape:pageopacity="0.0"
     inkscape:pageshadow="2"
     inkscape:zoom="0.35"
     inkscape:cx="-596.37491"
     inkscape:cy="392.48402"
     inkscape:document-units="px"
     inkscape:current-layer="layer1"
     showgrid="false"
     fit-margin-top="0"
     fit-margin-left="0"
     fit-margin-right="0"
     fit-margin-bottom="0"
     inkscape:window-width="1366"
     inkscape:window-height="712"
     inkscape:window-x="0"
     inkscape:window-y="0"
     inkscape:window-maximized="1" />
  <metadata
     id="metadata8829">
    <rdf:RDF>
      <cc:Work
         rdf:about="">
        <dc:format>image/svg+xml</dc:format>
        <dc:type
           rdf:resource="http://purl.org/dc/dcmitype/StillImage" />
        <dc:title></dc:title>
      </cc:Work>
    </rdf:RDF>
  </metadata>
  <g
     inkscape:label="Calque 1"
     inkscape:groupmode="layer"
     id="layer1"
     transform="translate(-194.23205,-910.86321)">
    <path
       style="fill:#dde9af;fill-opacity:1"
       d="m 198.69736,924.79263 c -0.5035,-0.11567 -0.9732,-0.42547 -1.2348,-0.81452 -0.3005,-0.44684 -0.3848,-0.79879 -0.3392,-1.41319 0.076,-1.0333 0.8766,-2.17505 2.1405,-3.05594 0.6751,-0.47049 0.6818,-0.48493 0.1033,-0.2224 -1.1011,0.4995 -1.9768,0.70063 -2.8307,0.65037 -1.3403,-0.079 -2.1544,-0.76173 -2.2907,-1.92129 -0.1685,-1.43329 1.237,-2.46025 3.0617,-2.23731 0.5632,0.0688 1.5192,0.3651 2.0565,0.63735 0.188,0.0953 0.361,0.17324 0.3845,0.17324 0.024,0 -0.1996,-0.17989 -0.4955,-0.39969 -1.4733,-1.09458 -2.3596,-2.6072 -2.1585,-3.68376 0.076,-0.4094 0.3616,-0.87202 0.7165,-1.1629 0.6817,-0.55862 1.3179,-0.62456 2.1341,-0.22116 1.0864,0.53692 1.6871,1.65151 1.9063,3.53741 l 0.084,0.72761 0.09,-0.72035 c 0.1769,-1.41824 0.5653,-2.38688 1.23,-3.06755 0.8867,-0.90828 2.0917,-0.95898 2.9536,-0.12438 0.456,0.44149 0.6092,0.90731 0.5512,1.6756 -0.079,1.03785 -0.8764,2.17763 -2.1414,3.05938 -0.6348,0.44235 -0.6865,0.49741 -0.2747,0.29196 1.8106,-0.90312 3.6707,-0.96126 4.6249,-0.14453 0.3633,0.31095 0.5362,0.64791 0.6373,1.24154 0.1575,0.92489 -0.221,1.59714 -1.1605,2.06118 l -0.5249,0.2594 -0.8959,0 c -0.8272,0 -0.9445,-0.0184 -1.5291,-0.22117 -0.3482,-0.1207 -0.827,-0.31625 -1.0641,-0.43454 -0.493,-0.24613 -0.4837,-0.23422 0.2385,0.30739 1.6498,1.23739 2.4135,2.74356 1.9769,3.89969 -0.1964,0.52009 -0.6566,1.02396 -1.1155,1.22134 -0.3027,0.13023 -0.4404,0.14934 -0.8525,0.11818 -1.1839,-0.0895 -2.0317,-0.93902 -2.3991,-2.4039 l -0.1172,-0.46706 -0.2389,0.0209 c -0.2346,0.0203 -0.2422,0.0308 -0.39,0.53565 -0.2061,0.70432 -0.4696,1.19116 -0.8795,1.62453 -0.5773,0.61043 -1.2412,0.83928 -1.9574,0.67483 z m 3.7589,-6.09257 c 0.6983,-0.47663 0.6027,-1.44148 -0.1721,-1.7373 -0.3779,-0.14437 -0.7328,-0.0682 -1.02,0.21907 -0.2873,0.28736 -0.3634,0.64207 -0.2192,1.02008 0.229,0.59918 0.9108,0.83984 1.4113,0.49815 z"
       id="path4740-7-5-0-4-1"
       inkscape:connector-curvature="0" />
  </g>
</svg>
