<?xml version="1.0" encoding="UTF-8" standalone="no"?>
<!-- Created with Inkscape (http://www.inkscape.org/) -->

<svg
   xmlns:dc="http://purl.org/dc/elements/1.1/"
   xmlns:cc="http://creativecommons.org/ns#"
   xmlns:rdf="http://www.w3.org/1999/02/22-rdf-syntax-ns#"
   xmlns:svg="http://www.w3.org/2000/svg"
   xmlns="http://www.w3.org/2000/svg"
   xmlns:sodipodi="http://sodipodi.sourceforge.net/DTD/sodipodi-0.dtd"
   xmlns:inkscape="http://www.inkscape.org/namespaces/inkscape"
   width="5.9737782mm"
   height="5.4211278mm"
   viewBox="0 0 21.16693 19.20872"
   id="svg8824"
   version="1.1"
   inkscape:version="0.91 r13725"
   sodipodi:docname="fleur_rouge.svg">
  <defs
     id="defs8826" />
  <sodipodi:namedview
     id="base"
     pagecolor="#ffffff"
     bordercolor="#666666"
     borderopacity="1.0"
     inkscape:pageopacity="0.0"
     inkscape:pageshadow="2"
     inkscape:zoom="5.6"
     inkscape:cx="-31.052983"
     inkscape:cy="-19.827159"
     inkscape:document-units="px"
     inkscape:current-layer="layer1"
     showgrid="false"
     fit-margin-top="0"
     fit-margin-left="0"
     fit-margin-right="0"
     fit-margin-bottom="0"
     inkscape:window-width="1366"
     inkscape:window-height="712"
     inkscape:window-x="0"
     inkscape:window-y="0"
     inkscape:window-maximized="1" />
  <metadata
     id="metadata8829">
    <rdf:RDF>
      <cc:Work
         rdf:about="">
        <dc:format>image/svg+xml</dc:format>
        <dc:type
           rdf:resource="http://purl.org/dc/dcmitype/StillImage" />
        <dc:title></dc:title>
      </cc:Work>
    </rdf:RDF>
  </metadata>
  <g
     inkscape:label="Calque 1"
     inkscape:groupmode="layer"
     id="layer1"
     transform="translate(255.20638,-132.58397)">
    <path
       style="fill:#a62016;fill-opacity:1"
       d="m -249.07219,151.71871 c -0.69162,-0.15881 -1.33695,-0.58448 -1.69613,-1.11883 -0.41256,-0.6138 -0.52877,-1.09741 -0.46587,-1.94131 0.10524,-1.41947 1.20411,-2.98798 2.94017,-4.19791 0.92728,-0.64628 0.93653,-0.66625 0.14148,-0.30553 -1.51262,0.68613 -2.71528,0.96243 -3.88835,0.89344 -1.84121,-0.10794 -2.95935,-1.0465 -3.14669,-2.63934 -0.23123,-1.96883 1.69919,-3.37964 4.20587,-3.07325 0.77345,0.0947 2.08683,0.50144 2.8248,0.87544 0.25831,0.13052 0.49596,0.2379 0.52809,0.2379 0.0317,0 -0.27415,-0.24707 -0.68064,-0.549 -2.02375,-1.50364 -3.2413,-3.58155 -2.965,-5.06033 0.10524,-0.56245 0.49672,-1.19801 0.98419,-1.59755 0.93646,-0.76737 1.81036,-0.85779 2.93159,-0.3039 1.49232,0.73772 2.31754,2.26877 2.6186,4.85945 l 0.11587,0.99953 0.12392,-0.98952 c 0.24306,-1.94816 0.77654,-3.27884 1.68935,-4.21384 1.21807,-1.24773 2.87322,-1.3174 4.05727,-0.17089 0.62639,0.60642 0.83687,1.24636 0.75709,2.30176 -0.10794,1.42564 -1.20368,2.99132 -2.94154,4.20262 -0.87184,0.60763 -0.94296,0.68331 -0.37716,0.40109 2.48696,-1.2407 5.04215,-1.32048 6.35278,-0.19856 0.49904,0.42721 0.7366,0.88991 0.87544,1.70553 0.21648,1.27044 -0.30364,2.19396 -1.59404,2.83132 l -0.72119,0.35634 -1.2305,0 c -1.13622,0 -1.29716,-0.0249 -2.10028,-0.30372 -0.47838,-0.16575 -1.13631,-0.43442 -1.46189,-0.59683 -0.67704,-0.33825 -0.66435,-0.32189 0.32772,0.422 2.2662,1.69988 3.31527,3.76889 2.71544,5.35701 -0.2696,0.7145 -0.90183,1.40662 -1.53225,1.67778 -0.41581,0.17894 -0.60497,0.20526 -1.17093,0.16241 -1.62627,-0.12255 -2.79078,-1.2899 -3.29556,-3.30216 l -0.16086,-0.64165 -0.32841,0.0291 c -0.32206,0.0283 -0.33261,0.0429 -0.53538,0.73566 -0.28324,0.96766 -0.64533,1.6363 -1.20821,2.23175 -0.79316,0.8385 -1.70503,1.15294 -2.68879,0.92694 z m 5.16359,-8.36934 c 0.95908,-0.65476 0.82787,-1.98013 -0.23654,-2.38644 -0.51918,-0.1984 -1.00648,-0.0933 -1.40114,0.30098 -0.39456,0.39475 -0.49921,0.88196 -0.30106,1.40121 0.31444,0.82308 1.25098,1.15364 1.93874,0.68425 z"
       id="path4740-7-8-4"
       inkscape:connector-curvature="0"
       inkscape:export-xdpi="89"
       inkscape:export-ydpi="89" />
  </g>
</svg>
