<?xml version="1.0" encoding="UTF-8" standalone="no"?>
<!-- Created with Inkscape (http://www.inkscape.org/) -->

<svg
   xmlns:dc="http://purl.org/dc/elements/1.1/"
   xmlns:cc="http://creativecommons.org/ns#"
   xmlns:rdf="http://www.w3.org/1999/02/22-rdf-syntax-ns#"
   xmlns:svg="http://www.w3.org/2000/svg"
   xmlns="http://www.w3.org/2000/svg"
   xmlns:sodipodi="http://sodipodi.sourceforge.net/DTD/sodipodi-0.dtd"
   xmlns:inkscape="http://www.inkscape.org/namespaces/inkscape"
   width="7.8514924mm"
   height="7.8513789mm"
   viewBox="0 0 7.8514923 7.8513797"
   version="1.1"
   id="svg6592"
   inkscape:version="0.92.1 r15371"
   sodipodi:docname="icon_mail.svg">
  <defs
     id="defs6586">
    <clipPath
       clipPathUnits="userSpaceOnUse"
       id="clipPath5797">
      <path
         style="fill:#556242;fill-opacity:1;stroke-width:0.9375"
         d="m 1935.1662,-275.25276 c -5.6528,-3.06717 -5.4024,1.29677 -5.4024,-94.15747 0,-95.81549 -0.276,-91.1672 5.5943,-94.20288 2.4004,-1.24128 13.8487,-1.42212 90.0307,-1.42212 76.182,0 87.6303,0.18084 90.0307,1.42212 5.8703,3.03568 5.5943,-1.61261 5.5943,94.20288 0,95.8155 0.276,91.16723 -5.5943,94.2029 -2.2593,1.16833 -7.2756,1.42212 -28.1091,1.42212 h -25.3591 l -30.4687,3.3e-4 -46.875,-0.0376 c -39.6332,-0.0319 -47.2715,-0.25274 -49.4414,-1.43011 z"
         id="path5799"
         inkscape:connector-curvature="0"
         sodipodi:nodetypes="cscscscsccccc" />
    </clipPath>
    <clipPath
       clipPathUnits="userSpaceOnUse"
       id="clipPath5797-6">
      <path
         style="fill:#556242;fill-opacity:1;stroke-width:0.9375"
         d="m 1935.1662,-275.25276 c -5.6528,-3.06717 -5.4024,1.29677 -5.4024,-94.15747 0,-95.81549 -0.276,-91.1672 5.5943,-94.20288 2.4004,-1.24128 13.8487,-1.42212 90.0307,-1.42212 76.182,0 87.6303,0.18084 90.0307,1.42212 5.8703,3.03568 5.5943,-1.61261 5.5943,94.20288 0,95.8155 0.276,91.16723 -5.5943,94.2029 -2.2593,1.16833 -7.2756,1.42212 -28.1091,1.42212 h -25.3591 l -30.4687,3.3e-4 -46.875,-0.0376 c -39.6332,-0.0319 -47.2715,-0.25274 -49.4414,-1.43011 z"
         id="path5799-7"
         inkscape:connector-curvature="0"
         sodipodi:nodetypes="cscscscsccccc" />
    </clipPath>
  </defs>
  <sodipodi:namedview
     id="base"
     pagecolor="#ffffff"
     bordercolor="#666666"
     borderopacity="1.0"
     inkscape:pageopacity="0.0"
     inkscape:pageshadow="2"
     inkscape:zoom="0.35"
     inkscape:cx="-31.430623"
     inkscape:cy="295.71065"
     inkscape:document-units="mm"
     inkscape:current-layer="layer1"
     showgrid="false"
     fit-margin-top="0"
     fit-margin-left="0"
     fit-margin-right="0"
     fit-margin-bottom="0"
     inkscape:window-width="1920"
     inkscape:window-height="1013"
     inkscape:window-x="-9"
     inkscape:window-y="-9"
     inkscape:window-maximized="1" />
  <metadata
     id="metadata6589">
    <rdf:RDF>
      <cc:Work
         rdf:about="">
        <dc:format>image/svg+xml</dc:format>
        <dc:type
           rdf:resource="http://purl.org/dc/dcmitype/StillImage" />
        <dc:title></dc:title>
      </cc:Work>
    </rdf:RDF>
  </metadata>
  <g
     inkscape:label="Calque 1"
     inkscape:groupmode="layer"
     id="layer1"
     transform="translate(52.538146,-219.22206)">
    <g
       id="g7230"
       transform="matrix(0.14599136,0,0,0.14599216,-382.33925,51.285377)">
      <path
         sodipodi:nodetypes="cscscscsccccc"
         inkscape:connector-curvature="0"
         id="path5178-3-0"
         d="m 2260.5652,1203.6796 c -1.5896,-0.8624 -1.5192,0.3647 -1.5192,-26.4769 0,-26.9433 -0.078,-25.6362 1.5731,-26.4898 0.675,-0.3491 3.8943,-0.3999 25.3166,-0.3999 21.4223,0 24.6415,0.051 25.3165,0.3999 1.6508,0.8536 1.5731,-0.4535 1.5731,26.4898 0,26.9432 0.078,25.6361 -1.5731,26.4897 -0.6353,0.3285 -2.0459,0.3999 -7.9042,0.3999 h -7.131 l -8.5677,10e-5 -13.1812,-0.011 c -11.1449,-0.01 -13.2927,-0.071 -13.9029,-0.4021 z"
         style="fill:#fedb36;fill-opacity:1;stroke-width:0.2636241" />
      <path
         transform="matrix(0.28119904,0,0,0.28119904,1716.3982,1281.0805)"
         clip-path="url(#clipPath5797-6)"
         inkscape:connector-curvature="0"
         id="path5767-3"
         d="m 1918.1872,-353.64822 c 0.018,-0.0957 14.8693,-24.78077 33.005,-54.85475 l 32.9734,-54.68025 72.6919,43.7433 72.692,43.74335 -33.047,54.86824 -33.0469,54.86828 -72.65,-43.75683 c -58.0155,-34.94249 -72.6436,-43.79194 -72.6183,-43.93123 z m 134.1369,67.05834 c 0.044,-0.21116 -13.8321,-59.08816 -13.9453,-59.1706 -0.057,-0.0413 -3.0474,0.64487 -6.6463,1.5247 -4.6246,1.13064 -6.8925,1.61448 -7.7345,1.64994 -7.1632,0.30196 -14.0589,-3.27085 -17.8752,-9.26148 -1.5586,-2.44671 -1.7747,-3.07488 -3.5236,-10.24223 l -1.6341,-6.6968 -28.9744,7.51878 c -15.9359,4.13532 -29.3434,7.62744 -29.7943,7.7603 l -0.8198,0.24153 55.4601,33.40344 c 35.0636,21.11867 55.4701,33.35523 55.4874,33.27242 z m -109.7143,-79.28528 c 11.8539,-3.00304 55.4947,-14.40177 55.5111,-14.4991 0.02,-0.12003 -14.2273,-59.10299 -14.304,-59.21722 -0.024,-0.0357 -10.1733,16.75326 -22.5539,37.30895 -12.3806,20.55568 -22.5016,37.37914 -22.5016,37.37914 0.01,0.005 1.7362,-0.4346 3.8508,-0.97032 z m 154.6136,20.91051 11.1151,-18.52034 -29.1599,7.33619 c -16.038,4.03491 -29.1762,7.40867 -29.196,7.49736 -0.02,0.0888 3.0881,13.41368 6.9066,29.61121 l 6.9427,29.45006 11.1382,-18.42707 c 6.1263,-10.13473 16.1403,-26.76106 22.2533,-36.94741 z m -77.0117,-9.96967 c 0.6389,0.24472 1.4422,0.42126 2.2004,0.48364 l 1.1941,0.0982 41.64,-10.49192 41.64,-10.49192 -27.7962,-16.78056 c -15.2879,-9.22934 -40.3937,-24.35045 -55.7905,-33.60244 l -27.9944,-16.82188 9.6635,40.03279 c 5.3149,22.01807 9.8444,40.73847 10.0656,41.60096 0.4335,1.69089 0.7981,2.47671 1.5979,3.4444 0.9731,1.17741 2.0645,1.94838 3.5796,2.52872 z"
         style="fill:#ffffff;stroke-width:0.13261215" />
    </g>
  </g>
</svg>
