<?xml version="1.0" encoding="UTF-8" standalone="no"?>
<!-- Created with Inkscape (http://www.inkscape.org/) -->

<svg
   xmlns:dc="http://purl.org/dc/elements/1.1/"
   xmlns:cc="http://creativecommons.org/ns#"
   xmlns:rdf="http://www.w3.org/1999/02/22-rdf-syntax-ns#"
   xmlns:svg="http://www.w3.org/2000/svg"
   xmlns="http://www.w3.org/2000/svg"
   xmlns:sodipodi="http://sodipodi.sourceforge.net/DTD/sodipodi-0.dtd"
   xmlns:inkscape="http://www.inkscape.org/namespaces/inkscape"
   width="7.9044337mm"
   height="7.9042544mm"
   viewBox="0 0 7.9044336 7.9042552"
   version="1.1"
   id="svg6592"
   inkscape:version="0.92.1 r15371"
   sodipodi:docname="icon_facebook.svg">
  <defs
     id="defs6586">
    <clipPath
       clipPathUnits="userSpaceOnUse"
       id="clipPath5797">
      <path
         style="fill:#556242;fill-opacity:1;stroke-width:0.9375"
         d="m 1935.1662,-275.25276 c -5.6528,-3.06717 -5.4024,1.29677 -5.4024,-94.15747 0,-95.81549 -0.276,-91.1672 5.5943,-94.20288 2.4004,-1.24128 13.8487,-1.42212 90.0307,-1.42212 76.182,0 87.6303,0.18084 90.0307,1.42212 5.8703,3.03568 5.5943,-1.61261 5.5943,94.20288 0,95.8155 0.276,91.16723 -5.5943,94.2029 -2.2593,1.16833 -7.2756,1.42212 -28.1091,1.42212 h -25.3591 l -30.4687,3.3e-4 -46.875,-0.0376 c -39.6332,-0.0319 -47.2715,-0.25274 -49.4414,-1.43011 z"
         id="path5799"
         inkscape:connector-curvature="0"
         sodipodi:nodetypes="cscscscsccccc" />
    </clipPath>
  </defs>
  <sodipodi:namedview
     id="base"
     pagecolor="#ffffff"
     bordercolor="#666666"
     borderopacity="1.0"
     inkscape:pageopacity="0.0"
     inkscape:pageshadow="2"
     inkscape:zoom="22.4"
     inkscape:cx="9.7871652"
     inkscape:cy="17.82827"
     inkscape:document-units="mm"
     inkscape:current-layer="layer1"
     showgrid="false"
     fit-margin-top="0"
     fit-margin-left="0"
     fit-margin-right="0"
     fit-margin-bottom="0"
     inkscape:window-width="1920"
     inkscape:window-height="1013"
     inkscape:window-x="-9"
     inkscape:window-y="-9"
     inkscape:window-maximized="1" />
  <metadata
     id="metadata6589">
    <rdf:RDF>
      <cc:Work
         rdf:about="">
        <dc:format>image/svg+xml</dc:format>
        <dc:type
           rdf:resource="http://purl.org/dc/dcmitype/StillImage" />
        <dc:title />
      </cc:Work>
    </rdf:RDF>
  </metadata>
  <g
     inkscape:label="Calque 1"
     inkscape:groupmode="layer"
     id="layer1"
     transform="translate(11.570732,-224.31492)">
    <path
       style="fill:#ffffff;fill-opacity:1;stroke:none;stroke-width:0.03602273;stroke-miterlimit:4;stroke-dasharray:none;stroke-opacity:1"
       d="m -8.630149,232.13873 c -0.1200019,-0.11286 -0.1146897,0.0477 -0.1146897,-3.46418 0,-3.52519 -0.00586,-3.35419 0.1187613,-3.46585 0.050961,-0.0457 0.2939842,-0.0523 1.9111683,-0.0523 1.617184,0 1.8602082,0.006 1.9111539,0.0523 0.1246277,0.11166 0.1187611,-0.0593 0.1187611,3.46585 0,3.52518 0.00584,3.35418 -0.1187611,3.46584 -0.047954,0.043 -0.1544422,0.0523 -0.5966811,0.0523 h -0.5383366 -0.6467802 l -0.9950521,-0.003 c -0.8413398,0 -1.0034726,-0.009 -1.0495438,-0.0526 z"
       id="path5178-3-1-6"
       inkscape:connector-curvature="0"
       sodipodi:nodetypes="cscscscsccccc" />
    <path
       style="fill:#3c5a99;fill-opacity:1;stroke-width:0.03848695"
       d="m -11.322386,232.13249 c -0.232072,-0.12592 -0.221799,0.0532 -0.221799,-3.86543 0,-3.9335 -0.01129,-3.74269 0.229673,-3.86731 0.09855,-0.051 0.568536,-0.0584 3.6960102,-0.0584 3.1274738,0 3.5974585,0.007 3.6959823,0.0584 0.2410178,0.12462 0.2296724,-0.0662 0.2296724,3.86731 0,3.93348 0.011289,3.74267 -0.2296724,3.8673 -0.092738,0.048 -0.2986758,0.0584 -1.153922,0.0584 h -1.0410896 v -1.52022 -1.52025 h 0.5195993 c 0.28575,0 0.5198251,-0.013 0.5201638,-0.0289 0,-0.0158 0.034967,-0.27082 0.07699,-0.56656 0.041995,-0.29574 0.076369,-0.55121 0.076369,-0.56769 0,-0.0164 -0.2684498,-0.03 -0.5965614,-0.03 h -0.5965613 v -0.44182 c 0,-0.76829 0.091948,-0.86673 0.8095544,-0.86673 h 0.4220352 v -0.55429 -0.55425 l -0.4522047,-0.0289 c -1.014984,-0.0648 -1.5943298,0.1837 -1.879205,0.80588 -0.110744,0.24192 -0.181102,0.79409 -0.1636606,1.28417 l 0.0127,0.35608 -0.5099756,-9e-5 -0.5099473,-8e-5 v 0.59543 0.59544 l 0.5013113,0.0107 0.5012831,0.0107 0.00847,1.5106 0.00875,1.51062 -1.9243323,-0.003 c -1.6270678,0 -1.9406158,-0.0104 -2.0297138,-0.0587 z"
       id="path5178-7"
       inkscape:connector-curvature="0" />
  </g>
</svg>
