<?xml version="1.0" encoding="UTF-8" standalone="no"?>
<!-- Created with Inkscape (http://www.inkscape.org/) -->

<svg
   xmlns:dc="http://purl.org/dc/elements/1.1/"
   xmlns:cc="http://creativecommons.org/ns#"
   xmlns:rdf="http://www.w3.org/1999/02/22-rdf-syntax-ns#"
   xmlns:svg="http://www.w3.org/2000/svg"
   xmlns="http://www.w3.org/2000/svg"
   xmlns:sodipodi="http://sodipodi.sourceforge.net/DTD/sodipodi-0.dtd"
   xmlns:inkscape="http://www.inkscape.org/namespaces/inkscape"
   width="7.8515048mm"
   height="7.8514099mm"
   viewBox="0 0 7.8515047 7.8514107"
   version="1.1"
   id="svg6592"
   inkscape:version="0.92.1 r15371"
   sodipodi:docname="icon_map.svg">
  <defs
     id="defs6586">
    <clipPath
       clipPathUnits="userSpaceOnUse"
       id="clipPath5797">
      <path
         style="fill:#556242;fill-opacity:1;stroke-width:0.9375"
         d="m 1935.1662,-275.25276 c -5.6528,-3.06717 -5.4024,1.29677 -5.4024,-94.15747 0,-95.81549 -0.276,-91.1672 5.5943,-94.20288 2.4004,-1.24128 13.8487,-1.42212 90.0307,-1.42212 76.182,0 87.6303,0.18084 90.0307,1.42212 5.8703,3.03568 5.5943,-1.61261 5.5943,94.20288 0,95.8155 0.276,91.16723 -5.5943,94.2029 -2.2593,1.16833 -7.2756,1.42212 -28.1091,1.42212 h -25.3591 l -30.4687,3.3e-4 -46.875,-0.0376 c -39.6332,-0.0319 -47.2715,-0.25274 -49.4414,-1.43011 z"
         id="path5799"
         inkscape:connector-curvature="0"
         sodipodi:nodetypes="cscscscsccccc" />
    </clipPath>
    <clipPath
       clipPathUnits="userSpaceOnUse"
       id="clipPath5797-6">
      <path
         style="fill:#556242;fill-opacity:1;stroke-width:0.9375"
         d="m 1935.1662,-275.25276 c -5.6528,-3.06717 -5.4024,1.29677 -5.4024,-94.15747 0,-95.81549 -0.276,-91.1672 5.5943,-94.20288 2.4004,-1.24128 13.8487,-1.42212 90.0307,-1.42212 76.182,0 87.6303,0.18084 90.0307,1.42212 5.8703,3.03568 5.5943,-1.61261 5.5943,94.20288 0,95.8155 0.276,91.16723 -5.5943,94.2029 -2.2593,1.16833 -7.2756,1.42212 -28.1091,1.42212 h -25.3591 l -30.4687,3.3e-4 -46.875,-0.0376 c -39.6332,-0.0319 -47.2715,-0.25274 -49.4414,-1.43011 z"
         id="path5799-7"
         inkscape:connector-curvature="0"
         sodipodi:nodetypes="cscscscsccccc" />
    </clipPath>
  </defs>
  <sodipodi:namedview
     id="base"
     pagecolor="#ffffff"
     bordercolor="#666666"
     borderopacity="1.0"
     inkscape:pageopacity="0.0"
     inkscape:pageshadow="2"
     inkscape:zoom="0.35"
     inkscape:cx="-216.59313"
     inkscape:cy="659.11937"
     inkscape:document-units="mm"
     inkscape:current-layer="layer1"
     showgrid="false"
     fit-margin-top="0"
     fit-margin-left="0"
     fit-margin-right="0"
     fit-margin-bottom="0"
     inkscape:window-width="1920"
     inkscape:window-height="1013"
     inkscape:window-x="-9"
     inkscape:window-y="-9"
     inkscape:window-maximized="1" />
  <metadata
     id="metadata6589">
    <rdf:RDF>
      <cc:Work
         rdf:about="">
        <dc:format>image/svg+xml</dc:format>
        <dc:type
           rdf:resource="http://purl.org/dc/dcmitype/StillImage" />
        <dc:title></dc:title>
      </cc:Work>
    </rdf:RDF>
  </metadata>
  <g
     inkscape:label="Calque 1"
     inkscape:groupmode="layer"
     id="layer1"
     transform="translate(3.5472318,-315.37392)">
    <path
       style="fill:#a62016;fill-opacity:1;stroke-width:0.03848696"
       d="m -3.3253789,323.16504 c -0.232043,-0.12593 -0.22177,0.0532 -0.22177,-3.86543 0,-3.9335 -0.01129,-3.74266 0.229644,-3.86729 0.09855,-0.051 0.568537,-0.0584 3.69601102,-0.0584 3.12750198,0 3.59745798,0.007 3.69600998,0.0584 0.241018,0.12463 0.229673,-0.0662 0.229673,3.86729 0,3.93348 0.01129,3.74266 -0.229673,3.86729 -0.09274,0.048 -0.298676,0.0584 -1.15395,0.0584 h -1.041061 l -1.25080898,3e-5 -1.92436102,-0.003 c -1.627067,-0.003 -1.940616,-0.0104 -2.029714,-0.0587 z"
       id="path5178-3-89-6"
       inkscape:connector-curvature="0"
       sodipodi:nodetypes="cscscscsccccc" />
    <path
       style="fill:#ffffff;fill-opacity:1;stroke-width:0.04688296"
       d="m -2.4406399,323.17435 c -0.02512,-0.0343 -0.03737,-0.49583 -0.03855,-1.47274 l -0.0062,-1.42229 0.431292,-1.19078 c 0.237264,-0.65487 0.436711,-1.19691 0.443287,-1.20438 0.02286,-0.0257 1.94326902,-0.94153 1.97688202,-0.94229 0.04761,-0.006 1.90480198,0.88748 1.96285498,0.93904 0.02596,0.0229 0.243417,0.57954 0.482967,1.23642 l 0.435554,1.19433 v 1.41097 c 0,1.04674 -0.01044,1.42277 -0.03976,1.45655 -0.02845,0.0325 -0.231056,0.0458 -0.699742,0.0458 h -0.659666 v -1.39856 c 0,-1.03719 -0.01044,-1.41043 -0.03974,-1.44424 -0.05726,-0.0656 -2.79462098,-0.0656 -2.85211,0 -0.02941,0.0337 -0.03974,0.40705 -0.03974,1.44424 v 1.39856 h -0.662319 c -0.509722,0 -0.670729,-0.0119 -0.69898,-0.0506 z m 3.707863,-3.65785 c 0.04341,-0.0494 0.05241,-0.16736 0.05241,-0.68662 0,-0.35941 -0.01468,-0.6582 -0.03435,-0.70036 -0.03251,-0.0698 -0.07835,-0.0735 -0.89842698,-0.0735 -0.820053,0 -0.865716,0.006 -0.898454,0.0735 -0.01976,0.0422 -0.03432,0.34095 -0.03432,0.70036 0,0.51926 0.009,0.63718 0.05241,0.68662 0.07849,0.0896 1.68263698,0.0896 1.76115198,0 z m -1.55738698,-0.23089 c -0.0127,-0.0144 -0.02286,-0.23706 -0.02286,-0.49487 v -0.46869 h 0.700645 0.70070198 l -0.009,0.48455 -0.009,0.48457 -0.66852798,0.0105 c -0.367622,0.006 -0.678744,-0.006 -0.691359,-0.0155 z m -0.422684,3.92272 c 0,-0.0361 1.064034,-1.12369 1.09951,-1.12369 0.03497,0 1.09950898,1.08932 1.09950898,1.12485 0,0.008 -0.49476298,0.0158 -1.09950898,0.0158 -0.604774,0 -1.09951,-0.007 -1.09951,-0.0161 z m -0.133293,-1.35139 v -1.07876 l 0.09164,0.0954 c 0.0506,0.0524 0.279062,0.28948 0.50817,0.52683 0.228995,0.23732 0.416418,0.44252 0.416418,0.45607 0,0.0138 -0.179916,0.21014 -0.399767,0.43682 -0.219964,0.22665 -0.448593,0.46392 -0.508113,0.52725 l -0.108345,0.11506 z m 1.94919598,0.54257 c -0.27488498,-0.28355 -0.49984398,-0.52899 -0.49984398,-0.54553 0,-0.0161 0.224959,-0.26137 0.49984398,-0.54407 l 0.499702,-0.51418 0.0096,0.53041 c 0.0062,0.29176 0.0062,0.7686 0,1.05966 l -0.0096,0.52916 z m -1.23455298,-1.27454 -0.48847,-0.50357 0.503315,-0.011 c 0.27686,-0.006 0.729826,-0.006 1.006602,0 l 0.50331498,0.011 -0.48838598,0.50357 c -0.268562,0.27697 -0.501791,0.5036 -0.518216,0.5036 -0.01609,0 -0.249598,-0.22663 -0.51816,-0.5036 z M -2.9229299,320.273 c -0.01185,-0.0138 -0.0223,-0.0482 -0.0223,-0.0762 0,-0.0285 0.203398,-0.61948 0.452036,-1.31439 0.356192,-0.99557 0.474528,-1.28781 0.558122,-1.37838 0.127113,-0.13772 2.16340302,-1.12028 2.32167302,-1.12028 0.159343,0 2.19509698,0.98278 2.32065698,1.12028 0.08145,0.0892 0.206756,0.39813 0.559957,1.38013 0.298225,0.82933 0.447774,1.29082 0.434199,1.3397 -0.02371,0.0846 -0.155899,0.10197 -0.207179,0.0271 -0.01806,-0.026 -0.231055,-0.59479 -0.473879,-1.26374 -0.24274,-0.66886 -0.46609,-1.24553 -0.496373,-1.28143 -0.07219,-0.0858 -2.02931898,-1.01769 -2.13746598,-1.01783 -0.126125,0 -2.13774902,0.97121 -2.17923602,1.05226 -0.01947,0.038 -0.230406,0.60768 -0.46894,1.26631 -0.238506,0.65856 -0.44577,1.21869 -0.460643,1.24465 -0.02845,0.05 -0.163153,0.0647 -0.200688,0.0217 z"
       id="path7253-4-3-5-2-7-6"
       inkscape:connector-curvature="0" />
  </g>
</svg>
