<?xml version="1.0" encoding="UTF-8" standalone="no"?>
<!-- Created with Inkscape (http://www.inkscape.org/) -->

<svg
   xmlns:dc="http://purl.org/dc/elements/1.1/"
   xmlns:cc="http://creativecommons.org/ns#"
   xmlns:rdf="http://www.w3.org/1999/02/22-rdf-syntax-ns#"
   xmlns:svg="http://www.w3.org/2000/svg"
   xmlns="http://www.w3.org/2000/svg"
   xmlns:sodipodi="http://sodipodi.sourceforge.net/DTD/sodipodi-0.dtd"
   xmlns:inkscape="http://www.inkscape.org/namespaces/inkscape"
   width="5.8205504mm"
   height="5.2916846mm"
   viewBox="0 0 20.623998 18.750063"
   id="svg8967"
   version="1.1"
   inkscape:version="0.91 r13725"
   sodipodi:docname="monpanier.svg">
  <defs
     id="defs8969" />
  <sodipodi:namedview
     id="base"
     pagecolor="#ffffff"
     bordercolor="#666666"
     borderopacity="1.0"
     inkscape:pageopacity="0.0"
     inkscape:pageshadow="2"
     inkscape:zoom="5.6"
     inkscape:cx="-25.314018"
     inkscape:cy="18.638917"
     inkscape:document-units="px"
     inkscape:current-layer="layer1"
     showgrid="false"
     fit-margin-top="0"
     fit-margin-left="0"
     fit-margin-right="0"
     fit-margin-bottom="0"
     inkscape:window-width="1366"
     inkscape:window-height="712"
     inkscape:window-x="0"
     inkscape:window-y="0"
     inkscape:window-maximized="1" />
  <metadata
     id="metadata8972">
    <rdf:RDF>
      <cc:Work
         rdf:about="">
        <dc:format>image/svg+xml</dc:format>
        <dc:type
           rdf:resource="http://purl.org/dc/dcmitype/StillImage" />
        <dc:title></dc:title>
      </cc:Work>
    </rdf:RDF>
  </metadata>
  <g
     inkscape:label="Calque 1"
     inkscape:groupmode="layer"
     id="layer1"
     transform="translate(541.88635,-349.34073)">
    <path
       style="fill:#7c8f60;fill-opacity:1"
       d="m -537.2554,367.91311 c -1.35212,-0.56853 -2.44311,-3.20253 -2.92669,-7.06589 l -0.20611,-1.64653 -0.50748,-0.0495 c -0.91328,-0.0892 -1.32544,-1.27779 -0.67026,-1.93297 0.28201,-0.28196 0.52868,-0.3172 2.22047,-0.3172 1.89538,0 1.9032,0.002 1.9032,0.37511 0,0.61032 0.57916,1.21168 1.16134,1.20589 0.57417,-0.006 1.29836,-0.56252 1.53249,-1.17821 l 0.15311,-0.40279 3.02126,0 c 2.98712,0 3.02283,0.004 3.15734,0.35685 0.23387,0.61352 0.97062,1.22916 1.47104,1.22916 0.57656,0 1.23995,-0.63253 1.23995,-1.1823 l 0,-0.40371 1.90326,0 c 1.69172,0 1.93846,0.0353 2.22041,0.3172 0.65316,0.6532 0.2432,1.84344 -0.66585,1.93297 l -0.50306,0.0495 -0.27312,1.90321 c -0.43549,3.03425 -0.98166,4.7972 -1.83115,5.91098 -0.83542,1.09529 -0.65953,1.06662 -6.59637,1.07546 -3.74873,0.006 -5.49591,-0.0478 -5.80378,-0.17723 z m 1.78428,-1.5867 c 0.13708,-0.13708 0.24926,-0.37418 0.24926,-0.52691 0,-0.73179 -1.09945,-5.62511 -1.31149,-5.83718 -0.29671,-0.29668 -0.85637,-0.14627 -0.98696,0.26525 -0.12492,0.39366 0.84558,5.5346 1.13106,5.99122 0.26169,0.41861 0.57089,0.45486 0.91813,0.10762 z m 8.55912,0.0432 c 0.20611,-0.15075 0.42755,-0.94842 0.82539,-2.97378 0.29897,-1.52227 0.50565,-2.92835 0.45922,-3.12462 -0.1065,-0.4503 -0.9423,-0.50746 -1.15964,-0.0793 -0.0775,0.15265 -0.37582,1.47566 -0.66287,2.94 -0.41929,2.13891 -0.48692,2.73925 -0.34389,3.05307 0.19872,0.43614 0.46225,0.49132 0.88179,0.18463 z m -4.27685,-0.20183 c 0.20889,-0.20892 0.2492,-0.73202 0.2492,-3.23376 0,-2.61174 -0.0347,-3.02754 -0.27891,-3.32899 -0.32914,-0.40647 -0.75556,-0.31029 -0.89278,0.20135 -0.0511,0.19024 -0.0937,1.68053 -0.0949,3.31177 0,2.65872 0.0265,2.98264 0.27539,3.12755 0.37607,0.21906 0.45317,0.21097 0.74205,-0.0779 z m -5.58733,-8.34696 c -0.10466,-0.10467 -0.19027,-0.41509 -0.19027,-0.68983 0,-0.47235 2.44499,-6.56364 2.93444,-7.31063 0.28768,-0.43904 0.76867,-0.59869 1.16493,-0.38664 0.67032,0.35874 0.57248,0.8177 -0.9575,4.49182 -0.80602,1.93567 -1.59286,3.6468 -1.74863,3.80251 -0.32502,0.32508 -0.92443,0.37131 -1.20297,0.0928 z m 9.09676,-0.16226 c -0.13582,-0.19392 -0.57543,-1.13958 -0.97698,-2.10147 -0.4015,-0.96188 -1.01952,-2.42689 -1.37326,-3.25559 -0.85877,-2.01155 -0.86331,-2.66607 -0.0202,-2.91996 0.62407,-0.18791 0.9898,0.39053 2.44387,3.86483 1.38946,3.31973 1.62302,4.18551 1.23407,4.57445 -0.3155,0.31551 -1.03547,0.22617 -1.30757,-0.16226 z"
       id="path6282-0-5-9-2"
       inkscape:connector-curvature="0"
       sodipodi:nodetypes="sscsssssscsssscssscssssssssssssssssssssssssssssssssssssss"
       inkscape:export-xdpi="89"
       inkscape:export-ydpi="89"
       inkscape:export-filename="/home/emma/Site/images/monpanier.png" />
  </g>
</svg>
