<?xml version="1.0" encoding="UTF-8" standalone="no"?>
<!-- Created with Inkscape (http://www.inkscape.org/) -->

<svg
   xmlns:dc="http://purl.org/dc/elements/1.1/"
   xmlns:cc="http://creativecommons.org/ns#"
   xmlns:rdf="http://www.w3.org/1999/02/22-rdf-syntax-ns#"
   xmlns:svg="http://www.w3.org/2000/svg"
   xmlns="http://www.w3.org/2000/svg"
   xmlns:sodipodi="http://sodipodi.sourceforge.net/DTD/sodipodi-0.dtd"
   xmlns:inkscape="http://www.inkscape.org/namespaces/inkscape"
   width="282.50446mm"
   height="87.906845mm"
   viewBox="0 0 1001 311.48095"
   id="svg10454"
   version="1.1"
   inkscape:version="0.91 r13725"
   sodipodi:docname="pied_page.svg">
  <defs
     id="defs10456">
    <clipPath
       clipPathUnits="userSpaceOnUse"
       id="clipPath11016">
      <rect
         style="color:#000000;clip-rule:nonzero;display:inline;overflow:visible;visibility:visible;opacity:1;isolation:auto;mix-blend-mode:normal;color-interpolation:sRGB;color-interpolation-filters:linearRGB;solid-color:#000000;solid-opacity:1;fill:#546141;fill-opacity:1;fill-rule:nonzero;stroke:none;stroke-width:1px;stroke-linecap:butt;stroke-linejoin:miter;stroke-miterlimit:4;stroke-dasharray:none;stroke-dashoffset:0;stroke-opacity:1;marker:none;color-rendering:auto;image-rendering:auto;shape-rendering:auto;text-rendering:auto;enable-background:accumulate"
         id="rect11018"
         width="1001"
         height="300"
         x="-686.21429"
         y="287.16287" />
    </clipPath>
    <clipPath
       clipPathUnits="userSpaceOnUse"
       id="clipPath7343">
      <rect
         style="color:#000000;clip-rule:nonzero;display:inline;overflow:visible;visibility:visible;opacity:1;isolation:auto;mix-blend-mode:normal;color-interpolation:sRGB;color-interpolation-filters:linearRGB;solid-color:#000000;solid-opacity:1;fill:#dde9af;fill-opacity:1;fill-rule:nonzero;stroke:#000000;stroke-width:1.69119406px;stroke-linecap:butt;stroke-linejoin:miter;stroke-miterlimit:4;stroke-dasharray:none;stroke-dashoffset:0;stroke-opacity:1;marker:none;color-rendering:auto;image-rendering:auto;shape-rendering:auto;text-rendering:auto;enable-background:accumulate"
         id="rect7345"
         width="1350.7373"
         height="1270.7374"
         x="-321.79727"
         y="-112.29221" />
    </clipPath>
  </defs>
  <sodipodi:namedview
     id="base"
     pagecolor="#ffffff"
     bordercolor="#666666"
     borderopacity="1.0"
     inkscape:pageopacity="0.0"
     inkscape:pageshadow="2"
     inkscape:zoom="0.49497475"
     inkscape:cx="381.32935"
     inkscape:cy="227.88614"
     inkscape:document-units="px"
     inkscape:current-layer="layer1"
     showgrid="false"
     fit-margin-top="0"
     fit-margin-left="0"
     fit-margin-right="0"
     fit-margin-bottom="0"
     inkscape:window-width="1366"
     inkscape:window-height="712"
     inkscape:window-x="0"
     inkscape:window-y="0"
     inkscape:window-maximized="1" />
  <metadata
     id="metadata10459">
    <rdf:RDF>
      <cc:Work
         rdf:about="">
        <dc:format>image/svg+xml</dc:format>
        <dc:type
           rdf:resource="http://purl.org/dc/dcmitype/StillImage" />
        <dc:title></dc:title>
      </cc:Work>
    </rdf:RDF>
  </metadata>
  <g
     inkscape:label="Calque 1"
     inkscape:groupmode="layer"
     id="layer1"
     transform="translate(466.94621,-499.15091)">
    <g
       id="g11107">
      <rect
         inkscape:export-ydpi="89"
         inkscape:export-xdpi="89"
         y="735.61993"
         x="-466.94623"
         height="75.011925"
         width="1001"
         id="rect6954"
         style="color:#000000;clip-rule:nonzero;display:inline;overflow:visible;visibility:visible;opacity:1;isolation:auto;mix-blend-mode:normal;color-interpolation:sRGB;color-interpolation-filters:linearRGB;solid-color:#000000;solid-opacity:1;fill:#556242;fill-opacity:1;fill-rule:nonzero;stroke:none;stroke-width:1px;stroke-linecap:butt;stroke-linejoin:miter;stroke-miterlimit:4;stroke-dasharray:none;stroke-dashoffset:0;stroke-opacity:1;marker:none;color-rendering:auto;image-rendering:auto;shape-rendering:auto;text-rendering:auto;enable-background:accumulate" />
      <g
         id="g10439"
         transform="translate(-320.01761,-397.80181)">
        <path
           style="fill:#556242;fill-opacity:1"
           d="m -146.59697,1118.6413 c 0.23936,-18.1689 1.09446,-24.7144 3.07377,-23.5284 1.79243,1.0739 1.72543,0.3862 -0.19345,-1.986 -2.32641,-2.8758 -2.20109,-6.8294 0.60388,-19.0516 l 3.53947,-15.4229 -1.35999,13.1504 c -1.49767,14.4813 1.08244,14.9304 3.848,0.6695 l 1.74969,-9.0221 0.53869,11.9944 0.53872,11.9943 2.19029,-10.7949 c 1.39568,-6.8788 1.30033,-14.4439 -0.26285,-20.8529 -1.34922,-5.5321 -2.31843,-14.168 -2.15385,-19.191 0.26601,-8.1176 0.50573,-7.7153 2.15596,3.618 2.37071,16.2811 3.70936,17.4554 5.70095,5.0007 0.87913,-5.4978 2.2493,-9.3453 3.04484,-8.5496 0.79551,0.7955 0.16144,7.9774 -1.40896,15.9597 -2.58627,13.1458 -2.42319,15.1306 1.73031,21.0635 2.5221,3.6024 4.13201,8.1691 3.57756,10.1482 -0.64779,2.3123 0.33186,1.934 2.7409,-1.0581 2.06197,-2.5611 3.87674,-8.4983 4.03284,-13.1938 l 0.28383,-8.5374 1.83123,7.1966 c 1.82254,7.1626 1.83257,7.154 2.11504,-1.7991 0.20582,-6.523 -0.70522,-8.9958 -3.31448,-8.9958 -2.04148,0 -3.5983,-2.1518 -3.5983,-4.9736 0,-3.4455 1.2898,-4.7253 4.19802,-4.1651 2.30892,0.4445 4.33296,2.1429 4.49789,3.7741 1.13961,11.2711 1.202,11.3661 3.57048,5.4311 1.66532,-4.1731 1.49241,-7.5644 -0.58336,-11.4431 -3.47549,-6.494 -0.32274,-11.1445 6.653416,-9.8141 5.29934,1.0107 7.6856,11.5952 2.61409,11.5952 -2.06087,0 -4.86321,5.3629 -7.207666,13.7935 -2.10969,7.5865 -4.64779,15.9525 -5.64018,18.5913 -1.57937,4.1995 -1.31763,4.4022 2.09909,1.625 2.14687,-1.7452 4.23811,-5.5234 4.64716,-8.3961 0.45442,-3.1914 2.729966,-5.5066 5.850056,-5.9516 4.1588,-0.5932 5.40312,0.8533 6.70561,7.7964 0.87957,4.6886 2.79147,8.5246 4.24864,8.5246 2.72376,0 1.23199,-35.4491 -2.01898,-47.9774 -0.8559,-3.2985 -0.8529,-5.3634 0.007,-4.5886 0.85959,0.7746 2.74218,7.7913 4.18352,15.5927 3.06693,16.5997 4.43083,19.4699 7.15634,15.0598 1.67009,-2.7021 2.50907,-2.6865 5.0976,0.096 2.31543,2.4889 2.34067,2.9027 0.0998,1.6377 -3.73986,-2.1114 -3.76205,-0.2636 -0.11779,9.8145 1.58443,4.3816 3.8589,7.9667 5.0544,7.9667 1.19548,0 1.51837,-1.6192 0.71753,-3.5983 -3.7931,-9.3736 -3.7758,-11.3359 0.0422,-4.7978 l 4.20265,7.1967 1.76358,-8.38 c 2.04406,-9.7126 1.95907,-9.8488 -8.18065,-13.1264 -8.55527,-2.7654 -10.29502,-9.1174 -2.8823,-10.5234 2.63876,-0.5006 5.53319,-2.0784 6.43208,-3.5062 0.91862,-1.459 2.34566,0.2375 3.25865,3.8759 2.23231,8.8943 5.82532,8.1343 6.26139,-1.3244 0.33723,-7.3154 0.42134,-7.3869 1.36268,-1.1589 0.55181,3.6506 2.00929,6.0159 3.23888,5.2559 3.83817,-2.372 2.47319,-7.6447 -3.95756,-15.2873 -4.89248,-5.8144 -7.09342,-6.8783 -10.47952,-5.0662 -2.35749,1.2618 -4.8564,1.7241 -5.55312,1.0272 -2.64716,-2.6471 2.25726,-13.7616 6.33673,-14.3603 10.48343,-1.5384 11.09128,-2.7218 11.09128,-21.5908 0,-18.2761 -0.024,-18.342 -5.99717,-17.1999 -7.04513,1.3467 -7.62417,-1.4228 -1.79916,-8.605 4.19275,-5.1696 14.99295,-8.2011 14.99295,-4.2084 0,1.1608 2.59884,2.7628 5.77521,3.5599 4.07187,1.022 5.44338,2.7185 4.65012,5.7521 -1.0247,3.9183 7.48074,14.6712 9.72529,12.2949 0.51165,-0.5417 -0.55198,-8.0014 -2.36359,-16.5774 -1.8116,-8.576 -3.31632,-18.0215 -3.34381,-20.9901 -0.0276,-2.9686 -1.20658,-5.3975 -2.62021,-5.3975 -1.41361,0 -4.04297,-1.4727 -5.84296,-3.2728 -4.63356,-4.6334 0.12114,-8.7216 10.14382,-8.7216 6.17098,0 8.58389,1.3525 10.70019,5.9972 1.5029,3.2985 3.63873,5.9972 4.74632,5.9972 1.1076,0 2.01382,1.0795 2.01382,2.3989 0,1.3194 -1.58836,2.3989 -3.52972,2.3989 -1.94133,0 -4.63642,3.5083 -5.98905,7.7963 l -2.45932,7.7963 1.13133,-7.7963 c 0.68047,-4.6893 0.0969,-7.7963 -1.46422,-7.7963 -1.48154,0 -1.9096,-1.8018 -0.99733,-4.1981 1.28534,-3.3761 1.00412,-3.6084 -1.43659,-1.1855 -2.41403,2.3965 -2.44311,5.225 -0.14225,13.8281 1.59098,5.9484 3.02039,13.2285 3.17649,16.1784 0.23221,4.3897 0.64853,4.057 2.29365,-1.8337 1.60634,-5.7517 1.7775,-5.021 0.85247,3.6389 -0.77371,7.2439 0.46252,15.5931 3.72947,25.1881 8.5821796,25.2057 6.7709896,27.4304 17.5827796,-21.5965 2.80015,-12.6975 3.01128,-17.1935 0.87136,-18.5546 -2.14732,-1.3657 -2.13257,-1.8049 0.0617,-1.833 1.58722,-0.024 4.01005,-4.0848 5.3841,-9.0324 3.4811304,-12.5349 3.1740704,-14.993 -1.87294,-14.993 -6.63194998,0 -7.72215998,-2.3758 -3.82176,-8.3284 2.55201,-3.895 5.16597,-5.0662 9.4706204,-4.2431 5.25173,1.0039 5.9457,0.3027 5.9457,-6.007 0,-6.4076 -0.64553,-7.0203 -6.26376,-5.9463 -5.6778504,1.0854 -6.0964004,0.6616 -4.4744304,-4.5308 3.1658404,-10.1345 9.4825004,-11.8552 18.0507204,-4.917 5.55752,4.5001 4.80729,9.9839 -1.36589,9.9839 -2.65745,0 -3.25863,4.1644 -2.85701,19.7907 0.43602,16.9643 1.07913,19.6967 4.50299,19.1327 2.63965,-0.4349 3.78638,0.7854 3.38119,3.5983 -0.33726,2.341 -2.86884,4.5914 -5.62579,5.0009 -3.88267,0.5767 -5.59114,3.4422 -7.57918,12.7121 -1.41162,6.5823 -2.56658,12.5512 -2.56658,13.2643 0,0.7132 4.34306,-4.1975 9.65126,-10.9129 5.3082,-6.7154 10.22963,-12.2098 10.9365,-12.2098 1.83509,0 -0.83068,4.1426 -12.63133,19.6295 -5.71317,7.4977 -12.3986904,18.324 -14.8567104,24.0583 -7.62680998,17.7927 -12.62399,47.4693 -7.99323998,47.4693 1.92877,0 10.02058998,-32.2194 10.84440998,-43.1797 0.2873704,-3.8228 1.9114304,-6.0082 4.4795104,-6.0276 2.21579,-0.024 4.82457,-0.8266 5.79729,-1.7992 0.97269,-0.9727 2.63424,-1.7686 3.69232,-1.7686 3.28494,0 -0.79051,8.1554 -6.59318,13.1938 -3.03911,2.6387 -6.27049,8.0362 -7.18088,11.9943 l -1.6552504,7.1966 5.0737104,-5.9972 c 6.68611,-7.903 6.53237,-4.8241 -0.45317,9.0755 -7.3754004,14.6755 -10.7949004,26.8287 -4.1479804,14.7422 2.5913004,-4.7118 6.4039004,-9.9716 8.4724304,-11.6882 3.30197,-2.7405 3.78151,-1.9877 3.92952,6.1682 0.0928,5.1091 1.04854,11.4484 2.12401,14.0871 1.83638,4.5058 2.04347,4.4327 3.40256,-1.1994 0.79594,-3.2985 1.72927,-11.3947 2.07404,-17.9916 0.526,-10.0647 1.34991,-11.9327 5.12118,-11.6117 3.9864,0.3392 4.32529,-0.8509 2.99859,-10.5301 -0.82267,-6.002 -1.49575,-12.3321 -1.49575,-14.0674 0,-1.7352 -3.77822,-3.8634 -8.39605,-4.7299 -4.8087,-0.902 -8.39605,-2.9984 -8.39605,-4.9064 0,-1.8323 1.03041,-3.3313 2.28982,-3.3313 1.25941,0 4.76776,-2.4344 7.79633,-5.4095 5.39617,-5.3013 18.40835,-7.9426 19.00017,-3.8571 0.16481,1.1385 0.50628,3.4193 0.75855,5.0685 0.74408,4.8642 -3.34789,11.3947 -7.13998,11.3947 -3.45135,0 -4.92491,7.3849 -2.04768,10.2621 1.69025,1.6903 12.927,-10.9571 12.927,-14.5499 0,-2.8896 6.14655,-5.5581 8.16151,-3.5431 3.18791,3.1879 1.08218,7.7416 -4.94719,10.6985 -10.59234,5.1948 -14.62573,13.5227 -16.03869,33.1155 l -1.2975,17.9915 4.95228,-5.9972 c 2.72375,-3.2984 6.44092,-5.68 8.26037,-5.2924 4.6249,0.9855 4.15194,-3.4659 -0.56038,-5.2741 -5.56951,-2.1374 0.26783,-8.6245 7.76049,-8.6245 6.78114,0 7.20607,1.8378 1.50544,6.5106 -3.9111,3.2058 -3.84654,3.3668 0.94444,2.3547 6.01917,-1.2714 6.29233,4.5699 0.41471,8.8677 -2.01277,1.4717 -4.41349,5.3706 -5.3349,8.6638 l -1.6753,5.988 4.92453,-5.6632 c 6.20684,-7.1379 6.24021,-5.1207 0.11394,6.8878 -4.39231,8.6096 -4.44446,9.2962 -0.59971,7.8938 3.92561,-1.4319 3.94456,-1.2239 0.27982,3.0688 -2.16205,2.5328 -4.7269,8.3831 -5.69964,13.001 l -1.76864,8.396 5.30076,-5.9972 c 5.0466,-5.7095 5.26814,-4.5676 1.12332,5.7909 -1.29059,3.2255 -1.00218,4.0758 0.96929,2.857 1.5436,-0.9539 2.80653,-3.3535 2.80653,-5.3326 0,-1.9791 1.13364,-2.8979 2.51918,-2.0415 1.67242,1.0337 2.23306,-2.5471 1.66796,-10.6533 -0.46816,-6.7157 -0.0837,-12.2103 0.85455,-12.2103 0.93817,0 1.09703,-2.3279 0.35304,-5.1729 -0.89574,-3.4254 -0.45533,-4.6181 1.30364,-3.5312 3.2066,1.982 7.52378,-5.5481 5.86006,-10.2211 -0.72506,-2.0364 -0.13265,-2.6812 1.5236,-1.6576 1.68465,1.0413 2.71008,-0.2255 2.71008,-3.3488 0,-4.2803 0.70992,-4.6438 4.79774,-2.456 6.02467,3.2243 6.01037,4.9904 -0.0936,11.5419 -2.69014,2.8878 -4.09348,5.2502 -3.11853,5.2502 0.97497,0 0.57472,1.198 -0.88943,2.662 -1.88458,1.8846 -1.94177,4.7285 -0.19575,9.7371 1.35647,3.8912 1.7733,11.4085 0.9263,16.7055 -1.0099,6.3155 -0.69478,9.108 0.91546,8.113 1.35057,-0.8349 2.45551,-3.613 2.45551,-6.1738 0,-2.561 1.07949,-4.6562 2.39887,-4.6562 1.31938,0 2.39887,3.8979 2.39887,8.6619 l 0,8.6619 4.44818,-5.4935 c 3.35195,-4.1395 4.01895,-7.3965 2.70646,-13.2159 -0.95797,-4.2474 -0.8172,-9.1817 0.31281,-10.9648 1.437,-2.2676 2.06562,-1.3018 2.09131,3.2131 0.0192,3.5503 1.22943,7.1925 2.687154,8.0933 1.84128,1.138 2.39055,-2.1148 1.79915,-10.6548 -0.86258,-12.4564 1.1582,-16.2773 3.9525,-7.4732 0.84081,2.6491 1.88319,11.5549 2.31638,19.7907 0.96106,18.2707 1.34473,19.3332 3.67478,10.1762 1.72971,-6.7977 1.84696,-6.6393 2.11506,2.8571 0.15617,5.5293 1.36331,10.7207 2.68269,11.5361 2.38882,1.4763 3.37708,-3.1689 2.4799,-11.6567 -0.25929,-2.4532 0.58072,-3.81 1.86673,-3.0152 4.99911,3.0895 5.30467,-10.598 0.44907,-20.1158 -3.14862,-6.1718 -3.888,-9.5914 -2.0738,-9.5914 1.6065,0 0.85541,-2.1702 -1.7459,-5.0446 -4.30142,-4.7531 -6.43301,-17.8869 -4.27496,-26.3405 1.82211,-7.1379 7.97788,-4.0733 9.63721,4.7977 0.88432,4.7277 3.13467,9.7166 5.00078,11.0864 1.86611,1.3698 3.13962,3.5287 2.83005,4.7977 -0.92873,3.807 3.1756,16.5791 5.89832,18.355 1.39511,0.9099 2.64986,8.7177 2.78833,17.3508 0.26656,16.6201 3.22729,24.6576 3.9713,10.7808 0.24169,-4.508 0.27549,-10.895 0.0751,-14.1934 -0.28278,-4.655 0.14753,-5.1919 1.92269,-2.3989 1.25788,1.9791 2.39633,10.615 2.52995,19.191 0.2063,13.2447 0.57136,14.5089 2.42408,8.3961 1.19963,-3.9582 1.68046,-8.546 1.06853,-10.1952 -1.4925,-4.0224 1.13227,-10.4805 3.63173,-8.9359 1.09633,0.6777 1.05857,-2.0273 -0.084,-6.0108 -1.14239,-3.9836 -1.16355,-7.2429 -0.047,-7.2429 1.11665,0 1.70128,-6.2071 1.29918,-13.7936 -0.88936,-16.7805 0.61829,-24.6354 4.44653,-23.1663 4.45024,1.7075 9.87605,22.3313 6.70844,25.499 -1.77358,1.7735 -1.83809,4.0248 -0.20294,7.0803 1.31863,2.4639 1.58908,5.7877 0.60099,7.3866 -0.98808,1.5988 -1.94873,4.9731 -2.13478,7.4984 -0.3317,4.5019 -0.2728,4.5029 3.02514,0.043 1.84987,-2.5023 2.91031,-6.9783 2.35651,-9.9469 -0.55378,-2.9686 -0.14993,-5.3975 0.89766,-5.3975 2.25573,0 5.79771,9.5792 5.03343,13.6126 -0.29365,1.5497 0.57419,3.5026 1.92857,4.3396 2.10448,1.3007 2.94404,-0.3371 3.05415,-5.9578 0.012,-0.6597 -0.66801,-4.1393 -1.51319,-7.7323 -1.27828,-5.4347 -0.86318,-6.2748 2.46878,-4.9962 3.55702,1.365 3.84254,-0.053 2.55029,-12.6578 -0.86724,-8.4602 -0.64189,-12.2568 0.55778,-9.3974 1.89936,4.5272 2.15326,4.443 4.50098,-1.495 1.36844,-3.4611 2.77845,-7.779 3.13336,-9.5955 0.85515,-4.3767 -2.72449,-14.901 -5.72371,-16.828 -1.31057,-0.842 -1.64111,-2.7312 -0.73453,-4.1981 2.87802,-4.6567 6.16294,-2.8817 6.16294,3.3301 0,3.2985 1.14563,5.9972 2.54585,5.9972 1.62648,0 2.06068,-4.1148 1.20236,-11.3946 -0.73892,-6.2671 -0.63157,-9.7946 0.23845,-7.839 4.8207,10.8337 6.97393,8.4989 6.35387,-6.8903 -0.55071,-13.6685 -0.30533,-14.779 1.77862,-8.0477 l 2.41746,7.8085 9.52376,-4.8587 c 7.99103,-4.0766 9.52393,-4.2716 9.52393,-1.2116 0,2.0059 -1.72256,3.647 -3.8279,3.647 -5.72021,0 -17.76194,7.7651 -17.76194,11.4536 0,1.7726 1.07949,2.5555 2.39887,1.7402 4.11025,-2.5402 2.6336,2.6529 -2.67235,9.3983 -6.83194,8.6853 -4.21601,10.3007 6.47055,3.9953 8.72189,-5.1461 12.54186,-5.2907 9.49423,-0.3594 -0.86968,1.4072 -3.40663,2.5824 -5.63768,2.6117 -2.23105,0.029 -6.26209,1.9186 -8.95787,4.198 -6.27578,5.307 -13.00539,14.1315 -8.89209,11.6602 4.04702,-2.4313 3.90088,-1.7567 -2.99859,13.8444 -6.57408,14.8651 -7.4513,19.4035 -3.24845,16.806 1.92998,-1.193 2.28725,0.1943 1.19943,4.6562 -0.8521,3.4952 -2.09474,9.3235 -2.76141,12.9518 -1.06109,5.7751 -0.72141,5.5508 2.72639,-1.7992 2.16616,-4.6178 4.42081,-7.0467 5.01033,-5.3975 0.5895,1.6493 2.5744,2.9986 4.41085,2.9986 2.57042,0 2.81417,1.3806 1.05891,5.9972 -2.71888,7.1513 -1.21299,7.9482 2.36956,1.2541 1.88192,-3.5162 1.59647,-7.0833 -1.10382,-13.7935 -3.31675,-8.2418 -3.30653,-8.6218 0.11419,-4.2527 2.06603,2.6388 4.89214,4.4837 6.28025,4.0999 1.40761,-0.3891 1.87536,0.9922 1.05761,3.1231 -0.80645,2.1017 -0.49134,3.2186 0.70023,2.4821 1.19159,-0.7364 2.71325,0.024 3.38145,1.6747 0.66823,1.6574 1.33449,0.8545 1.48063,-1.7843 0.14609,-2.6388 1.85059,-6.8932 3.78768,-9.4542 3.33827,-4.4137 3.52202,-4.2645 3.52202,2.8571 0,4.1323 1.19514,8.2521 2.65586,9.1548 1.78724,1.1047 2.12665,-0.026 1.0378,-3.4568 -0.92939,-2.9283 -0.57455,-5.0981 0.83378,-5.0981 1.3485,0 3.21566,-4.0481 4.14926,-8.9958 0.93357,-4.9476 2.10146,-7.7977 2.59526,-6.3337 0.49384,1.464 -0.10771,7.1378 -1.33689,12.6082 -1.22911,5.4704 -1.4,10.462 -0.37976,11.0924 1.02021,0.6307 2.61009,-2.3444 3.53301,-6.6108 1.59079,-7.354 1.7891,-7.4768 3.81308,-2.36 1.17427,2.9686 3.8618,5.3975 5.97228,5.3975 2.82999,0 3.43873,1.4167 2.31903,5.3974 -1.1071,3.9359 -0.88422,4.479 0.82306,2.005 1.28771,-1.8658 1.88836,-7.2633 1.3348,-11.9944 -0.55356,-4.731 -0.36472,-7.2458 0.41961,-5.5884 0.78436,1.6576 2.31273,2.4656 3.39637,1.7961 1.08364,-0.6698 1.41788,0.8945 0.74272,3.4764 -1.11589,4.2671 -0.6654,4.4312 4.95134,1.8025 3.39841,-1.5904 6.63204,-4.5111 7.18587,-6.4901 0.55383,-1.9791 0.43863,1.5292 -0.25596,7.7963 -0.6946,6.2671 -0.68306,11.3946 0.0257,11.3946 0.70869,0 3.57064,-3.8679 6.35986,-8.5951 4.43607,-7.5186 4.72763,-9.7426 2.32748,-17.7533 -2.12441,-7.0909 -4.22851,-9.4552 -9.32033,-10.4735 -7.10102,-1.4202 -10.77034,-9.0246 -6.4428,-13.3521 4.523,-4.5229 13.63353,-3.0257 15.70779,2.5816 1.64085,4.4355 2.13751,4.6085 3.44572,1.1995 0.84068,-2.1909 2.64187,-3.9834 4.00268,-3.9834 3.17771,0 3.24184,11.2368 0.0753,13.1938 -1.31938,0.8154 -2.2857,5.4671 -2.14735,10.3368 l 0.25154,8.8542 3.31954,-9.5955 3.31951,-9.5955 -1.16976,10.7949 -1.16979,10.795 3.49626,-10.7148 c 1.92296,-5.8933 2.7315,-11.2908 1.79675,-11.9944 -2.14823,-1.6173 -2.09102,-7.6495 0.10579,-11.1531 2.58443,-4.1215 13.44575,-0.9789 15.14751,4.3828 1.72066,5.4212 -1.06311,9.1178 -7.58739,10.0755 -4.18644,0.6143 -7.38272,7.139 -7.92686,16.1808 -0.20726,3.4441 0.87967,3.6303 8.15694,1.3967 8.27299,-2.539 9.75937,-5.3694 8.80441,-16.7648 -0.19359,-2.3089 0.71496,-4.198 2.01879,-4.198 1.30384,0 2.37059,4.3386 2.37059,9.6413 0,9.086 0.34529,9.5545 5.99718,8.1358 5.60372,-1.4062 5.99718,-0.9109 5.99718,7.5509 0,12.3619 2.4855,8.9128 4.74139,-6.5799 l 1.85668,-12.7509 0.29926,11.3946 c 0.16456,6.2671 1.2839,11.3947 2.4873,11.3947 3.5829,0 5.46813,-17.6701 2.67032,-25.0287 -1.42653,-3.7523 -2.05396,-7.3619 -1.39427,-8.0216 1.90012,-1.9001 6.11158,11.0135 6.33108,19.4129 0.19599,7.502 0.29497,7.4317 5.4689,-3.8828 2.89808,-6.3378 6.04672,-10.7458 6.99696,-9.7956 0.95024,0.9502 1.72771,0.564 1.72771,-0.8585 0,-2.8568 4.30212,-2.7352 9.09336,0.2569 1.82441,1.1392 2.46777,3.9135 1.56629,6.7538 -2.58226,8.1355 -3.43897,25.9613 -1.24782,25.9613 2.60947,0 4.9702,-6.0171 5.01803,-12.7903 0.0276,-3.9138 0.5576,-4.3789 2.14105,-1.8786 1.66896,2.6354 2.70719,2.1962 5.01884,-2.1232 2.22654,-4.1604 3.38049,-4.692 4.88821,-2.2525 1.08551,1.7564 1.03142,4.9541 -0.12019,7.1059 -1.1516,2.1518 -2.76621,9.7663 -3.58804,16.9212 l -1.49425,13.0091 4.95489,-10.4572 c 2.72517,-5.7516 5.10187,-14.3875 5.28155,-19.191 0.20894,-5.5872 0.70121,-6.7893 1.36628,-3.3364 1.51959,7.8897 4.21426,6.6411 9.113,-4.2224 4.7459,-10.5246 7.57931,-11.6749 3.71376,-1.5077 -2.22572,5.8542 -1.91523,6.3512 4.13091,6.6137 l 6.53752,0.2837 -7.02214,1.5154 c -4.97375,1.0733 -7.94979,3.7897 -10.20209,9.3117 -3.18479,7.8083 -1.66755,10.136 3.34165,5.1266 3.78909,-3.789 8.35669,-0.1967 6.63725,5.2222 -0.79381,2.5011 -0.33081,6.4582 1.02892,8.7938 1.90737,3.2764 2.52741,0.9579 2.71377,-10.1468 0.16768,-9.9937 0.84465,-12.9268 2.21464,-9.5955 1.54907,3.7667 2.19602,2.478 3.01059,-5.9972 l 1.03753,-10.7949 0.49203,13.1938 c 0.58032,15.5606 4.00967,12.318 5.98135,-5.6558 0.70309,-6.4091 1.77418,-12.1486 2.38023,-12.7548 1.21779,-1.2177 5.54226,11.4267 7.11686,20.8095 0.55356,3.2984 1.15347,-0.3707 1.33315,-8.1538 0.30643,-13.2737 -0.20727,-14.6694 -8.28499,-22.5144 -4.73643,-4.6001 -7.54399,-9.0269 -6.23903,-9.8377 1.30496,-0.8109 2.83129,-4.1731 3.39186,-7.4716 0.95576,-5.6236 1.14918,-5.6985 3.10623,-1.1994 2.7705,6.369 7.42107,10.9269 9.26645,9.0814 0.81677,-0.8168 1.48503,0.5206 1.48503,2.9717 0,4.252 0.16168,4.2429 3.52202,-0.1991 2.53299,-3.3491 3.54342,-3.6875 3.59831,-1.2057 0.0544,2.461 1.45247,1.9738 4.87402,-1.6988 2.63876,-2.8324 4.79775,-6.0147 4.79775,-7.0719 0,-1.0572 2.31232,-3.3661 5.1385,-5.1312 4.70668,-2.9393 5.02794,-2.7863 3.82287,1.8219 -0.72357,2.7669 -0.29919,5.0307 0.94309,5.0307 1.36234,0 1.30671,1.779 -0.14009,4.4825 -1.31938,2.4651 -1.80966,5.0715 -1.0895,5.7916 2.1433,2.1434 -3.7765,11.3158 -7.30317,11.3158 -3.59205,0 -6.16945,5.0928 -6.16945,12.1905 0,6.9064 3.82683,5.5402 7.184,-2.5646 1.63255,-3.9413 3.92252,-6.5763 5.08878,-5.8556 1.16626,0.7208 2.20341,-0.6422 2.30481,-3.0291 0.10147,-2.3866 1.5656,-0.024 3.25378,5.2559 2.4955,7.8012 3.41772,8.7804 4.93194,5.2363 1.02439,-2.3977 1.30585,-11.0336 0.62548,-19.191 -0.68037,-8.1576 -0.59862,-13.2125 0.18159,-11.2334 0.78028,1.9791 2.68105,-3.4184 4.22394,-11.9944 l 2.80521,-15.5926 0.36581,20.3904 c 0.43731,24.3759 3.26752,22.0573 9.93965,-8.1428 4.30753,-19.4973 11.60022,-39.5737 11.77623,-32.4195 0.0516,2.0992 -1.4197,8.8461 -3.26964,14.9929 -1.84986,6.1469 -3.07281,11.1761 -2.71758,11.1761 0.35524,0 3.56894,-4.417 7.14153,-9.8157 8.7228,-13.1808 10.67033,-10.0558 3.17352,5.0924 l -6.03518,12.1949 6.11345,-5.5349 c 5.86784,-5.3126 5.83739,-5.1495 -0.75768,4.0605 -3.77913,5.2775 -9.26962,11.9812 -12.20112,14.897 -5.49003,5.4606 -15.3871,28.8819 -15.28386,36.169 0.0377,2.6541 4.67459,-0.9867 13.10029,-10.2852 12.9368,-14.2771 17.24707,-16.2055 8.87016,-3.9687 -2.3974,3.5022 -4.48783,8.777 -4.64539,11.7216 -0.27642,5.1667 -0.0844,5.1248 5.48258,-1.1994 4.0379,-4.5869 5.86351,-5.4737 6.08394,-2.9552 0.1732,1.9791 1.17922,0.8996 2.23556,-2.3988 2.96524,-9.259 3.00334,1.5223 0.0417,11.8485 -1.79119,6.2454 -1.68746,7.5488 0.43211,5.4291 1.53403,-1.5341 3.53905,-7.3984 4.45564,-13.0319 l 1.6665,-10.2429 0.57611,11.9943 0.57614,11.9944 1.90535,-9.5955 c 1.66877,-8.4039 0.81223,-17.091 -3.86336,-39.1827 -0.74228,-3.5071 -0.25287,-5.0222 1.31012,-4.0565 1.37225,0.8483 2.51154,4.4471 2.53174,7.9974 0.064,11.2538 3.94418,13.9605 5.80364,4.0486 0.91611,-4.8832 2.20358,-8.3404 2.86111,-7.6829 0.65751,0.6575 -0.0283,7.9434 -1.52376,16.1912 -2.0905,11.5282 -2.05428,15.4065 0.15665,16.7729 1.61979,1.001 2.05585,3.1041 0.99843,4.815 -1.1778,1.9057 -0.9097,2.4397 0.7194,1.4329 1.45678,-0.9003 3.35499,0.7798 4.32389,3.8274 1.6693,5.2504 1.78985,5.2717 3.60241,0.6345 1.03142,-2.6388 2.05879,-8.0363 2.28303,-11.9944 0.40224,-7.0995 0.43365,-7.1158 2.32837,-1.1994 1.81974,5.6822 1.9332,5.5877 2.15975,-1.7992 0.16672,-5.437 -0.84975,-7.7963 -3.35919,-7.7963 -2.04148,0 -3.5983,-2.1518 -3.5983,-4.9736 0,-5.818 8.23614,-5.6194 8.62608,0.2087 0.61677,9.2169 1.54789,10.207 3.48915,3.7091 1.36213,-4.559 1.19431,-8.1537 -0.47456,-10.1645 -3.9626,-4.7747 -0.47081,-10.8193 5.74042,-9.9373 6.10777,0.8672 9.40948,11.5628 3.56945,11.5628 -2.06087,0 -4.86321,5.3629 -7.20767,13.7935 -2.10969,7.5865 -4.59893,15.9525 -5.53161,18.5913 -1.63008,4.6118 -1.52095,4.6329 2.81613,0.5407 2.48159,-2.3413 4.52394,-6.1195 4.53862,-8.3961 0.0168,-2.4552 2.22239,-4.4508 5.42411,-4.9054 2.96861,-0.4217 5.39747,-2.3744 5.39747,-4.3396 0,-1.9651 1.00177,-2.9539 2.22615,-2.1973 3.47148,2.1455 5.10326,-6.0574 5.65853,-28.4449 0.51832,-20.898 3.93708,-29.16 4.31586,-10.43 0.19647,9.7185 0.30478,9.8653 2.31414,3.1394 1.15935,-3.8807 1.44326,-13.4148 0.63091,-21.1871 -1.24696,-11.9303 -2.35483,-14.4652 -7.11189,-16.274 -6.25031,-2.3763 -7.00996,-4.7241 -2.86845,-8.8657 3.72333,-3.7233 12.01453,0.7244 11.47574,6.1562 -0.22069,2.2257 -0.2087,7.2851 0.0269,11.2433 0.38917,6.5391 0.61807,6.7264 2.50519,2.0496 1.1423,-2.8309 2.83072,-12.7973 3.75208,-22.1474 1.77154,-17.9786 2.30373,-16.8501 -9.7168,-20.602 -2.93291,-0.9156 -3.08082,-2.2225 -0.81439,-7.1966 3.25229,-7.1381 11.62421,-8.1048 17.68659,-2.0424 3.57266,3.5727 3.61973,4.3398 0.41011,6.6866 -2.3751,1.7368 -3.91474,7.8208 -4.46404,17.6404 l -0.8385,14.9891 6.40506,-7.8582 c 3.52279,-4.3218 6.22152,-8.9229 5.99718,-10.2243 -0.22429,-1.3013 2.02098,-2.7368 4.98958,-3.1897 4.86655,-0.7425 6.47645,1.2697 4.79775,5.9967 -0.32985,0.9288 -2.50886,1.8293 -4.84227,2.0011 -7.96661,0.587 -19.49011,20.3038 -21.67774,37.0909 l -1.40675,10.7949 4.82792,-9.5955 4.82793,-9.5955 -1.32349,7.9156 c -0.82622,4.9417 -0.42769,7.3621 1.06074,6.4422 3.92645,-2.4267 11.58724,1.1524 13.17515,6.1555 0.81607,2.5713 3.57003,4.6749 6.11988,4.6749 6.64682,0 5.73148,6.4016 -1.16273,8.1319 -4.72498,1.186 -6.94612,4.9004 -11.99436,20.0589 -3.40755,10.2321 -6.11947,22.9179 -6.02652,28.1908 l 0.16912,9.5874 3.32758,-9.0647 c 1.83014,-4.9856 2.73174,-10.9228 2.00353,-13.1938 -1.12363,-3.5042 -0.93229,-3.5846 1.26442,-0.5308 1.42366,1.979 2.73021,11.1547 2.90346,20.3904 0.17319,9.2357 0.78517,14.6331 1.35982,11.9944 0.57465,-2.6388 2.00011,-6.9567 3.16766,-9.5955 1.16758,-2.6388 2.80289,-12.9463 3.63403,-22.9054 1.83881,-22.0339 5.55168,-29.9428 4.54565,-9.6829 -0.46025,9.2688 0.53058,16.8975 2.74634,21.1454 1.90651,3.6549 3.57039,8.2643 3.6975,10.2434 0.12714,1.9791 1.27824,-0.041 2.55804,-4.4904 1.2798,-4.449 1.55082,-9.8465 0.60224,-11.9944 -0.94856,-2.148 -1.62109,-4.5118 -1.4945,-5.2526 0.12666,-0.741 -0.66612,-5.3211 -1.76159,-10.1784 -1.15764,-5.1328 -1.09453,-8.2766 0.15065,-7.507 2.74741,1.6979 2.72973,-1.8997 -0.0451,-9.1982 -2.36684,-6.2254 0.32596,-13.9049 3.22879,-9.2079 0.90248,1.4602 2.92653,2.6222 4.49788,2.5819 1.57136,-0.041 0.9679,-1.1732 -1.34101,-2.5181 -2.30892,-1.3448 -4.19803,-4.0742 -4.19803,-6.0657 0,-2.0218 1.16494,-2.9008 2.63821,-1.9901 1.67002,1.0322 1.53799,-0.4254 -0.35978,-3.9714 -3.57867,-6.6868 -4.75987,-25.8284 -1.71016,-27.7132 1.18444,-0.7319 2.74335,0.9245 3.46423,3.6813 0.72089,2.7566 2.14474,4.4967 3.16412,3.8665 3.04616,-1.8826 4.81012,9.0891 2.00473,12.4694 -1.63943,1.9754 -1.70535,3.1233 -0.17943,3.1233 3.51099,0 5.58383,10.0472 2.77187,13.4356 -1.63716,1.9726 -1.47044,3.1994 0.52511,3.8646 1.84202,0.6141 2.16103,2.2086 0.86221,4.3103 -1.13383,1.8344 -2.17609,5.953 -2.31614,9.1521 -0.23773,5.4323 -0.0573,5.5194 2.73176,1.3206 7.8251,-11.7808 10.2096,-13.2756 5.38849,-3.3778 -5.79891,11.9051 -7.34503,36.6696 -2.58648,41.4282 2.93823,2.9382 4.09986,-2.6322 3.04016,-14.5786 -0.30257,-3.4112 0.49285,-5.0038 2.0258,-4.0565 1.4848,0.9175 2.53908,-0.7206 2.5607,-3.979 0.0741,-11.1668 4.04505,-12.2549 5.62329,-1.5411 0.84224,5.7173 2.47688,15.2528 3.63259,21.19 l 2.10124,10.795 0.70352,-11.9944 0.70354,-11.9944 1.59232,14.3932 1.59232,14.3933 0.64053,-13.1938 c 0.35227,-7.2566 1.46125,-19.131 2.46438,-26.3876 l 1.82386,-13.1938 0.33777,15.4657 0.33776,15.4658 9.5092,-19.6638 c 11.95086,-24.7127 14.66749,-25.9383 3.38972,-1.529 -7.76421,16.8046 -8.16305,18.7841 -5.43764,26.9873 l 2.94111,8.8526 3.3804,-8.2342 c 2.55336,-6.2195 2.74363,-9.6317 0.77778,-13.9463 -1.43143,-3.1416 -1.59748,-5.0909 -0.36897,-4.3316 1.22851,0.7592 4.06393,6.891 6.30093,13.6258 4.71716,14.202 8.86975,11.7218 5.49819,-3.2841 -1.19759,-5.33 -1.75766,-10.8887 -1.24459,-12.353 0.51308,-1.464 1.7508,2.0674 2.75053,7.8475 2.50248,14.4688 6.57185,7.8462 4.98358,-8.1106 -1.05917,-10.6412 -0.90531,-11.1824 1.36393,-4.7978 1.40677,3.9582 2.4657,10.4351 2.35317,14.3933 -0.11251,3.9581 0.77995,10.4351 1.98324,14.3932 1.99133,6.5501 2.20639,6.0883 2.39405,-5.1408 0.14777,-8.8391 1.26958,-12.7454 3.95654,-13.7765 2.06269,-0.7916 3.13446,-2.4358 2.38172,-3.6537 -0.75277,-1.2179 -0.25824,-5.135 1.09894,-8.7048 1.79429,-4.7193 1.6735,-7.447 -0.44266,-9.9968 -3.24299,-3.9075 -3.63854,-5.621 -5.83946,-25.2961 -1.00169,-8.9545 -0.66607,-13.7935 0.95672,-13.7935 5.04968,0 10.08875,2.9955 10.08875,5.9972 0,1.6967 1.62924,3.7103 3.62057,4.4744 1.9913,0.7642 3.4827,2.229 3.3142,3.2552 -1.0638,6.4801 0.62215,15.1201 2.69984,13.8362 1.3409,-0.8288 1.93111,-2.3271 1.31158,-3.3294 -0.61953,-1.0024 2.21308,-5.8741 6.29471,-10.8258 5.42445,-6.5808 7.93907,-8.1651 9.34613,-5.8883 1.05874,1.713 0.77507,4.5003 -0.6304,6.1937 -1.40545,1.6933 -1.61358,3.0955 -0.46248,3.1156 1.15107,0.024 1.01165,0.83 -0.30981,1.7992 -6.66213,4.8869 -11.83136,22.9233 -8.40479,29.3262 3.22435,6.0247 7.24759,4.2867 5.50474,-2.378 -0.74924,-2.865 -0.0724,-4.7954 1.6813,-4.7954 1.68516,0 2.3181,-1.6084 1.4861,-3.7765 -1.55504,-4.0524 3.54894,-10.6167 8.2549,-10.6167 2.12389,0 2.17355,0.8319 0.19215,3.2193 -1.46948,1.7706 -1.96148,3.9296 -1.09336,4.7977 0.86815,0.8682 0.42698,1.5785 -0.98034,1.5785 -1.40735,0 -2.55881,3.7067 -2.55881,8.237 0,4.5305 -0.65441,9.2958 -1.45427,10.59 -0.79985,1.2942 -0.17703,2.7789 1.38427,3.2992 1.78241,0.5942 2.06701,2.1947 0.76488,4.3017 -1.14052,1.8452 -2.35876,6.029 -2.7072,9.2973 -0.57587,5.401 -0.18807,5.2096 4.25932,-2.1034 3.76215,-6.1864 4.5949,-10.5852 3.60342,-19.0345 -0.91205,-7.7729 -0.69289,-9.2338 0.74881,-4.9918 1.12104,3.2984 2.17868,9.7754 2.35031,14.3932 0.27127,7.2986 0.65559,7.8047 2.93975,3.872 1.44522,-2.4883 3.4367,-10.0448 4.42551,-16.7921 l 1.79786,-12.2681 0.58309,15.5927 c 0.32071,8.576 1.33222,18.8311 2.24779,22.7893 l 1.6647,7.1966 1.8616,-7.8928 c 1.02388,-4.3412 1.38405,-12.9771 0.80033,-19.1909 -0.58369,-6.2141 -0.6073,-8.8694 -0.0525,-5.9008 0.55483,2.9686 2.41473,5.3975 4.13309,5.3975 2.0481,0 2.83988,2.4427 2.29862,7.0915 -0.45413,3.9006 0.21494,7.7347 1.4866,8.5208 1.27179,0.7859 1.71136,-0.1367 0.97682,-2.0513 -0.73451,-1.914 -0.18231,-4.1927 1.22693,-5.0637 1.52165,-0.9406 2.63085,0.6659 2.73105,3.9552 0.1547,5.0799 0.3207,5.1502 2.0036,0.8478 1.8144,-4.639 1.8641,-4.6392 4.4414,-0.034 2.431,4.3439 2.72,4.205 4.2933,-2.0635 l 1.6868,-6.7212 2.8725,5.5556 c 1.9669,3.8041 2.1631,7.6737 0.6224,12.2747 -1.2376,3.6958 -1.6883,7.2813 -1.0016,7.9679 0.6867,0.6868 1.9768,-2.0671 2.8668,-6.1195 0.8901,-4.0527 2.3422,-7.3667 3.2269,-7.365 0.8847,0 1.4166,-6.2052 1.1821,-13.7936 -0.4145,-13.4085 -0.347,-13.278 2.3989,4.6351 3.8353,25.0215 7.3243,26.9591 5.6865,3.1582 -0.9928,-14.4271 -0.8116,-16.5115 0.7298,-8.3961 1.1278,5.9372 2.1306,15.8587 2.2284,22.0478 0.098,6.1893 1.1546,11.857 2.3484,12.5949 1.23,0.7602 1.667,-3.0771 1.0084,-8.8543 -0.7832,-6.8702 -0.4154,-9.1342 1.1277,-6.9412 4.2058,5.9773 5.3189,-1.2577 1.4016,-9.1099 -2.0955,-4.2007 -3.2562,-8.1915 -2.5793,-8.8682 0.6768,-0.6769 1.9417,1.0097 2.8108,3.7478 2.3692,7.4648 4.9306,6.0574 8.4647,-4.6512 1.748,-5.2965 4.5111,-10.7362 6.1402,-12.0882 1.6291,-1.352 0.2978,4.1376 -2.9584,12.1993 -5.5576,13.7589 -5.6833,15.0191 -2.0525,20.5605 2.1273,3.2466 4.7993,5.3274 5.9377,4.624 1.1384,-0.7036 1.4838,1.151 0.7677,4.1215 -0.8987,3.7275 -0.5206,4.6575 1.22,3.002 1.3871,-1.3194 2.9227,-5.0976 3.4123,-8.3961 0.4896,-3.2984 1.7299,5.8773 2.7561,20.3905 1.0262,14.5132 2.4533,28.8164 3.1712,31.785 l 1.3055,5.3975 -500.50002,0 -500.49999,0 0.33159,-25.1714 z m 26.16962,8.9787 c -0.0286,-5.1405 -0.55007,-5.8026 -2.36215,-2.9986 -3.03316,4.6934 -3.03316,9.5955 0,9.5955 1.31938,0 2.38234,-2.9686 2.36215,-6.5969 z m 107.249466,-2.3533 c -0.60821,-2.3338 -1.14584,-1.0051 -1.19473,2.953 -0.0489,3.9581 0.44873,5.8679 1.10586,4.2436 0.65709,-1.6241 0.69708,-4.8624 0.0888,-7.1966 z m 27.12407,6.5513 c 0,-1.3194 -1.07949,-2.3989 -2.39887,-2.3989 -1.31938,0 -2.3988704,1.0795 -2.3988704,2.3989 0,1.3194 1.0794904,2.3989 2.3988704,2.3989 1.31938,0 2.39887,-1.0795 2.39887,-2.3989 z m 131.755444,-11.6883 -0.18255,-8.7021 -3.2333,8.396 c -4.58935,11.9174 -4.58935,15.8033 0,11.9944 2.06941,-1.7174 3.52076,-6.6836 3.4158,-11.6883 z m 18.56334,6.2908 c -0.66548,-1.6492 -1.20997,-0.2998 -1.20997,2.9986 0,3.2985 0.54449,4.6478 1.20997,2.9986 0.66547,-1.6492 0.66547,-4.3479 0,-5.9972 z m 18.46975,4.1981 c -0.75946,-1.9791 -1.80506,-3.5984 -2.3236,-3.5984 -0.51851,0 -0.94278,1.6193 -0.94278,3.5984 0,1.979 1.04562,3.5983 2.3236,3.5983 1.27795,0 1.70221,-1.6193 0.94278,-3.5983 z m 142.32832,-5.3519 c -0.60821,-2.3339 -1.14584,-1.0052 -1.19473,2.953 -0.0489,3.9581 0.44873,5.8679 1.10586,4.2436 0.6571,-1.6241 0.69708,-4.8625 0.089,-7.1966 z m 142.26992,5.152 c 0,-4.2364 -5.1642,-3.4985 -6.64687,0.9495 -0.52226,1.5667 0.75963,2.8487 2.84866,2.8487 2.08901,0 3.79821,-1.7092 3.79821,-3.7982 z m 13.69098,-8.7679 c -0.57378,-2.9839 -1.06505,-1.1074 -1.09168,4.17 -0.0266,5.2775 0.44286,7.7191 1.04327,5.4255 0.60042,-2.2935 0.6222,-6.6115 0.0485,-9.5955 z m 48.67968,6.2858 c 0,-1.9791 -1.07949,-2.9312 -2.39887,-2.1158 -1.31938,0.8154 -2.39887,3.1017 -2.39887,5.0808 0,1.9791 1.07949,2.9312 2.39887,2.1158 1.31938,-0.8154 2.39887,-3.1017 2.39887,-5.0808 z m 145.58592,-5.1143 c -0.60338,-2.3089 -1.09707,-0.4198 -1.09707,4.1979 0,4.6179 0.49369,6.507 1.09707,4.1981 0.60337,-2.3089 0.60337,-6.0872 0,-8.396 z m -741.266304,3.7482 c -0.76576,-1.9136 -1.3342,-1.3453 -1.4493,1.4494 -0.10411,2.5286 0.46279,3.9456 1.25994,3.1485 0.79712,-0.7972 0.88233,-2.8662 0.18927,-4.5979 z M 135.00444,1104.231 c 1.09528,-3.2527 0.43076,-2.8664 -2.06339,1.1994 -2.02345,3.2984 -3.58257,10.8549 -3.46474,16.7921 l 0.21422,10.7949 1.84912,-11.9943 c 1.01703,-6.5969 2.57615,-14.1534 3.46474,-16.7921 z m 64.4929,24.0654 c 0.74322,-1.9368 0.31898,-4.1594 -0.94278,-4.9392 -1.26176,-0.7799 -2.29411,0.8048 -2.29411,3.5215 0,5.7923 1.33403,6.3765 3.23689,1.4177 z m 492.51942,-4.2747 c -0.66547,-1.6493 -1.20997,-0.2999 -1.20997,2.9985 0,3.2985 0.5445,4.6479 1.20997,2.9986 0.66547,-1.6492 0.66547,-4.3479 0,-5.9971 z m -669.211564,-3.5528 c -0.60821,-2.3338 -1.14584,-1.0051 -1.19473,2.953 -0.0489,3.9582 0.44873,5.8679 1.10585,4.2436 0.6571,-1.624 0.69709,-4.8625 0.0888,-7.1966 z m 86.335684,3.7027 c -0.76576,-1.9136 -1.3342,-1.3453 -1.4493,1.4494 -0.10411,2.5286 0.46279,3.9456 1.25994,3.1485 0.79712,-0.7971 0.88233,-2.8662 0.18927,-4.5979 z m 46.4917,-7.1352 c -1.96593,-4.9057 -2.25763,-4.4058 -2.32684,3.9867 -0.0602,7.3168 0.47349,8.6486 2.24772,5.6088 1.46691,-2.5133 1.49613,-6.0595 0.0792,-9.5955 z m 67.01546,7.4434 c 0,-1.2416 -1.0795,-2.2573 -2.39888,-2.2573 -1.31938,0 -2.39887,1.683 -2.39887,3.7398 0,2.0571 1.07949,3.0728 2.39887,2.2574 1.31938,-0.8154 2.39888,-2.4984 2.39888,-3.7399 z m -305.393204,-6.4097 c -0.60821,-2.3339 -1.14584,-1.0052 -1.19473,2.953 -0.0489,3.9581 0.44873,5.8678 1.10586,4.2436 0.6571,-1.6241 0.69708,-4.8625 0.0888,-7.1966 z m 218.223664,1.1538 c -0.66547,-1.6492 -1.20996,-0.2998 -1.20996,2.9986 0,3.2984 0.54449,4.6478 1.20996,2.9986 0.66548,-1.6491 0.66548,-4.348 0,-5.9972 z m 299.90895,0.1487 c -0.76577,-1.9135 -1.33421,-1.3452 -1.44931,1.4494 -0.10411,2.5287 0.46282,3.9457 1.25994,3.1486 0.79712,-0.7972 0.88233,-2.8662 0.18927,-4.598 z m 201.85767,-10.3451 c 0.0705,-4.7977 0.0705,-4.7977 -1.99114,0 -1.13392,2.6388 -2.02992,7.4965 -1.99113,10.7949 l 0.0705,5.9972 1.92061,-5.9972 c 1.05634,-3.2984 1.95237,-8.1561 1.99114,-10.7949 z m -470.53131,7.9463 c -0.76577,-1.9136 -1.33421,-1.3453 -1.44931,1.4494 -0.10411,2.5286 0.46279,3.9456 1.25994,3.1485 0.79712,-0.7972 0.88233,-2.8662 0.18927,-4.5979 z m 79.18647,-3.7027 c -0.60821,-2.3339 -1.14585,-1.0051 -1.19474,2.953 -0.0489,3.9582 0.44873,5.8679 1.10586,4.2436 0.6571,-1.624 0.69709,-4.8625 0.089,-7.1966 z m -352.65785,1.3038 c -0.76577,-1.9136 -1.33421,-1.3453 -1.44931,1.4494 -0.10411,2.5286 0.46282,3.9457 1.25994,3.1485 0.79712,-0.7971 0.88235,-2.8662 0.18951,-4.5979 z m 146.886006,-5.5474 c -0.13194,-4.7977 -0.13194,-4.7977 -2.19353,0 -1.13392,2.6388 -2.12101,6.417 -2.19353,8.3961 -0.1173,3.1984 0.12642,3.1984 2.19353,0 1.27898,-1.9791 2.26607,-5.7573 2.19353,-8.3961 z m 503.158274,2.9986 c -0.66547,-1.6492 -1.20997,-0.2999 -1.20997,2.9986 0,3.2984 0.5445,4.6478 1.20997,2.9986 0.66547,-1.6492 0.66547,-4.348 0,-5.9972 z m 136.78566,2.5488 c -0.76577,-1.9136 -1.33421,-1.3453 -1.44931,1.4494 -0.10411,2.5286 0.46282,3.9457 1.25994,3.1485 0.79712,-0.7971 0.88233,-2.8662 0.18927,-4.5979 z M 14.545906,1073.6041 c 4.33215,-6.5921 5.96014,-27.1199 1.95446,-24.6443 -1.23398,0.7626 -4.3227,7.0335 -6.8638204,13.9351 -3.81968,10.3741 -4.37087,16.2895 -3.1811,34.1383 l 1.43915,21.5899 1.22664,-19.3155 c 0.8019,-12.6272 2.6802904,-21.5275 5.4246704,-25.7035 z m 188.150974,38.572 c -0.76576,-1.9136 -1.3342,-1.3454 -1.4493,1.4493 -0.10411,2.5287 0.46279,3.9457 1.25994,3.1486 0.79712,-0.7971 0.88232,-2.8661 0.18927,-4.5979 z m 615.32069,-5.8763 c -0.4966,-13.2108 -2.8482,-12.9393 -2.8482,0.3288 0,6.377 0.7148,10.8796 1.5885,10.006 0.8737,-0.8737 1.4406,-5.5244 1.2597,-10.3348 z m 18.7416,6.043 c 0,-1.3193 -1.0795,-1.7318 -2.3988,-0.9163 -1.3194,0.8153 -2.3989,2.562 -2.3989,3.8814 0,1.3193 1.0795,1.7317 2.3989,0.9162 1.3193,-0.8153 2.3988,-2.562 2.3988,-3.8813 z m -938.76897,-5.1143 c -0.66547,-1.6493 -1.20994,-0.2999 -1.20994,2.9985 0,3.2985 0.54447,4.6479 1.20994,2.9986 0.66547,-1.6492 0.66547,-4.3479 0,-5.9971 z m 89.399776,-3.5984 c 0.0928,-1.6492 -0.91087,-2.9985 -2.23025,-2.9985 -1.31938,0 -2.323,3.5083 -2.23028,7.7963 0.14129,6.5333 0.50259,7.0191 2.23028,2.9986 1.13392,-2.6389 2.13754,-6.1471 2.23025,-7.7965 z m 111.71616,8.9958 c 0.81542,-1.3194 0.33939,-2.3989 -1.05786,-2.3989 -1.39724,0 -2.54045,1.0795 -2.54045,2.3989 0,1.3194 0.47603,2.3989 1.05786,2.3989 0.58182,0 1.72502,-1.0795 2.54045,-2.3989 z m 12.383654,-5.3974 c -0.66547,-1.6493 -1.20997,-0.2999 -1.20997,2.9985 0,3.2985 0.5445,4.6479 1.20997,2.9986 0.66547,-1.6492 0.66547,-4.3479 0,-5.9971 z m 115.27531,-10.7951 c -0.54963,-3.6282 -0.99935,-0.6597 -0.99935,6.5969 0,7.2567 0.44972,10.2253 0.99935,6.597 0.54965,-3.6283 0.54965,-9.5656 0,-13.1939 z m 108.17748,0.5997 c 0.11515,-4.7976 0.11515,-4.7976 -1.94644,0 -1.13393,2.6388 -2.00983,8.0363 -1.94645,11.9945 l 0.11515,7.1966 1.83123,-7.1966 c 1.00716,-3.9582 1.88306,-9.3556 1.94644,-11.9945 z m 91.33371,-1.1994 c -0.15617,-10.1863 -0.64021,-11.8266 -2.12302,-7.1966 -2.89374,9.0357 -2.89374,28.4665 0,23.9888 1.27898,-1.9791 2.23433,-9.5356 2.12302,-16.7922 z m 157.79124,11.3948 c -0.66547,-1.6493 -1.20997,-0.2999 -1.20997,2.9985 0,3.2985 0.5445,4.6479 1.20997,2.9986 0.66547,-1.6492 0.66547,-4.3479 0,-5.9971 z m -642.832754,-5.9972 c -0.60339,-2.3089 -1.09708,-0.4198 -1.09708,4.198 0,4.6178 0.49369,6.5068 1.09708,4.1979 0.60336,-2.3089 0.60336,-6.087 0,-8.3959 z m 37.48803,-0.5997 c 0.95307,-7.2082 0.72149,-9.201 -0.69701,-5.9972 -2.02861,4.5816 -3.4005,19.8753 -1.59595,17.7917 0.47608,-0.5498 1.50793,-5.8573 2.29296,-11.7945 z m 279.148124,6.7468 c -0.76576,-1.9136 -1.3342,-1.3453 -1.4493,1.4494 -0.10411,2.5286 0.46279,3.9456 1.25994,3.1485 0.79712,-0.7971 0.88233,-2.8663 0.18927,-4.5979 z m 208.70185,0 c -0.76577,-1.9136 -1.33421,-1.3453 -1.4493,1.4494 -0.10411,2.5286 0.46281,3.9456 1.25993,3.1485 0.79712,-0.7971 0.88233,-2.8663 0.18927,-4.5979 z m 182.39694,-10.9118 c -0.55138,-3.6465 -1.01726,-1.2325 -1.03528,5.3644 -0.0168,6.5969 0.43314,9.5804 1.00254,6.63 0.56939,-2.9506 0.58415,-8.3481 0.0326,-11.9944 z m 106.22785,10.1621 c 0,-3.2984 -1.07949,-5.9971 -2.39887,-5.9971 -1.31938,0 -2.39887,2.6987 -2.39887,5.9971 0,3.2985 1.07949,5.9972 2.39887,5.9972 1.31938,0 2.39887,-2.6987 2.39887,-5.9972 z m 20.12582,-2.3988 c 1.17561,-5.2558 0.95307,-6.2263 -0.82524,-3.5983 -1.33927,1.979 -2.45155,5.6673 -2.47175,8.1962 -0.0489,6.1373 1.32399,4.2225 3.29699,-4.5979 z m -842.878344,-11.6941 c -1.35265,-1.3525 -2.45937,-4.8784 -2.45937,-7.8352 0,-2.9566 -1.04785,-6.0233 -2.32854,-6.815 -3.71676,-2.2969 -5.76679,10.5872 -2.62007,16.4669 1.57349,2.9401 2.66304,6.3652 2.42123,7.6114 -1.45331,7.4902 0.85095,8.2305 3.88121,1.2469 2.43504,-5.6117 2.78545,-8.9951 1.10554,-10.675 z m 61.5000196,9.8949 c -0.66547,-1.6493 -1.20997,-0.2999 -1.20997,2.9986 0,3.2984 0.5445,4.6477 1.20997,2.9986 0.66547,-1.6492 0.66547,-4.348 0,-5.9972 z m 99.2903804,1.4664 c 1.32363,-3.4814 1.96149,-6.7749 1.41742,-7.3189 -0.54406,-0.5441 -2.13734,2.3043 -3.54064,6.3298 -3.11949,8.9485 -1.23647,9.8258 2.12322,0.9891 z m 70.459524,-7.7038 c -2.08627,-2.5051 -5.80162,3.2084 -5.70828,8.7777 l 0.10819,6.4555 3.14981,-7.1966 c 1.73239,-3.9582 2.83501,-7.5747 2.45026,-8.0366 z m 18.17225,5.6377 c 0,-3.1428 -1.0795,-6.3813 -2.39888,-7.1966 -1.4304,-0.8841 -2.39887,2.0213 -2.39887,7.1966 0,5.1753 0.96847,8.0806 2.39887,7.1966 1.31938,-0.8154 2.39888,-4.0539 2.39888,-7.1966 z m 68.8308,-0.5541 c -0.60821,-2.3339 -1.14585,-1.0052 -1.19473,2.953 -0.0489,3.958 0.44873,5.8678 1.10585,4.2436 0.6571,-1.6241 0.69709,-4.8626 0.089,-7.1966 z m 237.48831,0 c -0.60821,-2.3339 -1.14585,-1.0052 -1.19474,2.953 -0.0489,3.958 0.44873,5.8678 1.10586,4.2436 0.6571,-1.6241 0.69709,-4.8626 0.089,-7.1966 z m 190.17387,0.5541 c 0,-1.3194 -1.04642,-0.7796 -2.3254,1.1993 -1.27898,1.9792 -2.32539,4.6779 -2.32539,5.9973 0,1.3193 1.04641,0.7795 2.32539,-1.1994 1.27898,-1.9791 2.3254,-4.6779 2.3254,-5.9972 z m 28.09976,3.1485 c -0.76577,-1.9136 -1.33421,-1.3453 -1.44931,1.4493 -0.10411,2.5287 0.46282,3.9457 1.25994,3.1486 0.79712,-0.7971 0.88233,-2.8661 0.18927,-4.5979 z m -685.353884,-4.9478 c 0.0192,-0.9895 -1.04277,-1.799 -2.36215,-1.799 -1.31938,0 -2.38234,2.4288 -2.36214,5.3973 0.0298,4.3646 0.48174,4.709 2.36214,1.7993 1.27899,-1.9792 2.34193,-4.408 2.36215,-5.3976 z m 25.94425,-1.0874 c -0.29182,-7.7624 -0.62418,-8.2333 -2.63331,-3.7306 -1.26464,2.8339 -1.6551,6.8318 -0.8677,8.8836 2.41375,6.2902 3.85163,4.1739 3.50101,-5.153 z m 11.50291,3.5276 c 2.80001,-3.2817 3.09077,-4.2188 0.75079,-2.4194 -2.10045,1.6149 -4.52931,2.226 -5.39746,1.3579 -0.86812,-0.8682 -1.57843,0.2207 -1.57843,2.4195 0,5.219 0.75413,5.0544 6.2251,-1.358 z m 9.57963,-3.6273 c -2.57997,-2.5801 -3.94963,1.0331 -2.13855,5.6417 1.69888,4.3228 1.8272,4.3304 2.66738,0.1559 0.48546,-2.4123 0.24749,-5.021 -0.52883,-5.7974 z m 250.470044,2.9864 c 0,-1.8234 -1.0795,-3.9824 -2.39887,-4.7979 -1.36592,-0.8441 -2.39888,1.2218 -2.39888,4.7979 0,3.576 1.03296,5.6418 2.39888,4.7976 1.31937,-0.8152 2.39887,-2.9742 2.39887,-4.7976 z m 68.08372,2.2744 c 0.81919,-2.135 0.41704,-3.0979 -0.94278,-2.2574 -1.30427,0.806 -2.37141,2.4814 -2.37141,3.7228 0,3.4508 1.71944,2.6904 3.31419,-1.4654 z m 11.04232,-4.2151 c -0.03,-4.273 -0.47162,-4.583 -2.36215,-1.6576 -3.05422,4.726 -3.05422,10.2836 0,8.3959 1.31938,-0.8152 2.38235,-3.8478 2.36215,-6.7383 z m 96.78351,-2.8572 c 1.00172,-6.5344 0.73914,-8.4475 -0.82317,-5.9971 -1.26178,1.9791 -2.31069,6.7469 -2.33089,10.5952 -0.0487,9.279 1.33622,7.2602 3.15406,-4.598 z m 339.84791,8.3962 c 0,-1.3194 -0.4761,-2.3989 -1.0579,-2.3989 -0.5818,0 -1.725,1.0795 -2.5404,2.3989 -0.8155,1.3194 -0.3394,2.3989 1.0578,2.3989 1.3973,0 2.5405,-1.0795 2.5405,-2.3989 z m -957.91005,-5.2475 c -0.76577,-1.9136 -1.3342,-1.3453 -1.4493,1.4494 -0.10411,2.5286 0.46279,3.9456 1.25994,3.1485 0.79712,-0.7972 0.88235,-2.8663 0.18951,-4.5979 z m 717.21269,-2.5488 c -0.66547,-1.6494 -1.20996,-0.2999 -1.20996,2.9986 0,3.2984 0.54449,4.6478 1.20996,2.9985 0.66548,-1.6492 0.66548,-4.3479 0,-5.9971 z m 20.65407,-12.3099 -1.49977,-7.4809 -1.93294,7.1966 c -1.06311,3.9582 -1.02947,7.5042 0.0749,7.8801 1.10424,0.3759 1.62917,3.6144 1.16652,7.1966 l -0.84129,6.5132 2.26622,-6.9123 c 1.2464,-3.802 1.59129,-10.279 0.76641,-14.3933 z m 57.75056,-10e-4 c -1.08496,-3.6151 -1.7737,-3.854 -3.45497,-1.1994 -2.57368,4.0634 -2.83468,17.4473 -0.38797,19.8939 2.39297,2.3931 5.55514,-12.9897 3.84294,-18.6945 z m 28.91543,8.3531 c -0.87914,-5.4977 -2.10161,-9.4928 -2.7166,-8.878 -0.61498,0.6151 -0.36406,5.5817 0.55761,11.0371 0.92167,5.4552 2.14414,9.4503 2.71661,8.8779 0.57244,-0.5723 0.32152,-5.539 -0.55762,-11.037 z m 137.3649,3.9582 c -0.6655,-1.6492 -1.21,-0.2999 -1.21,2.9986 0,3.2984 0.5445,4.6478 1.21,2.9986 0.6654,-1.6492 0.6654,-4.348 0,-5.9972 z m -757.993554,0.1487 c -0.76577,-1.9135 -1.3342,-1.3453 -1.4493,1.4493 -0.10411,2.5287 0.46279,3.9458 1.25994,3.1487 0.79712,-0.7973 0.88232,-2.8663 0.18927,-4.598 z m 48.737624,1.6493 c 0,-1.9791 1.88911,-3.6149 4.19802,-3.6351 3.48242,-0.031 3.60416,-0.4123 0.71427,-2.2405 -1.91608,-1.2122 -4.21465,-1.7522 -5.10792,-1.2002 -2.66047,1.6442 -4.33433,10.6741 -1.97866,10.6741 1.19586,0 2.17429,-1.6193 2.17429,-3.5983 z m 174.24154,-5.274 c -0.72371,-0.7237 -3.03627,-0.6559 -5.13903,0.1511 -3.15828,1.212 -3.28057,2.0547 -0.70315,4.8465 2.68026,2.9031 3.40452,2.8818 5.139,-0.1511 1.11049,-1.9419 1.42692,-4.1231 0.70318,-4.8465 z m 134.40277,1.0759 c -0.66547,-1.6492 -1.20997,-0.2998 -1.20997,2.9986 0,3.2985 0.5445,4.6478 1.20997,2.9986 0.66547,-1.6492 0.66547,-4.3479 0,-5.9972 z m -575.38237,-0.6637 c -0.73859,-0.7384 -2.07995,0.593 -2.98079,2.9588 -1.30183,3.4188 -1.02628,3.6942 1.34288,1.3429 1.63944,-1.6274 2.3765,-3.5631 1.63791,-4.3017 z m 39.652096,-4.2897 c -1.19298,-7.3516 -2.037236,-8.4069 -4.854756,-6.0687 -1.87587,1.5569 -4.48779,4.8433 -5.80431,7.3034 -2.11531,3.9524 -1.68161,4.2938 3.72928,2.9358 4.84222,-1.2153 6.122926,-0.6461 6.122926,2.7215 0,2.342 0.50647,3.7516 1.1255,3.1327 0.61901,-0.6192 0.47563,-5.1303 -0.31864,-10.0247 z m 47.13385,1.3546 c 0.0192,-1.6492 -1.04277,-2.9986 -2.36215,-2.9986 -1.31938,0 -2.38234,2.9687 -2.36214,6.597 0.0285,5.1405 0.55006,5.8026 2.36214,2.9986 1.27898,-1.9791 2.34192,-4.9477 2.36215,-6.597 z m 306.332134,3.7483 c -0.76577,-1.9136 -1.3342,-1.3453 -1.4493,1.4494 -0.10411,2.5287 0.46279,3.9457 1.25994,3.1485 0.79712,-0.7971 0.88232,-2.8661 0.18927,-4.5979 z m 55.8975,-1.4909 c -0.0317,-3.4959 -0.35812,-3.5592 -2.36214,-0.4582 -3.03601,4.698 -3.03601,7.8736 0,5.9972 1.31938,-0.8154 2.38234,-3.308 2.36214,-5.539 z m 148.0066,1.4909 c -0.76576,-1.9136 -1.3342,-1.3453 -1.4493,1.4494 -0.10411,2.5287 0.46282,3.9457 1.25994,3.1485 0.79712,-0.7971 0.88233,-2.8661 0.18927,-4.5979 z m 53.07207,-0.8132 c -0.73859,-0.7384 -2.07994,0.5929 -2.98079,2.9588 -1.30182,3.4188 -1.02629,3.6942 1.34289,1.3429 1.63943,-1.6274 2.37649,-3.5631 1.6379,-4.3017 z m 66.10033,2.4624 c -0.75946,-1.9791 -1.80505,-3.5983 -2.32359,-3.5983 -0.51852,0 -0.94278,1.6193 -0.94278,3.5983 0,1.9791 1.04562,3.5984 2.32359,3.5984 1.27795,0 1.70222,-1.6193 0.94278,-3.5984 z m 106.79792,-6.197 c 0.15617,1.869 0.92251,2.7597 1.70313,1.9791 0.78064,-0.7806 0.43825,-3.1725 -0.76083,-5.3152 -1.86397,-3.3306 -2.59613,-2.9828 -5.04811,2.3989 -1.57738,3.4618 -2.0675,7.5628 -1.08919,9.113 1.09561,1.7364 2.38028,0.055 3.34496,-4.3777 0.86142,-3.9581 1.69392,-5.6673 1.85004,-3.7981 z m -648.501794,0.9804 c -1.37407,-5.4747 -1.08985,-5.9842 1.93707,-3.4721 2.90568,2.4116 3.82735,2.0621 5.09487,-1.9316 0.85112,-2.6814 0.52556,-6.7017 -0.72346,-8.9334 -1.95908,-3.5007 -2.81965,-2.9969 -6.26705,3.6698 -2.19789,4.2501 -3.32805,9.8327 -2.51147,12.4055 2.24263,7.066 4.31389,5.6084 2.47004,-1.7382 z m 773.453484,-4.3789 c 0,-3.9728 -0.3998,-4.1791 -2.3254,-1.1994 -1.279,1.979 -2.3254,5.7573 -2.3254,8.396 0,3.9728 0.3998,4.1791 2.3254,1.1994 1.279,-1.979 2.3254,-5.7572 2.3254,-8.396 z m 20.8532,2.9986 c -0.6655,-1.6492 -1.21,-0.2999 -1.21,2.9986 0,3.2985 0.5445,4.6479 1.21,2.9986 0.6654,-1.6492 0.6654,-4.348 0,-5.9972 z m -959.54876,-2.3989 c -0.66547,-1.6492 -1.20994,-0.2998 -1.20994,2.9986 0,3.2985 0.54447,4.6479 1.20994,2.9986 0.66547,-1.6492 0.66547,-4.3479 0,-5.9972 z m 94.127026,-5.9972 c 0.13145,-1.6492 -0.7249,-2.9986 -1.9031,-2.9986 -3.3531,0 -5.33533,7.3533 -3.48611,12.9321 1.61676,4.8777 1.73949,4.8439 3.41357,-0.9377 0.95508,-3.2984 1.84413,-7.3465 1.97564,-8.9958 z m 47.45637,8.546 c -0.76577,-1.9136 -1.3342,-1.3453 -1.4493,1.4494 -0.10411,2.5287 0.46279,3.9457 1.25994,3.1486 0.79712,-0.7971 0.88232,-2.8662 0.18927,-4.598 z m 307.705804,0.2445 c -1.47269,-2.7518 -3.1553,-4.5257 -3.73917,-3.9419 -1.67897,1.679 1.72472,8.945 4.19019,8.945 1.22541,0 1.02261,-2.2497 -0.45102,-5.0031 z m 167.18688,-6.1462 c 0.34011,-5.6896 0.16048,-5.7676 -4.19803,-1.8234 -2.50432,2.2665 -4.55334,6.1215 -4.55334,8.5671 0,6.9921 8.31321,0.5858 8.75137,-6.7437 z m 63.21478,3.4731 c 0,-5.7076 -4.3789,-4.6747 -8.87261,2.0933 -3.06494,4.6159 -2.87702,4.8709 2.79329,3.7868 4.05189,-0.7746 6.07932,-2.7356 6.07932,-5.8801 z m 215.82498,-0.7199 c 0,-1.3194 -1.04641,-0.7796 -2.32539,1.1994 -1.27898,1.9791 -2.3254,4.6778 -2.3254,5.9972 0,1.3194 1.04642,0.7796 2.3254,-1.1994 1.27898,-1.9791 2.32539,-4.6778 2.32539,-5.9972 z m 9.59549,-1.1994 c 0,-3.1984 -0.25836,-3.1984 -2.3254,0 -1.27898,1.979 -2.32539,5.2175 -2.32539,7.1966 0,3.1985 0.25836,3.1985 2.32539,0 1.27899,-1.9791 2.3254,-5.2176 2.3254,-7.1966 z m 4.13474,0.6453 c -0.60821,-2.3339 -1.14584,-1.0052 -1.19473,2.953 -0.0489,3.9581 0.44873,5.8679 1.10585,4.2436 0.6571,-1.624 0.69709,-4.8625 0.089,-7.1966 z m -515.02095,-3.7941 c 0,-1.2287 -1.61924,-0.8902 -3.59831,0.7523 -1.97907,1.6425 -3.56398,4.7433 -3.52202,6.8905 0.0641,3.2802 0.63944,3.1598 3.5983,-0.752 1.93712,-2.5611 3.52203,-5.6618 3.52203,-6.8908 z m 14.39323,9.2899 c 0,-0.5817 -1.07949,-1.725 -2.39887,-2.5404 -1.31938,-0.8154 -2.39888,-0.3395 -2.39888,1.0579 0,1.3971 1.0795,2.5404 2.39888,2.5404 1.31938,0 2.39887,-0.4759 2.39887,-1.0579 z m 99.7424,-12.7356 c 1.74033,-4.288 2.70732,-7.7964 2.14884,-7.7964 -2.03566,0 -8.33004,14.2736 -8.14585,18.4721 0.14681,3.3459 0.48673,3.5076 1.51105,0.7189 0.7269,-1.9791 2.7456,-7.1066 4.48596,-11.3946 z m 375.14919,-0.4798 c 0.14106,-5.7674 -4.22714,0.3814 -5.87929,8.2761 l -1.50606,7.1967 3.65019,-5.9973 c 2.00759,-3.2984 3.68843,-7.5624 3.73516,-9.4755 z m -847.704094,2.8909 c -2.62053,-2.6205 -4.41748,1.5468 -2.53604,5.8815 1.78399,4.11 1.91332,4.1064 2.90729,-0.084 0.57213,-2.4123 0.40507,-5.021 -0.37125,-5.7973 z m 67.34564,1.1872 c -0.66548,-1.6493 -1.20997,-0.2999 -1.20997,2.9986 0,3.2984 0.54449,4.6478 1.20997,2.9986 0.66547,-1.6493 0.66547,-4.348 0,-5.9972 z m 323.180784,-1.7992 c 2.3258,-3.1269 2.12643,-3.167 -1.52154,-0.3061 -2.30891,1.8109 -4.11279,5.0494 -4.00863,7.1966 0.15832,3.2661 0.40718,3.3162 1.52153,0.3061 0.73269,-1.979 2.53657,-5.2175 4.00864,-7.1966 z m 150.2071,3.4568 c 0,-1.9013 -1.07949,-3.4568 -2.39887,-3.4568 -1.31938,0 -2.39887,2.2228 -2.39887,4.9393 0,2.7167 1.07949,4.2722 2.39887,3.4568 1.31938,-0.8154 2.39887,-3.0382 2.39887,-4.9393 z m 107.13909,-1.6576 c -0.66548,-1.6493 -1.20997,-0.2999 -1.20997,2.9986 0,3.2984 0.54449,4.6478 1.20997,2.9986 0.66547,-1.6493 0.66547,-4.348 0,-5.9972 z m 26.46125,-3.5527 c -0.60821,-2.3339 -1.14584,-1.0052 -1.19473,2.953 -0.0489,3.9581 0.44873,5.8678 1.10586,4.2436 0.6571,-1.6241 0.69708,-4.8625 0.089,-7.1966 z m 67.73628,-3.6439 c 0.0928,-2.3089 -0.91088,-4.1981 -2.23026,-4.1981 -1.31938,0 -2.32299,4.0481 -2.23025,8.9958 0.13529,7.2163 0.57642,8.0468 2.23025,4.198 1.13392,-2.6387 2.13754,-6.6868 2.23026,-8.9957 z m -19.78254,4.9476 c -0.76577,-1.9135 -1.3342,-1.3452 -1.4493,1.4494 -0.10411,2.5287 0.46281,3.9457 1.25993,3.1486 0.79712,-0.7972 0.88233,-2.8662 0.18927,-4.598 z m 167.92101,0 c -0.7658,-1.9135 -1.3342,-1.3452 -1.4493,1.4494 -0.1041,2.5287 0.4628,3.9457 1.2599,3.1486 0.7972,-0.7972 0.8824,-2.8662 0.1893,-4.598 z m -846.078274,-2.5488 c -0.0288,-4.2141 -0.51991,-4.6336 -2.2406,-1.9135 -1.21212,1.9159 -1.67163,4.3448 -1.02112,5.3974 2.08071,3.3666 3.29948,2.0647 3.26172,-3.4839 z m 624.977394,-1.8661 c 2.34418,-4.5331 3.30411,-10.6195 2.55372,-16.1923 -0.66127,-4.9108 -0.62541,-7.0398 0.0796,-4.7309 2.45609,8.0423 5.72995,4.1196 6.0063,-7.1966 0.15305,-6.267 0.7869,-9.4278 1.40854,-7.0241 1.09346,4.2282 1.2471,4.2282 4.71532,0 3.42576,-4.1764 3.51557,-4.1572 2.02175,0.4272 -4.14235,12.7131 -3.23807,17.9405 1.08923,6.2966 2.63566,-7.0918 4.13385,-13.9593 3.32934,-15.2611 -0.80451,-1.3017 0.0249,-3.2949 1.84315,-4.4291 3.99513,-2.4924 0.15809,-10.1683 -5.65579,-11.3145 -5.85171,-1.1539 -10.63461,5.5059 -16.40258,22.8387 -4.68734,14.0857 -8.58501,43.8497 -5.74215,43.8497 0.5486,0 2.68767,-3.2685 4.75353,-7.2636 z m -116.56924,-6.9883 c -0.1636,-3.2304 -0.37106,-3.2495 -1.52357,-0.1416 -0.73382,1.9791 -2.32739,5.7573 -3.54126,8.3961 -2.17175,4.721 -2.14738,4.7231 1.52357,0.1415 2.05187,-2.561 3.64542,-6.3393 3.54126,-8.396 z m -19.40248,5.2561 c 1.38686,-2.687 1.05121,-7.2201 -0.93254,-12.594 l -3.09929,-8.3961 -0.18256,12.5941 c -0.19359,13.365 0.71515,15.1755 4.21434,8.396 z m -364.690914,-6.6604 c -0.73859,-0.7384 -2.07994,0.593 -2.98079,2.9587 -1.30182,3.4189 -1.02628,3.6943 1.34289,1.3429 1.63944,-1.6274 2.37649,-3.563 1.6379,-4.3016 z m -31.08278,1.9198 c 3.06586,2.5109 3.35993,2.0635 2.00894,-3.0557 -0.87048,-3.2984 -1.59744,-8.1022 -1.61545,-10.675 -0.0252,-3.616 -0.68054,-4.0301 -2.88712,-1.8234 -1.56989,1.5699 -3.08482,4.2146 -3.36652,5.8773 -0.28168,1.6624 -1.31509,5.1818 -2.29644,7.8205 -1.45101,3.9016 -1.19131,4.2484 1.39036,1.8563 2.50684,-2.3228 3.93012,-2.3228 6.76623,0 z m -79.00821,-16.8492 c -0.19191,-10.6021 -0.35604,-10.894 -2.36087,-4.198 -1.95309,6.5232 -1.06361,15.5926 1.52928,15.5926 0.57076,0 0.94499,-5.1276 0.83159,-11.3946 z m 85.82031,0 c -0.60339,-2.3089 -1.09707,-0.4198 -1.09707,4.198 0,4.6178 0.49368,6.507 1.09707,4.198 0.60337,-2.3089 0.60337,-6.0871 0,-8.396 z m -64.63558,3.5983 c -0.64384,-2.9686 -1.93728,-7.5565 -2.87436,-10.1952 -1.67959,-4.7296 -1.64994,-4.7318 2.09038,-0.1415 5.0746196,6.2279 4.8675796,1.5417 -0.25497,-5.7717 -2.87167,-4.1 -3.22047,-6.0572 -1.19944,-6.7308 1.56733,-0.5225 2.83331,-3.8286 2.81328,-7.347 -0.0511,-8.961 -5.89996,-27.5666 -8.9897,-28.5965 -1.42772,-0.4759 -3.78151,4.9662 -5.28937,12.2295 -3.18897,15.3614 -0.5141,48.3521 3.92038,48.3521 1.53926,0 3.60829,0.8096 4.59782,1.7992 3.58432,3.5841 6.3305,1.6787 5.18598,-3.5983 z m 292.513484,-2.2489 c -0.76577,-1.9136 -1.3342,-1.3453 -1.4493,1.4494 -0.10411,2.5286 0.46279,3.9456 1.25993,3.1485 0.79712,-0.7972 0.88233,-2.8662 0.18927,-4.5979 z m 167.92102,0 c -0.76576,-1.9136 -1.3342,-1.3453 -1.4493,1.4494 -0.10411,2.5286 0.46282,3.9456 1.25994,3.1485 0.79712,-0.7972 0.88233,-2.8662 0.18927,-4.5979 z m -412.014384,-8.6876 c -0.31838,-16.7196 -4.27841,-19.6628 -4.46053,-3.3152 -0.10603,9.5178 0.72167,14.5844 2.23028,13.652 1.31937,-0.8154 2.32299,-5.4671 2.23025,-10.3368 z m -73.66995,-10.0198 c -0.23581,-8.2956 4.09007,-10.0105 4.62308,-1.833 0.19359,2.9686 1.11696,-2.159 2.05219,-11.3946 0.9352,-9.2357 2.49422,-19.6854 3.4645,-23.2214 1.6094,-5.8654 1.27161,-6.3023 -3.85132,-4.9812 -3.08852,0.7964 -6.8502,3.112 -8.3593,5.1458 -2.23038,3.006 -2.66726,2.176 -2.33475,-4.4357 0.45857,-9.1179 4.40303,-11.7183 10.55669,-6.9597 3.50818,2.7132 3.47328,2.427 -0.23605,-1.9327 -2.39436,-2.8144 -6.50869,-5.6808 -9.14294,-6.3695 -4.47301,-1.1697 -4.75145,-0.1943 -4.21307,14.7538 0.35165,9.7629 1.93995,17.6242 4.07204,20.1543 3.08874,3.6653 3.02049,4.3302 -0.58662,5.7144 -3.32779,1.2769 -3.78029,3.392 -2.4487,11.4448 2.60602,15.7596 6.81414,18.3319 6.40422,3.9147 z m -10.12195,-7.7102 c 0,-3.8752 -0.70937,-4.5682 -2.66963,-2.6078 -1.4683,1.4681 -1.94433,3.8429 -1.05785,5.2775 2.48137,4.015 3.72748,3.1223 3.72748,-2.6697 z m 59.6706,-47.1381 c 3.17745,-14.8162 3.38128,-19.5506 0.84169,-19.5506 -1.02214,0 -3.7210804,8.9058 -5.9977104,19.7907 -2.27662,10.8849 -4.70296,22.4894 -5.39186998,25.7879 -0.74008,3.5434 0.60911998,2.0213 3.29760998,-3.7204 2.5026,-5.3447 5.76523,-15.383 7.2502804,-22.3076 z m 6.62786,-40.9886 c 1.07691,-5.3845 0.77913,-7.5754 -0.8894,-6.5443 -1.37957,0.8528 -2.95045,5.3375 -3.49082,9.9663 -1.20754,10.3435 2.1521,7.7186 4.38022,-3.422 z m 776.084294,126.9884 c 0,-3.2985 0.5445,-4.6478 1.21,-2.9986 0.6654,1.6492 0.6654,4.348 0,5.9972 -0.6655,1.6492 -1.21,0.2998 -1.21,-2.9986 z M 210.65368,983.371 c 0,-2.6387 1.07949,-5.4648 2.39887,-6.2802 1.31938,-0.8154 2.39887,0.6765 2.39887,3.3152 0,2.6388 -1.07949,5.4649 -2.39887,6.2803 -1.31938,0.8154 -2.39887,-0.6765 -2.39887,-3.3153 z"
           id="path6982"
           inkscape:connector-curvature="0"
           inkscape:export-xdpi="89"
           inkscape:export-ydpi="89" />
        <path
           style="fill:#556242;fill-opacity:1"
           d="m 755.54643,1160.6063 c -0.24352,-0.4068 0.0148,-8.0786 0.57435,-17.0485 1.06183,-17.0246 1.11614,-131.6537 0.0706,-148.8883 l -0.56774,-9.3583 -2.09638,1.9694 c -1.153,1.0832 -2.3425,2.9501 -2.64331,4.1486 -0.61501,2.4504 -3.6267,3.0027 -4.46472,0.8189 -0.28712,-0.7482 1.03273,-4.4176 2.93301,-8.1544 1.90028,-3.7366 3.26828,-6.794 3.04007,-6.794 -0.22826,0 -2.10137,0.9088 -4.16253,2.0195 -2.06111,1.1107 -3.86607,2.0786 -4.01096,2.151 -0.14491,0.072 0.39675,5.5852 1.20371,12.2506 0.80691,6.6656 1.83324,15.1771 2.28062,18.9144 0.89516,7.478 3.56474,105.1522 3.57067,130.6427 0.004,9.9335 -0.34805,16.2462 -0.92143,16.6005 -0.62095,0.3838 -0.84438,-5.4828 -0.67953,-17.8408 0.26019,-19.5041 -1.59932,-96.4105 -2.86597,-118.5299 -0.65775,-11.4861 -3.01804,-33.6853 -4.21454,-39.6392 -0.30693,-1.5271 -1.04177,-2.0386 -2.92933,-2.0386 -2.42264,0 -4.69417,-1.3971 -4.69417,-2.8871 0,-0.392 1.42705,-1.3089 3.17113,-2.0377 1.74413,-0.7287 3.17118,-1.6916 3.17118,-2.1398 0,-0.4482 -1.63091,-1.4555 -3.62416,-2.2385 -2.09893,-0.8244 -3.62417,-2.0261 -3.62417,-2.8556 0,-0.7875 -0.37188,-1.4319 -0.82639,-1.4319 -0.45452,0 -1.11313,-1.7328 -1.46356,-3.8506 -0.98934,-5.9787 -1.51296,-5.9496 -3.06524,0.1704 -0.79203,3.1228 -1.7459,5.636 -2.11964,5.585 -0.37374,-0.051 -1.34206,-0.093 -2.15185,-0.093 -1.19428,0 -1.34594,-0.5561 -0.80317,-2.9447 0.36804,-1.6195 0.79068,-5.1306 0.93922,-7.8024 0.14854,-2.6718 0.70298,-5.2907 1.23215,-5.8199 1.11767,-1.1178 0.48356,7.1857 -0.87769,11.4924 -1.10528,3.497 -1.05839,3.8666 0.4905,3.8666 0.88979,0 1.77677,-2.005 2.71815,-6.1438 1.92147,-8.4481 1.83448,-10.7362 -0.41475,-10.9049 -0.99665,-0.074 -2.32173,-0.1767 -2.94464,-0.2265 -0.62287,-0.05 -1.44807,-0.866 -1.83377,-1.8137 -0.66885,-1.6436 -0.81044,-1.6227 -3.06767,0.453 -2.85343,2.6239 -8.80864,11.6455 -8.13315,12.321 0.94262,0.9426 6.8598,-3.4933 8.75912,-6.5664 1.06241,-1.719 2.07381,-3.1255 2.24756,-3.1255 1.00359,0 -1.64277,5.9465 -3.74356,8.4121 -1.36537,1.6024 -2.20497,2.1658 -1.86578,1.2521 0.41576,-1.12 0.24746,-1.5383 -0.51648,-1.284 -0.62325,0.2075 -1.26143,1.0387 -1.41825,1.8471 -0.48002,2.4746 3.62101,1.0412 6.40084,-2.2372 1.37039,-1.6161 2.49161,-2.4442 2.49161,-1.84 0,0.604 -1.66402,2.7623 -3.69786,4.7962 -3.41916,3.4191 -3.81716,3.5898 -5.28106,2.265 -0.87075,-0.788 -2.01082,-1.4328 -2.53347,-1.4328 -0.52264,0 -1.41293,-0.5575 -1.97842,-1.2388 -0.78082,-0.9409 -0.70698,-1.5054 0.30699,-2.3469 0.73434,-0.6095 1.60061,-1.9887 1.92504,-3.0649 0.32445,-1.0761 1.66532,-3.1159 2.97972,-4.5327 l 2.38982,-2.576 -5.93343,0.6235 c -4.96828,0.5219 -6.14018,0.3742 -7.20449,-0.9082 -1.0928,-1.3168 -1.08335,-1.8659 0.0675,-3.9163 0.73619,-1.3117 2.67845,-3.2878 4.31614,-4.3914 l 2.9776,-2.0066 -2.54789,-1.3783 c -4.92405,-2.6636 -5.08594,-2.8656 -3.9686,-4.9535 0.74955,-1.4006 1.8957,-1.9273 4.19395,-1.9273 l 3.16251,0 -1.44786,-2.7999 c -3.14704,-6.0857 1.49376,-7.0715 5.7705,-1.2259 1.43763,1.965 3.44778,4.3122 4.46697,5.2159 1.79936,1.5955 1.89507,1.5831 3.30374,-0.4282 0.79792,-1.1391 1.43629,-2.4901 1.41863,-3.0021 -0.0177,-0.5119 -0.53065,-0.034 -1.14002,1.062 -1.06221,1.9108 -1.29441,1.7358 -5.63064,-4.2434 -4.31374,-5.9481 -6.66901,-7.5578 -6.04773,-4.1334 0.17027,0.9385 -0.10628,1.3394 -0.67952,0.9851 -1.4174,-0.876 -1.1782,-3.1843 0.39245,-3.787 0.74748,-0.2868 1.35905,-1.0395 1.35905,-1.6726 0,-0.6332 0.56803,-1.6226 1.26224,-2.1988 1.00704,-0.8358 1.90081,-0.3016 4.42008,2.6416 3.48902,4.0761 4.58383,3.4513 3.68274,-2.1015 -0.51668,-3.184 0.88836,-5.226 2.49223,-3.6223 0.96224,0.9623 4.63881,16.0793 4.64134,19.084 0,1.1213 0.27263,2.0386 0.60373,2.0386 0.3311,0 2.48199,-3.4406 4.77974,-7.6457 3.13817,-5.7431 3.86909,-7.7641 2.93723,-8.1217 -0.68235,-0.2619 -1.14653,-0.185 -1.03158,0.1709 0.42053,1.3018 -6.40147,11.1709 -7.02482,10.1623 -1.54859,-2.5057 4.60508,-11.7806 7.81612,-11.7806 2.66829,0 2.76797,1.5451 0.40117,6.2158 l -2.26594,4.4714 3.42998,-1.8787 c 1.91124,-1.0468 4.10366,-1.6202 4.95154,-1.2948 2.04896,0.7862 1.93205,3.9815 -0.18716,5.1157 -0.93985,0.5029 -2.54243,2.3273 -3.56128,4.0542 l -1.85253,3.1398 1.8832,0.2812 c 1.03575,0.1548 2.3325,0.9995 2.88171,1.8773 0.81879,1.3086 0.542,1.9613 -1.53673,3.6242 l -2.5353,2.0281 4.1209,4.0394 c 2.26645,2.2216 4.12084,4.5385 4.12084,5.1486 0,2.3118 -3.65533,2.2915 -7.63791,-0.043 -3.47688,-2.0376 -4.02701,-2.1409 -4.52278,-0.8489 -0.35364,0.9215 0.13606,1.9614 1.31116,2.7846 1.3221,0.9259 1.60765,1.6365 0.96769,2.4075 -0.96076,1.1576 0.79055,8.8261 2.01011,8.8014 0.35106,-0.01 2.08619,-0.2844 3.85573,-0.6163 l 3.21746,-0.6037 -1.98043,-2.108 c -2.57139,-2.7372 -1.74069,-4.9184 1.87295,-4.9184 3.53296,0 3.93005,-1.1544 2.4103,-7.0073 -0.67723,-2.6083 -1.02091,-4.9527 -0.76375,-5.2097 0.25712,-0.2572 1.53755,-0.4676 2.84535,-0.4676 1.9722,0 2.80807,0.8496 4.89971,4.9805 2.23703,4.418 2.67465,4.8276 3.87536,3.6269 1.51844,-1.5184 0.88305,-4.8274 -1.22262,-6.3671 -1.07504,-0.7861 -0.84721,-1.8125 1.40834,-6.3434 2.72996,-5.4839 2.56788,-6.723 -0.88372,-6.7555 -0.81103,-0.01 -1.92536,-0.5569 -2.47625,-1.2207 -1.12036,-1.35 0.0627,-3.3939 2.78672,-4.8146 1.3035,-0.6799 0.93842,-1.1311 -2.26511,-2.7998 -2.10045,-1.0942 -4.94025,-2.4008 -6.31064,-2.9039 -5.91187,-2.17 -0.80351,-6.4314 5.72357,-4.7746 l 3.78428,0.9605 -3.05514,-2.6173 c -1.68029,-1.4396 -3.76858,-2.8633 -4.64063,-3.1639 -1.94454,-0.6703 -2.01498,-1.6584 -0.22429,-3.1445 2.09519,-1.7388 6.42741,-0.4164 11.10263,3.3892 2.73691,2.2278 3.97403,2.8418 3.5723,1.7731 -1.38183,-3.6762 -2.50764,-13.6151 -1.64044,-14.4824 1.3302,-1.3302 3.725,-0.043 3.725,2.0027 0,2.0119 1.81218,6.4159 2.63704,6.4086 0.29373,0 1.14567,-1.9393 1.89315,-4.3037 1.02995,-3.258 1.85371,-4.3692 3.40169,-4.589 1.22525,-0.1741 2.2611,0.2792 2.58856,1.1325 0.30024,0.7824 1.24976,1.4226 2.11003,1.4226 2.32962,0 2.75514,0.8329 1.76112,3.4475 -0.87468,2.3004 -0.854,2.3175 0.89175,0.7377 1.7226,-1.559 1.82472,-1.5473 2.82568,0.323 0.57113,1.0672 0.77681,3.1316 0.457,4.5875 l -0.58142,2.6472 3.25995,-1.3621 c 2.41662,-1.0097 3.72327,-1.114 5.05127,-0.4033 2.49309,1.3342 2.25831,2.4213 -1.28914,5.9688 -2.88655,2.8865 -2.95211,3.0805 -1.04125,3.0805 2.93961,0 7.89125,1.8769 9.90762,3.7555 2.97455,2.7712 0.3322,4.5709 -9.81426,6.6846 l -2.66929,0.5561 3.20697,1.9767 c 11.07512,6.8265 11.17264,6.9465 7.56791,9.3084 -1.24583,0.8162 -2.26507,2.0488 -2.26507,2.739 0,1.4612 -1.44629,1.6737 -2.27426,0.334 -0.31301,-0.5065 -0.95784,-0.6806 -1.43293,-0.3869 -0.4751,0.2936 -2.68935,-0.4865 -4.92058,-1.7336 -2.23124,-1.2471 -4.05682,-1.979 -4.05682,-1.6267 0,0.8504 2.65107,4.601 4.70169,6.6516 1.99662,1.9967 2.07816,3.0909 0.28153,3.7803 -1.87683,0.7202 -1.69982,3.0305 0.44069,5.7517 2.1227,2.6987 1.81816,3.5094 -1.56215,4.1592 -1.37646,0.2645 -4.94402,1.342 -7.92786,2.3942 -3.31507,1.1692 -6.39854,1.6994 -7.92781,1.3636 -1.52673,-0.3353 -2.50271,-0.1684 -2.50271,0.4283 0,0.5379 0.008,1.2838 0.0177,1.6575 0.01,0.3738 0.72312,0.7211 1.58555,0.7719 0.86242,0.051 2.71331,0.1528 4.11308,0.2265 1.39983,0.074 2.30972,0.5151 2.02197,0.9806 -0.28764,0.4654 -2.04455,0.6116 -3.90411,0.3247 -1.8596,-0.2868 -3.07978,-0.1966 -2.71154,0.2007 0.36823,0.3973 2.61067,0.8435 4.98322,0.9918 5.64417,0.3527 8.29135,0.956 9.8424,2.2433 0.759,0.63 1.26659,0.6855 1.26659,0.1385 0,-1.459 -4.29953,-3.871 -5.84391,-3.2783 -1.25885,0.483 -5.40553,-3.195 -4.56139,-4.0459 0.17117,-0.1725 2.7862,1.0056 5.81128,2.6179 8.54819,4.5562 7.0139,8.1448 -3.54621,8.2946 l -5.34796,0.076 2.21391,2.9025 c 1.21759,1.5965 2.21386,3.5776 2.21386,4.4027 0,2.2071 -5.27709,1.9653 -7.74678,-0.3548 l -1.97435,-1.8548 -0.601,3.7583 c -0.42954,2.6864 -1.11342,3.8924 -2.39767,4.2282 -0.98814,0.2584 -2.00235,1.3385 -2.25382,2.4002 -1.6356,6.9051 0.31922,144.4581 2.20989,155.5038 1.11686,6.5251 1.20697,11.4746 0.18888,10.3741 -1.84912,-1.9984 -3.70973,-32.1269 -3.7461,-60.6592 -0.0206,-15.9463 -0.37082,-35.7206 -0.77892,-43.9429 4.44182,-22.2122 -3.88991,-54.9216 -3.55669,-69.0854 l 0.18232,-7.4749 0.30885,7.0218 c 0.26712,6.0745 0.53137,7.0219 1.95852,7.0219 1.10246,0 1.65464,-0.6763 1.6645,-2.0387 0.0459,-6.393 0.28745,-6.7467 2.00857,-2.9445 l 1.64048,3.6241 1.06752,-2.7008 c 0.76524,-1.9359 0.80792,-3.7239 0.1507,-6.313 -1.13653,-4.4776 -0.6734,-5.136 1.14256,-1.6244 1.42695,2.7595 5.76658,6.1927 6.67691,5.2824 0.28454,-0.2845 -1.62263,-3.0692 -4.23809,-6.1882 l -4.75538,-5.6708 5.94719,6.3423 c 3.27095,3.4883 5.95819,6.0163 5.97154,5.6177 0.0608,-1.8101 -2.90593,-6.0354 -6.68113,-9.5154 -2.26961,-2.0919 -3.77782,-3.8036 -3.35164,-3.8036 0.42614,0 1.26512,0.5907 1.8643,1.3127 1.5509,1.8687 7.10022,3.5218 11.27328,3.3584 6.65614,-0.2609 5.1708,-2.2522 -2.43213,-3.2607 -2.50573,-0.3324 -5.695,-1.1934 -7.08731,-1.9134 -1.39225,-0.72 -2.89396,-1.3091 -3.33704,-1.3091 -1.15869,0 -3.03011,4.4687 -2.39983,5.7306 0.29244,0.5856 -0.008,0.4173 -0.66803,-0.3739 -1.39959,-1.6782 -3.46482,-1.2771 -3.46482,0.6728 0,1.1359 -0.23477,1.1136 -1.49075,-0.1425 -1.2041,-1.2041 -1.63693,-1.26 -2.25118,-0.2912 -0.60894,0.9604 -0.7904,0.9286 -0.91047,-0.1595 -0.0824,-0.7475 -0.43519,0.4756 -0.78385,2.7181 l -0.63387,4.0771 -0.24028,-3.6241 -0.24027,-3.6242 -0.74963,3.6242 c -0.90233,4.3624 -1.06375,11.5369 -0.30411,13.5165 0.86778,2.2614 2.16816,1.6718 2.16816,-0.983 0,-2.8716 0.4292,-2.5862 1.24889,0.8306 -16.92321,40.0951 17.60556,108.8428 -4.34533,167.1649 -0.19045,0.1905 -0.54548,0.014 -0.78901,-0.3936 z m -5.43395,-169.4895 c 0.32459,-0.872 1.70728,-3.0126 3.07265,-4.7567 3.88177,-4.9585 5.41404,-12.6845 2.51568,-12.6845 -0.49835,0 -0.70135,0.3312 -0.45116,0.736 0.25022,0.4049 -0.36169,1.9338 -1.35977,3.3977 -2.28728,3.3548 -6.23647,11.9965 -6.23647,13.6468 0,1.7834 1.7594,1.5407 2.45907,-0.3393 z m -1.52721,-12.9241 c 2.9757,-1.5021 5.41041,-2.9532 5.41041,-3.2246 0,-0.2714 -0.50965,-0.2301 -1.13256,0.092 -0.62291,0.3218 -0.11327,-0.2566 1.13256,-1.2855 2.03686,-1.682 2.08787,-1.8726 0.50634,-1.8907 -1.74097,-0.02 -1.74097,-0.034 0,-1.3504 1.34493,-1.0172 1.43897,-1.3402 0.39968,-1.3729 -1.15443,-0.036 -1.16553,-0.1651 -0.0735,-0.8564 2.14615,-1.3584 -6.83564,-2.265 -10.7678,-1.087 -1.87692,0.5624 -4.58842,1.0287 -6.02557,1.0363 -1.81955,0.01 -2.23793,0.2515 -1.3779,0.7964 1.04269,0.6606 1.04269,0.8533 0,1.2372 -2.91349,1.0726 4.42648,2.609 10.09037,2.1122 6.46201,-0.5669 6.39319,-0.5001 -4.07715,3.9514 -4.5387,1.9297 -5.69815,2.7238 -4.0772,2.7926 2.08275,0.089 2.11922,0.1589 0.45304,0.8748 -1.51434,0.6508 -1.32398,0.7892 1.15839,0.8424 1.63374,0.035 5.40515,-1.1654 8.38085,-2.6675 z m -6.53799,0.3002 c 0.65402,-0.2618 1.43552,-0.2296 1.73657,0.072 0.30105,0.3011 -0.23406,0.5153 -1.18917,0.4759 -1.05552,-0.043 -1.27019,-0.2582 -0.5474,-0.5474 z m 4.24703,-1.1932 c 2.4908,-1.0703 3.92134,-1.0703 2.26512,0 -0.74748,0.4831 -1.97063,0.8559 -2.71811,0.8285 -0.89616,-0.032 -0.74183,-0.315 0.45299,-0.8285 z m -5.66274,-6.9668 c 0.87208,-0.228 2.29909,-0.228 3.17113,0 0.87209,0.2279 0.15859,0.4143 -1.58554,0.4143 -1.74413,0 -2.45764,-0.1864 -1.58559,-0.4143 z m 9.51345,-0.8815 c 0.62287,-0.2514 1.64216,-0.2514 2.26507,0 0.62291,0.2513 0.11327,0.457 -1.13256,0.457 -1.24578,0 -1.75543,-0.2057 -1.13251,-0.457 z m -5.4551,4.5828 c -0.3011,-0.3011 -1.08256,-0.3333 -1.73663,-0.072 -0.72273,0.2892 -0.50806,0.5039 0.54741,0.5474 0.95511,0.039 1.49026,-0.1748 1.18922,-0.4759 z m -10.12115,-12.3061 c -0.59971,-5.3004 -2.82855,-11.4011 -3.80765,-10.4219 -0.24749,0.2474 0.24607,3.9548 1.09682,8.2385 1.81271,9.1276 3.66527,10.6197 2.71083,2.1834 z m 4.93029,5.3136 c 0,-1.6142 -3.10562,-8.7688 -3.8063,-8.7688 -0.50476,0 -0.67029,0.6449 -0.36781,1.4332 0.30244,0.7883 0.54994,2.8268 0.54994,4.5302 0,2.4929 0.3534,3.097 1.81209,3.097 0.99665,0 1.81208,-0.1312 1.81208,-0.2916 z m 14.60386,-2.8004 c -1.62957,-1.2023 -3.48458,-2.8994 -4.12218,-3.7713 -1.13835,-1.5569 -4.13942,-1.3045 -4.13942,0.3479 0,1.4207 6.71994,5.6094 8.99912,5.6094 2.15937,0 2.13749,-0.065 -0.73752,-2.186 z m 29.79202,1.3018 c 5.68562,-1.5079 9.96643,-3.1692 9.96643,-3.8677 0,-0.3764 -1.52893,-0.7027 -3.39763,-0.7252 l -3.39767,-0.041 2.60555,-1.1127 c 2.34657,-1.0022 2.45869,-1.2346 1.12787,-2.3391 -1.91501,-1.5894 -8.84149,-0.9247 -13.69981,1.3145 -5.63891,2.599 -5.6825,2.5635 -1.45399,-1.1874 3.24474,-2.8784 3.81563,-3.8302 3.08275,-5.1399 -0.82854,-1.4805 -1.1428,-1.4016 -3.98226,1.0002 -6.656,5.6296 -6.69284,5.634 -4.07968,0.4772 2.22932,-4.3994 2.4337,-6.5217 0.62803,-6.5217 -0.66627,0 -3.12697,5.081 -3.94814,8.1523 -0.19955,0.7464 -0.63976,-0.3749 -0.97823,-2.4916 -0.41637,-2.604 -1.06877,-3.8486 -2.01723,-3.8486 -0.82744,0 -1.13739,0.4278 -0.75652,1.0441 0.35488,0.5742 0.57534,3.0206 0.48988,5.4362 -0.0877,2.4787 0.24649,4.3921 0.76719,4.3921 0.50749,0 0.92894,-0.7135 0.93655,-1.5855 0.008,-0.8968 0.3031,-1.1913 0.67952,-0.6781 0.36613,0.4992 1.83625,1.5118 3.26699,2.2504 1.43074,0.7386 2.80357,1.8699 3.05073,2.5141 0.33474,0.8722 1.42816,0.5975 4.28393,-1.076 2.96235,-1.7361 4.43228,-2.0863 6.46267,-1.5395 2.57995,0.6946 2.55808,0.7188 -1.193,1.3231 -4.97967,0.8022 -8.41037,2.4013 -8.41037,3.9202 0,1.4337 5.15961,1.6042 9.96644,0.3294 z m -0.83055,-6.6889 c 0.20763,-0.1786 2.00843,-0.5749 4.00168,-0.8804 2.46802,-0.3783 3.19062,-0.2791 2.26512,0.3109 -1.23793,0.7893 -7.14636,1.3262 -6.2668,0.5695 z m -24.7095,3.7146 c 0.341,-1.7708 -3.49076,-3.6454 -6.54996,-3.2045 -1.7203,0.248 -1.65818,0.4518 0.84667,2.777 2.9423,2.7314 5.22661,2.9026 5.70329,0.4275 z m -38.67313,-3.1634 c 1.127,-1.437 1.09494,-1.469 -0.34206,-0.342 -0.8721,0.6839 -1.5856,1.3974 -1.5856,1.5855 0,0.7458 0.74404,0.2658 1.92766,-1.2435 z m 39.82042,-3.0876 c -1.42858,-4.1944 -5.83277,-11.0892 -5.1174,-8.0113 0.51916,2.2336 0.51189,2.2367 -0.52281,0.2265 -1.55118,-3.0138 -2.81634,-2.4777 -2.13863,0.906 1.27195,6.3507 2.46581,8.8295 4.82803,10.0242 3.21305,1.6252 4.21272,0.5596 2.95081,-3.1454 z m -2.15648,1.1079 c -0.84587,-1.4319 -1.53646,-2.9484 -1.53459,-3.3698 0,-0.4214 0.83926,0.6049 1.86094,2.2806 1.02159,1.6758 1.71217,3.1922 1.53454,3.3698 -0.17764,0.1776 -1.01503,-0.8486 -1.86089,-2.2806 z m 5.64666,0.1677 c -0.0511,-2.7256 -0.21769,-3.0392 -0.84233,-1.5856 -1.08198,2.5178 -1.08198,4.9832 0,4.9832 0.4983,0 0.87736,-1.5289 0.84233,-3.3976 z m -24.39937,0.253 c 0,-0.9324 -5.83372,-8.6339 -6.53995,-8.6339 -0.89262,0 1.62555,5.2019 3.61852,7.4748 1.29885,1.4814 2.92143,2.1251 2.92143,1.1591 z m 41.24877,-2.1167 c -0.27899,-0.2789 -1.01005,0 -1.62469,0.6187 -0.88812,0.8948 -0.78403,0.9989 0.50721,0.5072 0.89357,-0.3402 1.39642,-0.8469 1.11748,-1.1259 z m 9.0208,-2.9093 c -1.94426,-2.0294 -2.87617,-2.4302 -4.11209,-1.7688 -0.98292,0.526 -1.42514,1.5167 -1.14878,2.5735 0.34455,1.3177 1.30325,1.73 4.11208,1.7688 l 3.66279,0.051 -2.514,-2.6241 z m -40.30313,0.3422 c 0,-0.4432 -5.21828,-5.6473 -7.38716,-7.3672 -1.14041,-0.9043 -2.01231,-0.9215 -4.05462,-0.081 -1.43102,0.5895 -2.9076,1.006 -3.28133,0.9255 -1.16396,-0.2506 -0.68997,2.0331 0.81591,3.9309 1.37995,1.7392 1.41255,1.7037 0.8093,-0.8814 -0.5975,-2.5605 -0.54687,-2.62 1.02494,-1.2039 4.39165,3.9566 12.07296,6.9319 12.07296,4.6763 z m -5.99117,-2.2165 c -4.35882,-3.4609 -4.94182,-4.0792 -2.61622,-2.7745 2.29398,1.2868 7.43277,5.5606 6.69337,5.5666 -0.30521,0 -2.13993,-1.254 -4.07715,-2.7921 z m 39.46023,-0.148 c -0.39953,-2.1179 -1.11897,-5.5835 -1.59879,-7.7013 -0.47979,-2.1179 -0.78093,-3.8507 -0.6692,-3.8507 0.11169,0 1.57028,1.9367 3.2412,4.3037 5.33987,7.5642 7.80416,10.0554 9.13392,9.2335 0.98603,-0.6094 0.8674,-1.1645 -0.60798,-2.8435 -1.00824,-1.1475 -3.31231,-4.3798 -5.12013,-7.183 -2.85482,-4.4265 -3.59345,-5.0381 -5.6179,-4.651 -1.28196,0.245 -2.35676,0.9076 -2.38835,1.4725 -0.0316,0.5648 -0.48208,0.01 -1.00114,-1.2382 -0.89918,-2.1581 -0.9791,-2.1795 -1.69097,-0.4531 -0.67202,1.6297 -0.75365,1.5765 -0.81089,-0.5284 -0.10231,-3.7603 -2.59463,-2.8128 -6.61761,2.5156 -2.01657,2.6709 -3.45975,5.0629 -3.20708,5.3156 0.46978,0.4698 4.82056,-4.284 6.7631,-7.3894 0.99072,-1.5838 1.08365,-1.5166 1.13251,0.8196 0.0292,1.3999 0.42532,2.3152 0.88003,2.0342 0.90539,-0.5596 0.67971,2.6414 -0.36383,5.1607 -0.40351,0.974 -0.25311,1.5856 0.38996,1.5856 0.57568,0 1.58228,-1.2738 2.23683,-2.8306 l 1.19018,-2.8306 1.58181,6.4547 c 0.92167,3.7608 2.05948,6.4548 2.72633,6.4548 0.85635,0 0.96158,-0.9694 0.418,-3.8507 z m -6.13271,0.5391 c 0.91128,-0.8247 1.65689,-2.5105 1.65689,-3.7463 l 0,-2.2469 -1.65785,2.1607 c -1.89315,2.4675 -3.09424,5.332 -2.23573,5.332 0.3189,0 1.32536,-0.6748 2.23669,-1.4995 z m -65.28319,-1.1334 c -1.9507,-1.2355 2.13231,-2.2174 4.32986,-1.0414 2.36336,1.2648 6.43644,-0.2665 6.434,-2.419 0,-1.8828 -4.77739,-2.5965 -7.14769,-1.0682 -1.10213,0.7105 -0.68408,0.8185 1.71326,0.4425 2.97278,-0.4662 3.05944,-0.4121 1.38508,0.8657 -0.98234,0.7497 -2.3501,1.1467 -3.03949,0.8821 -0.68933,-0.2646 -2.89085,0.01 -4.89222,0.6092 -2.94807,0.8833 -3.31706,1.2168 -1.94375,1.7564 0.93231,0.3664 2.30668,0.6886 3.05416,0.7159 1.12488,0.041 1.14329,-0.087 0.10679,-0.7432 z m 59.60307,-3.409 c 3.68466,-5.92 2.6189,-7.685 -1.70097,-2.8171 -2.80682,3.163 -3.22803,4.1175 -2.40126,5.4414 0.55147,0.883 1.10768,1.6055 1.23607,1.6055 0.12839,0 1.41815,-1.9034 2.86616,-4.2298 z m 14.49753,2.9766 c 0.80204,-0.9665 0.72375,-1.3747 -0.34211,-1.7837 -0.95042,-0.3648 -1.38221,0.027 -1.38221,1.2533 0,2.1121 0.3279,2.2129 1.72432,0.5304 z m -71.35274,-4.6272 c 2.6657,-1.241 5.56018,-2.2603 6.43223,-2.2651 0.87209,-0.01 1.58559,-0.467 1.58559,-1.027 0,-1.9572 -9.73483,-0.4214 -12.2385,1.9307 -4.37822,4.1132 -2.79048,4.6252 4.22068,1.3614 z m 50.80404,0.4781 c -0.13782,-0.5966 1.28368,-3.1747 3.15893,-5.7293 3.36604,-4.5854 4.94168,-9.7073 2.98627,-9.7073 -1.65172,0 -6.34762,2.6983 -6.34762,3.6475 0,0.4855 1.52893,0.9437 3.39767,1.0184 2.33326,0.093 2.68805,0.2474 1.13256,0.4919 -1.69571,0.2667 -2.97326,1.707 -5.08213,5.7301 -1.54937,2.9558 -2.64278,5.5482 -2.42983,5.7612 0.8138,0.8138 3.42284,-0.1797 3.18415,-1.2125 z m 36.70547,-0.3983 c 1.10768,-1.1076 -1.13509,-2.4865 -3.33024,-2.0475 -2.63297,0.5266 -5.04046,-0.783 -9.57969,-5.2112 -2.78682,-2.7185 -2.3824,-2.6013 3.37241,0.9783 3.35417,2.0864 11.41765,4.4003 12.29094,3.5271 1.16084,-1.1609 -12.96295,-9.6562 -15.85787,-9.5384 -0.3847,0.015 -1.43672,1.0413 -2.33786,2.2791 -1.62345,2.2301 -1.61229,2.2734 1.21563,4.7283 5.84072,5.0702 12.11159,7.3995 14.22668,5.2843 z m -61.59745,-1.1128 c 1.12122,-0.3004 2.03863,-1.0832 2.03863,-1.7395 0,-0.6562 -0.91741,-1.3701 -2.03863,-1.5863 -1.12121,-0.2163 -0.53424,-0.2425 1.30441,-0.058 3.50094,0.3508 5.48411,-1.1176 3.34188,-2.4745 -1.51869,-0.962 -7.2002,-1.0445 -8.61629,-0.1252 -0.86262,0.5599 -1.01488,2.5515 -0.4493,5.8754 0.13844,0.8136 1.64977,0.8507 4.4193,0.1084 z m -18.67627,-4.7693 c -0.91947,-0.5825 -0.95349,-0.8764 -0.13318,-1.1498 1.50889,-0.503 -8.12798,-5.2883 -10.64979,-5.2883 -3.25327,0 -2.3376,1.4317 1.68678,2.6375 2.04181,0.6118 3.53241,1.2922 3.31247,1.5122 -0.21994,0.2199 -2.15797,-0.2205 -4.30672,-0.9786 -2.14876,-0.758 -4.05981,-1.2254 -4.24678,-1.0383 -0.66572,0.6656 4.27285,3.3388 7.6294,4.1295 4.66934,1.1001 8.31753,1.1957 6.70782,0.1758 z m -3.91803,-1.6208 c 0.65401,-0.2617 1.43547,-0.2295 1.73656,0.072 0.30105,0.3011 -0.23405,0.5153 -1.18917,0.476 -1.05551,-0.043 -1.27018,-0.2583 -0.54739,-0.5475 z m 23.98629,-4.2086 c 1.38848,-1.5806 3.41848,-3.7911 4.51113,-4.9123 2.29852,-2.3587 1.18046,-2.6873 -2.07733,-0.6106 -1.68375,1.0733 -1.56502,0.8296 0.47791,-0.9808 2.64024,-2.3397 2.65321,-2.3902 0.45303,-1.76 -2.83567,0.8121 -8.7755,5.4297 -10.05161,7.8141 -2.70341,5.0515 2.34603,5.391 6.68687,0.4496 z m -6.60169,2.2013 c 0,-0.8414 5.33269,-5.9787 5.66978,-5.4621 0.13882,0.2129 -1.08006,1.6771 -2.70868,3.254 -1.62861,1.5769 -2.9611,2.5705 -2.9611,2.2081 z m -11.77852,-0.3524 c 0,-1.7676 -8.74372,-10.0085 -9.87638,-9.3085 -1.40164,0.8662 0.96268,5.1449 4.47712,8.1021 3.03786,2.5561 5.39926,3.0837 5.39926,1.2064 z m 40.77176,-2.3199 c 0,-0.4227 1.58851,-1.4849 3.53004,-2.3603 3.20152,-1.4437 4.12988,-3.104 2.59435,-4.6395 -0.31478,-0.3148 -3.14664,-1.5285 -6.29298,-2.6971 -3.14635,-1.1687 -5.10907,-2.1365 -4.36159,-2.1506 0.74747,-0.014 3.7034,0.9385 6.56875,2.1168 2.86535,1.1783 5.20976,1.7657 5.20976,1.3053 0,-2.1337 -12.81599,-6.1345 -16.76173,-5.2326 l -2.71811,0.6214 3.17114,0.2144 3.17113,0.2144 -2.71814,0.6518 -2.71811,0.6518 2.71811,0.7218 c 1.495,0.3969 3.35618,1.2735 4.13601,1.9477 0.77987,0.6744 2.77825,1.7003 4.44088,2.2799 l 3.02299,1.0538 -3.30834,1.6973 c -3.25277,1.6687 -3.90076,2.5716 -2.70427,3.768 0.8641,0.8642 3.02011,0.7468 3.02011,-0.1643 z m -33.16428,-3.1412 c -1.35279,-8.166 -3.28522,-16.0233 -3.94077,-16.0233 -0.97086,0 -0.16897,11.534 1.01986,14.6684 0.50831,1.3404 0.70934,2.7846 0.44671,3.2097 -0.26267,0.4249 0.29416,0.8307 1.23736,0.9017 1.44002,0.1085 1.63823,-0.3332 1.23684,-2.7565 z m 64.71895,1.3074 c 0.81845,-0.5188 0.0952,-0.9451 -2.26507,-1.3351 -4.95436,-0.8186 -5.43056,-0.7515 -5.43056,0.7661 0,1.5101 5.56269,1.9213 7.69563,0.569 z m -70.8276,-6.7545 c -3.70696,-6.3255 -5.74596,-8.4627 -6.94786,-7.2827 -1.2476,1.225 0.54874,5.1865 4.81028,10.6083 2.32173,2.9537 2.8628,3.2576 3.56511,2.0026 0.58607,-1.0472 0.16897,-2.604 -1.42753,-5.3282 z m -2.59335,0.5228 c -3.86449,-5.4058 -4.56842,-6.5688 -3.97589,-6.5688 0.25999,0 2.13395,2.4463 4.16439,5.4362 4.37681,6.4452 4.23186,7.316 -0.1885,1.1326 z m 80.5351,5.0277 c 1.65493,-0.5984 3.00896,-1.4008 3.00896,-1.7829 0,-0.3822 -0.89937,-0.362 -1.99867,0.044 -1.09925,0.4066 -3.44361,0.4031 -5.20971,-0.01 -1.76609,-0.4109 -4.63805,-0.7094 -6.38222,-0.6634 -3.52382,0.093 -2.60866,0.3791 4.00369,1.2531 3.13357,0.4143 4.07505,0.8307 3.17114,1.4028 -1.82396,1.1545 -0.1284,1.0317 3.40681,-0.2466 z m -5.82492,-3.5724 c 7.47995,0.2308 8.91877,-0.6318 4.01288,-2.4058 -4.11151,-1.4868 -9.22876,-1.3657 -12.43871,0.2942 -3.17099,1.6398 -3.65273,3.6004 -0.63454,2.5825 1.12121,-0.3781 5.19837,-0.5901 9.06037,-0.4709 z m -59.6796,-4.4 c 1.31909,-1.9932 1.97885,-3.6241 1.46615,-3.6241 -0.9142,0 -4.51966,5.2324 -4.52636,6.5688 -0.006,1.3112 0.68273,0.648 3.06021,-2.9447 z m 59.96352,-4.59 2.45433,-2.5619 -2.30402,-0.5782 c -2.79515,-0.7015 -5.39577,0.5506 -10.16173,4.8927 -1.98646,1.8097 -2.75093,2.2712 -1.69881,1.0254 2.46748,-2.9217 3.56478,-5.1949 4.24722,-8.7987 1.21616,-6.4223 -3.02982,-2.9751 -6.25072,5.0747 -1.5366,3.8403 -1.53143,3.8904 0.61712,5.9597 l 2.16678,2.0867 4.2377,-2.2694 c 2.33077,-1.248 5.34221,-3.422 6.69213,-4.831 z m -10.15594,4.382 c 0.92397,-0.633 3.37025,-2.4721 5.43625,-4.0868 2.0659,-1.6148 4.12066,-2.9398 4.56607,-2.9446 1.08825,-0.012 -6.56412,5.7694 -9.41721,7.1146 -1.89573,0.8937 -1.99115,0.8802 -0.58511,-0.083 z m -12.62817,-1.8305 c 1.97785,-2.5096 2.33217,-2.6769 2.39796,-1.1326 0.0537,1.2598 0.60847,0.7075 1.82013,-1.8121 0.95856,-1.9932 1.49294,-2.6048 1.18749,-1.359 -0.874,3.5647 -0.8607,3.828 0.21319,4.226 1.13715,0.4214 4.48721,-7.4108 5.39232,-12.6069 0.47199,-2.7099 0.30976,-3.3976 -0.80165,-3.3976 -0.76642,0 -1.57994,0.7135 -1.80782,1.5856 -0.23539,0.9007 -0.46572,0.4115 -0.53333,-1.1326 -0.0922,-2.1064 -0.3166,-2.4122 -0.99727,-1.3591 -0.7506,1.1615 -0.88033,1.1285 -0.89215,-0.2265 -0.0516,-5.9039 -4.47731,4.8963 -4.60522,11.2384 -0.0575,2.8509 -0.12944,2.7781 -1.20615,-1.2214 -0.62976,-2.3392 -1.58249,-4.7855 -2.11716,-5.4362 -0.53467,-0.6507 -1.11313,-2.2024 -1.2854,-3.4482 -0.17237,-1.2458 -0.72107,-2.0613 -1.21937,-1.8121 -1.18012,0.59 -0.70397,6.6157 0.93067,11.7785 1.58908,5.0189 1.48892,8.5045 -0.204,7.0995 -0.6379,-0.5294 -0.97728,-1.2578 -0.75423,-1.6186 0.6847,-1.108 -6.15152,-7.1724 -9.33672,-8.2828 -3.73548,-1.3021 -5.48837,-0.023 -3.02433,2.2067 2.38044,2.1543 13.16561,9.634 13.9085,9.6458 0.33761,0.01 1.65819,-1.3153 2.93454,-2.9348 z m -7.7217,-2.7468 c -1.29861,-1.1054 -3.13338,-2.5254 -4.07715,-3.1553 -1.00699,-0.6722 -0.59205,-0.617 1.00426,0.1337 1.49615,0.7035 3.49602,2.1364 4.44409,3.184 2.22407,2.4576 1.62292,2.3863 -1.3712,-0.1624 z m 11.09593,-4.275 c 0,-0.7475 0.35043,-2.1745 0.77868,-3.1712 0.49084,-1.1421 0.77868,-1.3096 0.77868,-0.453 0,0.7475 -0.35038,2.1745 -0.77868,3.1712 -0.49079,1.1421 -0.77868,1.3096 -0.77868,0.453 z m 2.66231,-1.4346 c 0.0435,-1.0555 0.25816,-1.2701 0.5474,-0.5474 0.26171,0.6541 0.22951,1.4355 -0.0715,1.7366 -0.3011,0.3011 -0.51524,-0.2341 -0.4759,-1.1892 z m -0.90607,-5.4362 c 0.0435,-1.0555 0.25817,-1.2702 0.5474,-0.5474 0.26176,0.654 0.22956,1.4355 -0.0715,1.7366 -0.30104,0.3011 -0.5152,-0.2342 -0.47586,-1.1892 z m -13.48547,76.1828 c 0.0186,-1.495 0.22152,-1.9969 0.45121,-1.1154 0.22975,0.8816 0.21463,2.1047 -0.0335,2.7181 -0.24816,0.6135 -0.43609,-0.1078 -0.41762,-1.6027 z"
           id="path6740"
           inkscape:connector-curvature="0"
           sodipodi:nodetypes="ccsccsscssccsccsscsscscssscsscsccsscccscsscccscscsscccscccccccsscssscccssccscssccssccsscccccccccscssccccccccsccssssscsccccccsssccscsccsccccccscscccscsccssccccccscccccsccsccccccssccccsccccccscscccccscsccsccscsccscscscccssscccccsscssccscccccccccccsccscccccccccccccscccsccccccscsssscsssccssccsccccscccsscsscssccscccssccccccccccccscsscscscccccscsssscscccccsccccccccccssccccccccssccccccccscscccsccssccsccscccccccccccccccscccscccssccsssccscccccscccsccsccccsccccscccccccccccscssccsscsssccssccccssccccccccscccscscccccsscscccssscscscccccccscccscsccccccsssccccccccccsccsccsccccsssccssccccssccssscssscccccccccccccc"
           inkscape:export-xdpi="89"
           inkscape:export-ydpi="89" />
      </g>
    </g>
  </g>
</svg>
