<?xml version="1.0" encoding="UTF-8" standalone="no"?>
<!-- Created with Inkscape (http://www.inkscape.org/) -->

<svg
   xmlns:dc="http://purl.org/dc/elements/1.1/"
   xmlns:cc="http://creativecommons.org/ns#"
   xmlns:rdf="http://www.w3.org/1999/02/22-rdf-syntax-ns#"
   xmlns:svg="http://www.w3.org/2000/svg"
   xmlns="http://www.w3.org/2000/svg"
   xmlns:sodipodi="http://sodipodi.sourceforge.net/DTD/sodipodi-0.dtd"
   xmlns:inkscape="http://www.inkscape.org/namespaces/inkscape"
   width="4.4405112mm"
   height="4.890995mm"
   viewBox="0 0 15.734095 17.330297"
   id="svg8824"
   version="1.1"
   inkscape:version="0.91 r13725"
   sodipodi:docname="radis.svg">
  <defs
     id="defs8826" />
  <sodipodi:namedview
     id="base"
     pagecolor="#ffffff"
     bordercolor="#666666"
     borderopacity="1.0"
     inkscape:pageopacity="0.0"
     inkscape:pageshadow="2"
     inkscape:zoom="0.35"
     inkscape:cx="151.43848"
     inkscape:cy="-251.33485"
     inkscape:document-units="px"
     inkscape:current-layer="layer1"
     showgrid="false"
     fit-margin-top="0"
     fit-margin-left="0"
     fit-margin-right="0"
     fit-margin-bottom="0"
     inkscape:window-width="1366"
     inkscape:window-height="712"
     inkscape:window-x="0"
     inkscape:window-y="0"
     inkscape:window-maximized="1" />
  <metadata
     id="metadata8829">
    <rdf:RDF>
      <cc:Work
         rdf:about="">
        <dc:format>image/svg+xml</dc:format>
        <dc:type
           rdf:resource="http://purl.org/dc/dcmitype/StillImage" />
        <dc:title></dc:title>
      </cc:Work>
    </rdf:RDF>
  </metadata>
  <g
     inkscape:label="Calque 1"
     inkscape:groupmode="layer"
     id="layer1"
     transform="translate(553.58133,-263.69705)">
    <path
       style="fill:#556242;fill-opacity:1"
       d="m -538.34104,280.98493 c -0.572,-0.1041 -1.1375,-0.4185 -1.7334,-0.9641 -0.9106,-0.8337 -1.1439,-0.8741 -2.3114,-0.3997 -0.6972,0.2833 -0.8993,0.3214 -1.6994,0.3214 -0.761,0 -0.9743,-0.036 -1.3144,-0.2237 -0.6401,-0.3526 -1.3226,-1.1417 -1.6461,-1.9034 -0.2663,-0.627 -0.2829,-0.7297 -0.2804,-1.7201 10e-5,-0.9323 0.029,-1.1212 0.2386,-1.6433 0.129,-0.3246 0.372,-0.8093 0.5382,-1.0772 0.1663,-0.2677 0.3022,-0.5235 0.3022,-0.5685 0,-0.1212 -0.6159,-0.4997 -1.1773,-0.7233 -0.6111,-0.2434 -1.7338,-0.2644 -2.2954,-0.043 -0.2161,0.085 -0.695,0.4485 -1.0751,0.8158 -0.8121,0.7851 -1.234,1.0285 -1.7843,1.0314 -0.5747,-10e-5 -0.8306,-0.1596 -0.9444,-0.6006 -0.2099,-0.811 0.4155,-2.1206 1.2539,-2.626 0.7483,-0.4509 2.6799,-0.3424 4.0741,0.229 0.3799,0.1558 0.7027,0.2691 0.7176,0.2522 0.015,-0.016 -0.3478,-0.3114 -0.8048,-0.655 -0.8949,-0.6715 -1.7021,-1.1334 -2.798,-1.6014 -1.7179,-0.7338 -2.2931,-1.2996 -2.477,-2.438 -0.053,-0.3285 -0.029,-0.4031 0.2049,-0.6571 0.3595,-0.3893 0.9145,-0.5525 1.6792,-0.4941 1.188,0.09 1.9701,0.763 3.3765,2.9036 0.3873,0.5896 0.711,1.0628 0.7194,1.0518 0.015,-0.016 -0.042,-0.3355 -0.1119,-0.7211 -0.188,-1.0349 -0.1228,-2.7716 0.1243,-3.3182 0.4011,-0.8863 1.4762,-1.6407 2.1339,-1.4978 0.4118,0.09 0.5919,0.3726 0.6368,1.001 0.05,0.697 -0.129,1.317 -0.6885,2.3821 -0.7028,1.339 -0.8485,1.7567 -0.8483,2.4348 -2e-4,0.7231 0.1508,1.4202 0.4617,2.1275 l 0.23,0.525 0.4193,-0.349 c 0.231,-0.1917 0.6489,-0.4718 0.929,-0.622 0.451,-0.2417 0.614,-0.2734 1.4191,-0.2761 0.8552,2e-4 0.9439,0.016 1.4854,0.3252 0.6602,0.3762 1.3176,1.1404 1.6281,1.8928 0.1414,0.3411 0.2115,0.7282 0.2398,1.3122 0.04,0.8513 -0.054,1.4409 -0.4206,2.6064 -0.2114,0.6715 -0.2104,1.0319 0.015,1.5198 0.2351,0.5339 1.0252,1.502 1.6006,1.9608 0.2619,0.2094 0.4763,0.4116 0.4769,0.4486 0,0.039 -0.2175,0.028 -0.4833,-0.019 z m -3.686,-4.018 c -0.9138,1.0582 -1.6357,1.9538 -1.6041,1.9903 0.028,0.04 0.4192,-0.078 0.8612,-0.2559 0.4422,-0.1774 1.0244,-0.3446 1.294,-0.3715 l 0.49,-0.048 0.04,-0.5674 c 0.023,-0.3122 0.1613,-0.9508 0.3082,-1.419 0.1462,-0.4684 0.2681,-0.9414 0.269,-1.0515 10e-5,-0.1383 -0.5066,0.3893 -1.6592,1.7241 z"
       id="path4839-4"
       inkscape:connector-curvature="0"
       inkscape:export-xdpi="89"
       inkscape:export-ydpi="89" />
  </g>
</svg>
